<?xml version="1.0" encoding="UTF-8" standalone="no"?><svg xmlns="http://www.w3.org/2000/svg" xmlns:xlink="http://www.w3.org/1999/xlink" contentScriptType="application/ecmascript" contentStyleType="text/css" height="681px" preserveAspectRatio="none" style="width:1550px;height:681px;" version="1.1" viewBox="0 0 1550 681" width="1550px" zoomAndPan="magnify"><defs><filter height="300%" id="f1mud2nvke5wqn" width="300%" x="-1" y="-1"><feGaussianBlur result="blurOut" stdDeviation="2.0"/><feColorMatrix in="blurOut" result="blurOut2" type="matrix" values="0 0 0 0 0 0 0 0 0 0 0 0 0 0 0 0 0 0 .4 0"/><feOffset dx="4.0" dy="4.0" in="blurOut2" result="blurOut3"/><feBlend in="SourceGraphic" in2="blurOut3" mode="normal"/></filter></defs><g><!--MD5=[2bbec844ebd31f726303561be2fafbd2]
class Entite--><rect codeLine="1" fill="#FEFECE" filter="url(#f1mud2nvke5wqn)" height="150.4375" id="Entite" style="stroke:#A80036;stroke-width:1.5;" width="305" x="7" y="7"/><ellipse cx="137.25" cy="23" fill="#A9DCDF" rx="11" ry="11" style="stroke:#A80036;stroke-width:1.0;"/><path d="M139.3281,24.8125 L139.7188,25.7969 L139.3281,25.7969 C138.875,25.7969 138.7656,25.8125 138.6094,25.9219 C138.3594,26.0781 138.2031,26.3594 138.2031,26.6563 C138.2031,26.9219 138.3438,27.1719 138.5625,27.3281 C138.7031,27.4531 138.9063,27.5 139.3281,27.5 L141.6875,27.5 C142.0469,27.5 142.2656,27.4688 142.4063,27.375 C142.6563,27.2344 142.8125,26.9375 142.8125,26.6563 C142.8125,26.375 142.6719,26.125 142.4531,25.9688 C142.2813,25.8281 142.125,25.7969 141.6563,25.7969 L138.2656,17.5938 L134.5938,17.5938 C134.1406,17.5938 134.0156,17.6094 133.8594,17.7031 C133.6094,17.875 133.4531,18.1563 133.4531,18.4375 C133.4531,18.7188 133.5938,18.9688 133.8125,19.1406 C133.9844,19.25 134.1563,19.2813 134.5938,19.2813 L135.6719,19.2813 L133.0313,25.7969 C132.6094,25.7969 132.4531,25.8125 132.2969,25.9219 C132.0469,26.0781 131.8906,26.3594 131.8906,26.6563 C131.8906,27.2188 132.2656,27.5 133.0156,27.5 L135.2813,27.5 C135.6406,27.5 135.8594,27.4688 135.9844,27.375 C136.25,27.2344 136.3906,26.9375 136.3906,26.6563 C136.3906,26.375 136.2656,26.125 136.0469,25.9531 C135.875,25.8281 135.7344,25.7969 135.2813,25.7969 L134.8906,25.7969 L135.2813,24.8125 L139.3281,24.8125 Z M138.625,23.1094 L135.9531,23.1094 L137.2969,19.8438 L138.625,23.1094 Z " fill="#000000"/><text fill="#000000" font-family="sans-serif" font-size="12" font-style="italic" lengthAdjust="spacingAndGlyphs" textLength="36" x="157.75" y="27.1543">Entite</text><line style="stroke:#A80036;stroke-width:1.5;" x1="8" x2="311" y1="39" y2="39"/><ellipse cx="18" cy="50" fill="none" rx="3" ry="3" style="stroke:#038048;stroke-width:1.0;"/><text fill="#000000" font-family="sans-serif" font-size="11" lengthAdjust="spacingAndGlyphs" textLength="63" x="27" y="53.2104">nom: string</text><ellipse cx="18" cy="62.8047" fill="none" rx="3" ry="3" style="stroke:#038048;stroke-width:1.0;"/><text fill="#000000" font-family="sans-serif" font-size="11" lengthAdjust="spacingAndGlyphs" textLength="95" x="27" y="66.0151">totalVie: number</text><ellipse cx="18" cy="75.6094" fill="none" rx="3" ry="3" style="stroke:#038048;stroke-width:1.0;"/><text fill="#000000" font-family="sans-serif" font-size="11" lengthAdjust="spacingAndGlyphs" textLength="75" x="27" y="78.8198">guid: number</text><ellipse cx="18" cy="88.4141" fill="none" rx="3" ry="3" style="stroke:#038048;stroke-width:1.0;"/><text fill="#000000" font-family="sans-serif" font-size="11" lengthAdjust="spacingAndGlyphs" textLength="63" x="27" y="91.6245">salle: Salle</text><ellipse cx="18" cy="101.2188" fill="none" rx="3" ry="3" style="stroke:#038048;stroke-width:1.0;"/><text fill="#000000" font-family="sans-serif" font-size="11" lengthAdjust="spacingAndGlyphs" text-decoration="underline" textLength="88" x="27" y="104.4292">entites: Entite[]</text><line style="stroke:#A80036;stroke-width:1.5;" x1="8" x2="311" y1="111.0234" y2="111.0234"/><ellipse cx="18" cy="122.0234" fill="#84BE84" rx="3" ry="3" style="stroke:#038048;stroke-width:1.0;"/><text fill="#000000" font-family="sans-serif" font-size="11" lengthAdjust="spacingAndGlyphs" textLength="279" x="27" y="125.2339">remove(entites: number[], id: number): number[]</text><ellipse cx="18" cy="134.8281" fill="#84BE84" rx="3" ry="3" style="stroke:#038048;stroke-width:1.0;"/><text fill="#000000" font-family="sans-serif" font-size="11" font-style="italic" lengthAdjust="spacingAndGlyphs" textLength="71" x="27" y="138.0386">vue(): object</text><ellipse cx="18" cy="147.6328" fill="#84BE84" rx="3" ry="3" style="stroke:#038048;stroke-width:1.0;"/><text fill="#000000" font-family="sans-serif" font-size="11" lengthAdjust="spacingAndGlyphs" text-decoration="underline" textLength="186" x="27" y="150.8433">ajouterEntite(entite: Entite): void</text><!--MD5=[d7bfb344123a7c656cf7eeec7641556a]
class EntiteNotFindException--><rect codeLine="11" fill="#FEFECE" filter="url(#f1mud2nvke5wqn)" height="48" id="EntiteNotFindException" style="stroke:#A80036;stroke-width:1.5;" width="169" x="304" y="300"/><ellipse cx="319" cy="316" fill="#ADD1B2" rx="11" ry="11" style="stroke:#A80036;stroke-width:1.0;"/><path d="M321.3438,311.6719 C320.4063,311.2344 319.8125,311.0938 318.9375,311.0938 C316.3125,311.0938 314.3125,313.1719 314.3125,315.8906 L314.3125,317.0156 C314.3125,319.5938 316.4219,321.4844 319.3125,321.4844 C320.5313,321.4844 321.6875,321.1875 322.4375,320.6406 C323.0156,320.2344 323.3438,319.7813 323.3438,319.3906 C323.3438,318.9375 322.9531,318.5469 322.4844,318.5469 C322.2656,318.5469 322.0625,318.625 321.875,318.8125 C321.4219,319.2969 321.4219,319.2969 321.2344,319.3906 C320.8125,319.6563 320.125,319.7813 319.3594,319.7813 C317.3125,319.7813 316.0156,318.6875 316.0156,316.9844 L316.0156,315.8906 C316.0156,314.1094 317.2656,312.7969 319,312.7969 C319.5781,312.7969 320.1875,312.9531 320.6563,313.2031 C321.1406,313.4844 321.3125,313.7031 321.4063,314.1094 C321.4688,314.5156 321.5,314.6406 321.6406,314.7656 C321.7813,314.9063 322.0156,315.0156 322.2344,315.0156 C322.5,315.0156 322.7656,314.875 322.9375,314.6563 C323.0469,314.5 323.0781,314.3125 323.0781,313.8906 L323.0781,312.4688 C323.0781,312.0313 323.0625,311.9063 322.9688,311.75 C322.8125,311.4844 322.5313,311.3438 322.2344,311.3438 C321.9375,311.3438 321.7344,311.4375 321.5156,311.75 L321.3438,311.6719 Z " fill="#000000"/><text fill="#000000" font-family="sans-serif" font-size="12" lengthAdjust="spacingAndGlyphs" textLength="137" x="333" y="320.1543">EntiteNotFindException</text><line style="stroke:#A80036;stroke-width:1.5;" x1="305" x2="472" y1="332" y2="332"/><line style="stroke:#A80036;stroke-width:1.5;" x1="305" x2="472" y1="340" y2="340"/><!--MD5=[b8cfd8c4119a3b0a7a46bfc5fc780f85]
class Error--><rect fill="#FEFECE" filter="url(#f1mud2nvke5wqn)" height="48" id="Error" style="stroke:#A80036;stroke-width:1.5;" width="62" x="454.5" y="58"/><ellipse cx="469.5" cy="74" fill="#ADD1B2" rx="11" ry="11" style="stroke:#A80036;stroke-width:1.0;"/><path d="M471.8438,69.6719 C470.9063,69.2344 470.3125,69.0938 469.4375,69.0938 C466.8125,69.0938 464.8125,71.1719 464.8125,73.8906 L464.8125,75.0156 C464.8125,77.5938 466.9219,79.4844 469.8125,79.4844 C471.0313,79.4844 472.1875,79.1875 472.9375,78.6406 C473.5156,78.2344 473.8438,77.7813 473.8438,77.3906 C473.8438,76.9375 473.4531,76.5469 472.9844,76.5469 C472.7656,76.5469 472.5625,76.625 472.375,76.8125 C471.9219,77.2969 471.9219,77.2969 471.7344,77.3906 C471.3125,77.6563 470.625,77.7813 469.8594,77.7813 C467.8125,77.7813 466.5156,76.6875 466.5156,74.9844 L466.5156,73.8906 C466.5156,72.1094 467.7656,70.7969 469.5,70.7969 C470.0781,70.7969 470.6875,70.9531 471.1563,71.2031 C471.6406,71.4844 471.8125,71.7031 471.9063,72.1094 C471.9688,72.5156 472,72.6406 472.1406,72.7656 C472.2813,72.9063 472.5156,73.0156 472.7344,73.0156 C473,73.0156 473.2656,72.875 473.4375,72.6563 C473.5469,72.5 473.5781,72.3125 473.5781,71.8906 L473.5781,70.4688 C473.5781,70.0313 473.5625,69.9063 473.4688,69.75 C473.3125,69.4844 473.0313,69.3438 472.7344,69.3438 C472.4375,69.3438 472.2344,69.4375 472.0156,69.75 L471.8438,69.6719 Z " fill="#000000"/><text fill="#000000" font-family="sans-serif" font-size="12" lengthAdjust="spacingAndGlyphs" textLength="30" x="483.5" y="78.1543">Error</text><line style="stroke:#A80036;stroke-width:1.5;" x1="455.5" x2="515.5" y1="90" y2="90"/><line style="stroke:#A80036;stroke-width:1.5;" x1="455.5" x2="515.5" y1="98" y2="98"/><!--MD5=[96b3989871b5279a8981fb911260d86c]
class Hostile--><rect codeLine="12" fill="#FEFECE" filter="url(#f1mud2nvke5wqn)" height="214.4609" id="Hostile" style="stroke:#A80036;stroke-width:1.5;" width="219" x="50" y="217"/><ellipse cx="134.25" cy="233" fill="#ADD1B2" rx="11" ry="11" style="stroke:#A80036;stroke-width:1.0;"/><path d="M136.5938,228.6719 C135.6563,228.2344 135.0625,228.0938 134.1875,228.0938 C131.5625,228.0938 129.5625,230.1719 129.5625,232.8906 L129.5625,234.0156 C129.5625,236.5938 131.6719,238.4844 134.5625,238.4844 C135.7813,238.4844 136.9375,238.1875 137.6875,237.6406 C138.2656,237.2344 138.5938,236.7813 138.5938,236.3906 C138.5938,235.9375 138.2031,235.5469 137.7344,235.5469 C137.5156,235.5469 137.3125,235.625 137.125,235.8125 C136.6719,236.2969 136.6719,236.2969 136.4844,236.3906 C136.0625,236.6563 135.375,236.7813 134.6094,236.7813 C132.5625,236.7813 131.2656,235.6875 131.2656,233.9844 L131.2656,232.8906 C131.2656,231.1094 132.5156,229.7969 134.25,229.7969 C134.8281,229.7969 135.4375,229.9531 135.9063,230.2031 C136.3906,230.4844 136.5625,230.7031 136.6563,231.1094 C136.7188,231.5156 136.75,231.6406 136.8906,231.7656 C137.0313,231.9063 137.2656,232.0156 137.4844,232.0156 C137.75,232.0156 138.0156,231.875 138.1875,231.6563 C138.2969,231.5 138.3281,231.3125 138.3281,230.8906 L138.3281,229.4688 C138.3281,229.0313 138.3125,228.9063 138.2188,228.75 C138.0625,228.4844 137.7813,228.3438 137.4844,228.3438 C137.1875,228.3438 136.9844,228.4375 136.7656,228.75 L136.5938,228.6719 Z " fill="#000000"/><text fill="#000000" font-family="sans-serif" font-size="12" lengthAdjust="spacingAndGlyphs" textLength="42" x="154.75" y="237.1543">Hostile</text><line style="stroke:#A80036;stroke-width:1.5;" x1="51" x2="268" y1="249" y2="249"/><ellipse cx="61" cy="260" fill="none" rx="3" ry="3" style="stroke:#038048;stroke-width:1.0;"/><text fill="#000000" font-family="sans-serif" font-size="11" lengthAdjust="spacingAndGlyphs" textLength="93" x="70" y="263.2104">critique: number</text><ellipse cx="61" cy="272.8047" fill="none" rx="3" ry="3" style="stroke:#038048;stroke-width:1.0;"/><text fill="#000000" font-family="sans-serif" font-size="11" lengthAdjust="spacingAndGlyphs" textLength="99" x="70" y="276.0151">arme: Arme | null</text><ellipse cx="61" cy="285.6094" fill="none" rx="3" ry="3" style="stroke:#038048;stroke-width:1.0;"/><text fill="#000000" font-family="sans-serif" font-size="11" lengthAdjust="spacingAndGlyphs" textLength="65" x="70" y="288.8198">sac: Objet[]</text><ellipse cx="61" cy="298.4141" fill="none" rx="3" ry="3" style="stroke:#038048;stroke-width:1.0;"/><text fill="#000000" font-family="sans-serif" font-size="11" lengthAdjust="spacingAndGlyphs" textLength="63" x="70" y="301.6245">nom: string</text><ellipse cx="61" cy="311.2188" fill="none" rx="3" ry="3" style="stroke:#038048;stroke-width:1.0;"/><text fill="#000000" font-family="sans-serif" font-size="11" lengthAdjust="spacingAndGlyphs" textLength="95" x="70" y="314.4292">totalVie: number</text><ellipse cx="61" cy="324.0234" fill="none" rx="3" ry="3" style="stroke:#038048;stroke-width:1.0;"/><text fill="#000000" font-family="sans-serif" font-size="11" lengthAdjust="spacingAndGlyphs" textLength="80" x="70" y="327.2339">force: number</text><ellipse cx="61" cy="336.8281" fill="none" rx="3" ry="3" style="stroke:#038048;stroke-width:1.0;"/><text fill="#000000" font-family="sans-serif" font-size="11" lengthAdjust="spacingAndGlyphs" textLength="75" x="70" y="340.0386">guid: number</text><ellipse cx="61" cy="349.6328" fill="none" rx="3" ry="3" style="stroke:#038048;stroke-width:1.0;"/><text fill="#000000" font-family="sans-serif" font-size="11" lengthAdjust="spacingAndGlyphs" textLength="63" x="70" y="352.8433">salle: Salle</text><line style="stroke:#A80036;stroke-width:1.5;" x1="51" x2="268" y1="359.4375" y2="359.4375"/><ellipse cx="61" cy="370.4375" fill="#84BE84" rx="3" ry="3" style="stroke:#038048;stroke-width:1.0;"/><text fill="#000000" font-family="sans-serif" font-size="11" lengthAdjust="spacingAndGlyphs" textLength="192" x="70" y="373.6479">combattre(attaque: number): void</text><ellipse cx="61" cy="383.2422" fill="#84BE84" rx="3" ry="3" style="stroke:#038048;stroke-width:1.0;"/><text fill="#000000" font-family="sans-serif" font-size="11" lengthAdjust="spacingAndGlyphs" textLength="193" x="70" y="386.4526">attaquer(attaque: number): object</text><ellipse cx="61" cy="396.0469" fill="#84BE84" rx="3" ry="3" style="stroke:#038048;stroke-width:1.0;"/><text fill="#000000" font-family="sans-serif" font-size="11" lengthAdjust="spacingAndGlyphs" textLength="145" x="70" y="399.2573">utiliser(idx: number): void</text><ellipse cx="61" cy="408.8516" fill="#84BE84" rx="3" ry="3" style="stroke:#038048;stroke-width:1.0;"/><text fill="#000000" font-family="sans-serif" font-size="11" lengthAdjust="spacingAndGlyphs" textLength="97" x="70" y="412.062">deEquiper(): void</text><ellipse cx="61" cy="421.6563" fill="#84BE84" rx="3" ry="3" style="stroke:#038048;stroke-width:1.0;"/><text fill="#000000" font-family="sans-serif" font-size="11" lengthAdjust="spacingAndGlyphs" textLength="72" x="70" y="424.8667">vue(): object</text><!--MD5=[616299f142344228d442db1d4b54b5f3]
class Objet--><rect codeLine="27" fill="#FEFECE" filter="url(#f1mud2nvke5wqn)" height="124.8281" id="Objet" style="stroke:#A80036;stroke-width:1.5;" width="185" x="1035" y="19.5"/><ellipse cx="1107.25" cy="35.5" fill="#A9DCDF" rx="11" ry="11" style="stroke:#A80036;stroke-width:1.0;"/><path d="M1109.3281,37.3125 L1109.7188,38.2969 L1109.3281,38.2969 C1108.875,38.2969 1108.7656,38.3125 1108.6094,38.4219 C1108.3594,38.5781 1108.2031,38.8594 1108.2031,39.1563 C1108.2031,39.4219 1108.3438,39.6719 1108.5625,39.8281 C1108.7031,39.9531 1108.9063,40 1109.3281,40 L1111.6875,40 C1112.0469,40 1112.2656,39.9688 1112.4063,39.875 C1112.6563,39.7344 1112.8125,39.4375 1112.8125,39.1563 C1112.8125,38.875 1112.6719,38.625 1112.4531,38.4688 C1112.2813,38.3281 1112.125,38.2969 1111.6563,38.2969 L1108.2656,30.0938 L1104.5938,30.0938 C1104.1406,30.0938 1104.0156,30.1094 1103.8594,30.2031 C1103.6094,30.375 1103.4531,30.6563 1103.4531,30.9375 C1103.4531,31.2188 1103.5938,31.4688 1103.8125,31.6406 C1103.9844,31.75 1104.1563,31.7813 1104.5938,31.7813 L1105.6719,31.7813 L1103.0313,38.2969 C1102.6094,38.2969 1102.4531,38.3125 1102.2969,38.4219 C1102.0469,38.5781 1101.8906,38.8594 1101.8906,39.1563 C1101.8906,39.7188 1102.2656,40 1103.0156,40 L1105.2813,40 C1105.6406,40 1105.8594,39.9688 1105.9844,39.875 C1106.25,39.7344 1106.3906,39.4375 1106.3906,39.1563 C1106.3906,38.875 1106.2656,38.625 1106.0469,38.4531 C1105.875,38.3281 1105.7344,38.2969 1105.2813,38.2969 L1104.8906,38.2969 L1105.2813,37.3125 L1109.3281,37.3125 Z M1108.625,35.6094 L1105.9531,35.6094 L1107.2969,32.3438 L1108.625,35.6094 Z " fill="#000000"/><text fill="#000000" font-family="sans-serif" font-size="12" font-style="italic" lengthAdjust="spacingAndGlyphs" textLength="32" x="1127.75" y="39.6543">Objet</text><line style="stroke:#A80036;stroke-width:1.5;" x1="1036" x2="1219" y1="51.5" y2="51.5"/><ellipse cx="1046" cy="62.5" fill="none" rx="3" ry="3" style="stroke:#038048;stroke-width:1.0;"/><text fill="#000000" font-family="sans-serif" font-size="11" lengthAdjust="spacingAndGlyphs" textLength="63" x="1055" y="65.7104">nom: string</text><ellipse cx="1046" cy="75.3047" fill="none" rx="3" ry="3" style="stroke:#038048;stroke-width:1.0;"/><text fill="#000000" font-family="sans-serif" font-size="11" lengthAdjust="spacingAndGlyphs" textLength="72" x="1055" y="78.5151">prix: number</text><ellipse cx="1046" cy="88.1094" fill="none" rx="3" ry="3" style="stroke:#038048;stroke-width:1.0;"/><text fill="#000000" font-family="sans-serif" font-size="11" lengthAdjust="spacingAndGlyphs" textLength="100" x="1055" y="91.3198">description: string</text><line style="stroke:#A80036;stroke-width:1.5;" x1="1036" x2="1219" y1="97.9141" y2="97.9141"/><ellipse cx="1046" cy="108.9141" fill="#84BE84" rx="3" ry="3" style="stroke:#038048;stroke-width:1.0;"/><text fill="#000000" font-family="sans-serif" font-size="11" lengthAdjust="spacingAndGlyphs" textLength="159" x="1055" y="112.1245">vendre(joueur: Joueur): void</text><ellipse cx="1046" cy="121.7188" fill="#84BE84" rx="3" ry="3" style="stroke:#038048;stroke-width:1.0;"/><text fill="#000000" font-family="sans-serif" font-size="11" font-style="italic" lengthAdjust="spacingAndGlyphs" textLength="156" x="1055" y="124.9292">utilise(hostile: Hostile): void</text><ellipse cx="1046" cy="134.5234" fill="#84BE84" rx="3" ry="3" style="stroke:#038048;stroke-width:1.0;"/><text fill="#000000" font-family="sans-serif" font-size="11" font-style="italic" lengthAdjust="spacingAndGlyphs" textLength="71" x="1055" y="137.7339">vue(): object</text><!--MD5=[0e40145dcd0b5bb8a81ea75444240c9b]
class Arme--><rect codeLine="35" fill="#FEFECE" filter="url(#f1mud2nvke5wqn)" height="150.4375" id="Arme" style="stroke:#A80036;stroke-width:1.5;" width="203" x="694" y="249"/><ellipse cx="775.25" cy="265" fill="#ADD1B2" rx="11" ry="11" style="stroke:#A80036;stroke-width:1.0;"/><path d="M777.5938,260.6719 C776.6563,260.2344 776.0625,260.0938 775.1875,260.0938 C772.5625,260.0938 770.5625,262.1719 770.5625,264.8906 L770.5625,266.0156 C770.5625,268.5938 772.6719,270.4844 775.5625,270.4844 C776.7813,270.4844 777.9375,270.1875 778.6875,269.6406 C779.2656,269.2344 779.5938,268.7813 779.5938,268.3906 C779.5938,267.9375 779.2031,267.5469 778.7344,267.5469 C778.5156,267.5469 778.3125,267.625 778.125,267.8125 C777.6719,268.2969 777.6719,268.2969 777.4844,268.3906 C777.0625,268.6563 776.375,268.7813 775.6094,268.7813 C773.5625,268.7813 772.2656,267.6875 772.2656,265.9844 L772.2656,264.8906 C772.2656,263.1094 773.5156,261.7969 775.25,261.7969 C775.8281,261.7969 776.4375,261.9531 776.9063,262.2031 C777.3906,262.4844 777.5625,262.7031 777.6563,263.1094 C777.7188,263.5156 777.75,263.6406 777.8906,263.7656 C778.0313,263.9063 778.2656,264.0156 778.4844,264.0156 C778.75,264.0156 779.0156,263.875 779.1875,263.6563 C779.2969,263.5 779.3281,263.3125 779.3281,262.8906 L779.3281,261.4688 C779.3281,261.0313 779.3125,260.9063 779.2188,260.75 C779.0625,260.4844 778.7813,260.3438 778.4844,260.3438 C778.1875,260.3438 777.9844,260.4375 777.7656,260.75 L777.5938,260.6719 Z " fill="#000000"/><text fill="#000000" font-family="sans-serif" font-size="12" lengthAdjust="spacingAndGlyphs" textLength="32" x="795.75" y="269.1543">Arme</text><line style="stroke:#A80036;stroke-width:1.5;" x1="695" x2="896" y1="281" y2="281"/><ellipse cx="705" cy="292" fill="none" rx="3" ry="3" style="stroke:#038048;stroke-width:1.0;"/><text fill="#000000" font-family="sans-serif" font-size="11" lengthAdjust="spacingAndGlyphs" textLength="63" x="714" y="295.2104">nom: string</text><ellipse cx="705" cy="304.8047" fill="none" rx="3" ry="3" style="stroke:#038048;stroke-width:1.0;"/><text fill="#000000" font-family="sans-serif" font-size="11" lengthAdjust="spacingAndGlyphs" textLength="72" x="714" y="308.0151">prix: number</text><ellipse cx="705" cy="317.6094" fill="none" rx="3" ry="3" style="stroke:#038048;stroke-width:1.0;"/><text fill="#000000" font-family="sans-serif" font-size="11" lengthAdjust="spacingAndGlyphs" textLength="84" x="714" y="320.8198">degat: number</text><ellipse cx="705" cy="330.4141" fill="none" rx="3" ry="3" style="stroke:#038048;stroke-width:1.0;"/><text fill="#000000" font-family="sans-serif" font-size="11" lengthAdjust="spacingAndGlyphs" textLength="100" x="714" y="333.6245">description: string</text><line style="stroke:#A80036;stroke-width:1.5;" x1="695" x2="896" y1="340.2188" y2="340.2188"/><ellipse cx="705" cy="351.2188" fill="#84BE84" rx="3" ry="3" style="stroke:#038048;stroke-width:1.0;"/><text fill="#000000" font-family="sans-serif" font-size="11" lengthAdjust="spacingAndGlyphs" textLength="157" x="714" y="354.4292">utilise(hostile: Hostile): void</text><ellipse cx="705" cy="364.0234" fill="#84BE84" rx="3" ry="3" style="stroke:#038048;stroke-width:1.0;"/><text fill="#000000" font-family="sans-serif" font-size="11" lengthAdjust="spacingAndGlyphs" textLength="163" x="714" y="367.2339">equipe(hostile: Hostile): void</text><ellipse cx="705" cy="376.8281" fill="#84BE84" rx="3" ry="3" style="stroke:#038048;stroke-width:1.0;"/><text fill="#000000" font-family="sans-serif" font-size="11" lengthAdjust="spacingAndGlyphs" textLength="177" x="714" y="380.0386">deEquipe(hostile: Hostile): void</text><ellipse cx="705" cy="389.6328" fill="#84BE84" rx="3" ry="3" style="stroke:#038048;stroke-width:1.0;"/><text fill="#000000" font-family="sans-serif" font-size="11" lengthAdjust="spacingAndGlyphs" textLength="72" x="714" y="392.8433">vue(): object</text><!--MD5=[b17f251f85577685872bad37a8eaec44]
class PotionDeForce--><rect codeLine="45" fill="#FEFECE" filter="url(#f1mud2nvke5wqn)" height="124.8281" id="PotionDeForce" style="stroke:#A80036;stroke-width:1.5;" width="178" x="932.5" y="261.5"/><ellipse cx="973.6" cy="277.5" fill="#ADD1B2" rx="11" ry="11" style="stroke:#A80036;stroke-width:1.0;"/><path d="M975.9438,273.1719 C975.0063,272.7344 974.4125,272.5938 973.5375,272.5938 C970.9125,272.5938 968.9125,274.6719 968.9125,277.3906 L968.9125,278.5156 C968.9125,281.0938 971.0219,282.9844 973.9125,282.9844 C975.1313,282.9844 976.2875,282.6875 977.0375,282.1406 C977.6156,281.7344 977.9438,281.2813 977.9438,280.8906 C977.9438,280.4375 977.5531,280.0469 977.0844,280.0469 C976.8656,280.0469 976.6625,280.125 976.475,280.3125 C976.0219,280.7969 976.0219,280.7969 975.8344,280.8906 C975.4125,281.1563 974.725,281.2813 973.9594,281.2813 C971.9125,281.2813 970.6156,280.1875 970.6156,278.4844 L970.6156,277.3906 C970.6156,275.6094 971.8656,274.2969 973.6,274.2969 C974.1781,274.2969 974.7875,274.4531 975.2563,274.7031 C975.7406,274.9844 975.9125,275.2031 976.0063,275.6094 C976.0688,276.0156 976.1,276.1406 976.2406,276.2656 C976.3813,276.4063 976.6156,276.5156 976.8344,276.5156 C977.1,276.5156 977.3656,276.375 977.5375,276.1563 C977.6469,276 977.6781,275.8125 977.6781,275.3906 L977.6781,273.9688 C977.6781,273.5313 977.6625,273.4063 977.5688,273.25 C977.4125,272.9844 977.1313,272.8438 976.8344,272.8438 C976.5375,272.8438 976.3344,272.9375 976.1156,273.25 L975.9438,273.1719 Z " fill="#000000"/><text fill="#000000" font-family="sans-serif" font-size="12" lengthAdjust="spacingAndGlyphs" textLength="88" x="993.4" y="281.6543">PotionDeForce</text><line style="stroke:#A80036;stroke-width:1.5;" x1="933.5" x2="1109.5" y1="293.5" y2="293.5"/><ellipse cx="943.5" cy="304.5" fill="none" rx="3" ry="3" style="stroke:#038048;stroke-width:1.0;"/><text fill="#000000" font-family="sans-serif" font-size="11" lengthAdjust="spacingAndGlyphs" textLength="63" x="952.5" y="307.7104">nom: string</text><ellipse cx="943.5" cy="317.3047" fill="none" rx="3" ry="3" style="stroke:#038048;stroke-width:1.0;"/><text fill="#000000" font-family="sans-serif" font-size="11" lengthAdjust="spacingAndGlyphs" textLength="72" x="952.5" y="320.5151">prix: number</text><ellipse cx="943.5" cy="330.1094" fill="none" rx="3" ry="3" style="stroke:#038048;stroke-width:1.0;"/><text fill="#000000" font-family="sans-serif" font-size="11" lengthAdjust="spacingAndGlyphs" textLength="85" x="952.5" y="333.3198">effect: number</text><ellipse cx="943.5" cy="342.9141" fill="none" rx="3" ry="3" style="stroke:#038048;stroke-width:1.0;"/><text fill="#000000" font-family="sans-serif" font-size="11" lengthAdjust="spacingAndGlyphs" textLength="100" x="952.5" y="346.1245">description: string</text><line style="stroke:#A80036;stroke-width:1.5;" x1="933.5" x2="1109.5" y1="352.7188" y2="352.7188"/><ellipse cx="943.5" cy="363.7188" fill="#84BE84" rx="3" ry="3" style="stroke:#038048;stroke-width:1.0;"/><text fill="#000000" font-family="sans-serif" font-size="11" lengthAdjust="spacingAndGlyphs" textLength="152" x="952.5" y="366.9292">utilise(joueur: Joueur): void</text><ellipse cx="943.5" cy="376.5234" fill="#84BE84" rx="3" ry="3" style="stroke:#038048;stroke-width:1.0;"/><text fill="#000000" font-family="sans-serif" font-size="11" lengthAdjust="spacingAndGlyphs" textLength="72" x="952.5" y="379.7339">vue(): object</text><!--MD5=[e22129eb8960ccad542846e0143c8748]
class PotionDeVie--><rect codeLine="53" fill="#FEFECE" filter="url(#f1mud2nvke5wqn)" height="124.8281" id="PotionDeVie" style="stroke:#A80036;stroke-width:1.5;" width="178" x="1145.5" y="261.5"/><ellipse cx="1194.25" cy="277.5" fill="#ADD1B2" rx="11" ry="11" style="stroke:#A80036;stroke-width:1.0;"/><path d="M1196.5938,273.1719 C1195.6563,272.7344 1195.0625,272.5938 1194.1875,272.5938 C1191.5625,272.5938 1189.5625,274.6719 1189.5625,277.3906 L1189.5625,278.5156 C1189.5625,281.0938 1191.6719,282.9844 1194.5625,282.9844 C1195.7813,282.9844 1196.9375,282.6875 1197.6875,282.1406 C1198.2656,281.7344 1198.5938,281.2813 1198.5938,280.8906 C1198.5938,280.4375 1198.2031,280.0469 1197.7344,280.0469 C1197.5156,280.0469 1197.3125,280.125 1197.125,280.3125 C1196.6719,280.7969 1196.6719,280.7969 1196.4844,280.8906 C1196.0625,281.1563 1195.375,281.2813 1194.6094,281.2813 C1192.5625,281.2813 1191.2656,280.1875 1191.2656,278.4844 L1191.2656,277.3906 C1191.2656,275.6094 1192.5156,274.2969 1194.25,274.2969 C1194.8281,274.2969 1195.4375,274.4531 1195.9063,274.7031 C1196.3906,274.9844 1196.5625,275.2031 1196.6563,275.6094 C1196.7188,276.0156 1196.75,276.1406 1196.8906,276.2656 C1197.0313,276.4063 1197.2656,276.5156 1197.4844,276.5156 C1197.75,276.5156 1198.0156,276.375 1198.1875,276.1563 C1198.2969,276 1198.3281,275.8125 1198.3281,275.3906 L1198.3281,273.9688 C1198.3281,273.5313 1198.3125,273.4063 1198.2188,273.25 C1198.0625,272.9844 1197.7813,272.8438 1197.4844,272.8438 C1197.1875,272.8438 1196.9844,272.9375 1196.7656,273.25 L1196.5938,273.1719 Z " fill="#000000"/><text fill="#000000" font-family="sans-serif" font-size="12" lengthAdjust="spacingAndGlyphs" textLength="72" x="1214.75" y="281.6543">PotionDeVie</text><line style="stroke:#A80036;stroke-width:1.5;" x1="1146.5" x2="1322.5" y1="293.5" y2="293.5"/><ellipse cx="1156.5" cy="304.5" fill="none" rx="3" ry="3" style="stroke:#038048;stroke-width:1.0;"/><text fill="#000000" font-family="sans-serif" font-size="11" lengthAdjust="spacingAndGlyphs" textLength="63" x="1165.5" y="307.7104">nom: string</text><ellipse cx="1156.5" cy="317.3047" fill="none" rx="3" ry="3" style="stroke:#038048;stroke-width:1.0;"/><text fill="#000000" font-family="sans-serif" font-size="11" lengthAdjust="spacingAndGlyphs" textLength="72" x="1165.5" y="320.5151">prix: number</text><ellipse cx="1156.5" cy="330.1094" fill="none" rx="3" ry="3" style="stroke:#038048;stroke-width:1.0;"/><text fill="#000000" font-family="sans-serif" font-size="11" lengthAdjust="spacingAndGlyphs" textLength="85" x="1165.5" y="333.3198">effect: number</text><ellipse cx="1156.5" cy="342.9141" fill="none" rx="3" ry="3" style="stroke:#038048;stroke-width:1.0;"/><text fill="#000000" font-family="sans-serif" font-size="11" lengthAdjust="spacingAndGlyphs" textLength="100" x="1165.5" y="346.1245">description: string</text><line style="stroke:#A80036;stroke-width:1.5;" x1="1146.5" x2="1322.5" y1="352.7188" y2="352.7188"/><ellipse cx="1156.5" cy="363.7188" fill="#84BE84" rx="3" ry="3" style="stroke:#038048;stroke-width:1.0;"/><text fill="#000000" font-family="sans-serif" font-size="11" lengthAdjust="spacingAndGlyphs" textLength="152" x="1165.5" y="366.9292">utilise(joueur: Joueur): void</text><ellipse cx="1156.5" cy="376.5234" fill="#84BE84" rx="3" ry="3" style="stroke:#038048;stroke-width:1.0;"/><text fill="#000000" font-family="sans-serif" font-size="11" lengthAdjust="spacingAndGlyphs" textLength="72" x="1165.5" y="379.7339">vue(): object</text><!--MD5=[7d41168c07fdef390b78e3f41920d4aa]
class PotionCritique--><rect codeLine="61" fill="#FEFECE" filter="url(#f1mud2nvke5wqn)" height="124.8281" id="PotionCritique" style="stroke:#A80036;stroke-width:1.5;" width="178" x="1358.5" y="261.5"/><ellipse cx="1402.3" cy="277.5" fill="#ADD1B2" rx="11" ry="11" style="stroke:#A80036;stroke-width:1.0;"/><path d="M1404.6438,273.1719 C1403.7063,272.7344 1403.1125,272.5938 1402.2375,272.5938 C1399.6125,272.5938 1397.6125,274.6719 1397.6125,277.3906 L1397.6125,278.5156 C1397.6125,281.0938 1399.7219,282.9844 1402.6125,282.9844 C1403.8313,282.9844 1404.9875,282.6875 1405.7375,282.1406 C1406.3156,281.7344 1406.6438,281.2813 1406.6438,280.8906 C1406.6438,280.4375 1406.2531,280.0469 1405.7844,280.0469 C1405.5656,280.0469 1405.3625,280.125 1405.175,280.3125 C1404.7219,280.7969 1404.7219,280.7969 1404.5344,280.8906 C1404.1125,281.1563 1403.425,281.2813 1402.6594,281.2813 C1400.6125,281.2813 1399.3156,280.1875 1399.3156,278.4844 L1399.3156,277.3906 C1399.3156,275.6094 1400.5656,274.2969 1402.3,274.2969 C1402.8781,274.2969 1403.4875,274.4531 1403.9563,274.7031 C1404.4406,274.9844 1404.6125,275.2031 1404.7063,275.6094 C1404.7688,276.0156 1404.8,276.1406 1404.9406,276.2656 C1405.0813,276.4063 1405.3156,276.5156 1405.5344,276.5156 C1405.8,276.5156 1406.0656,276.375 1406.2375,276.1563 C1406.3469,276 1406.3781,275.8125 1406.3781,275.3906 L1406.3781,273.9688 C1406.3781,273.5313 1406.3625,273.4063 1406.2688,273.25 C1406.1125,272.9844 1405.8313,272.8438 1405.5344,272.8438 C1405.2375,272.8438 1405.0344,272.9375 1404.8156,273.25 L1404.6438,273.1719 Z " fill="#000000"/><text fill="#000000" font-family="sans-serif" font-size="12" lengthAdjust="spacingAndGlyphs" textLength="82" x="1422.7" y="281.6543">PotionCritique</text><line style="stroke:#A80036;stroke-width:1.5;" x1="1359.5" x2="1535.5" y1="293.5" y2="293.5"/><ellipse cx="1369.5" cy="304.5" fill="none" rx="3" ry="3" style="stroke:#038048;stroke-width:1.0;"/><text fill="#000000" font-family="sans-serif" font-size="11" lengthAdjust="spacingAndGlyphs" textLength="63" x="1378.5" y="307.7104">nom: string</text><ellipse cx="1369.5" cy="317.3047" fill="none" rx="3" ry="3" style="stroke:#038048;stroke-width:1.0;"/><text fill="#000000" font-family="sans-serif" font-size="11" lengthAdjust="spacingAndGlyphs" textLength="72" x="1378.5" y="320.5151">prix: number</text><ellipse cx="1369.5" cy="330.1094" fill="none" rx="3" ry="3" style="stroke:#038048;stroke-width:1.0;"/><text fill="#000000" font-family="sans-serif" font-size="11" lengthAdjust="spacingAndGlyphs" textLength="85" x="1378.5" y="333.3198">effect: number</text><ellipse cx="1369.5" cy="342.9141" fill="none" rx="3" ry="3" style="stroke:#038048;stroke-width:1.0;"/><text fill="#000000" font-family="sans-serif" font-size="11" lengthAdjust="spacingAndGlyphs" textLength="100" x="1378.5" y="346.1245">description: string</text><line style="stroke:#A80036;stroke-width:1.5;" x1="1359.5" x2="1535.5" y1="352.7188" y2="352.7188"/><ellipse cx="1369.5" cy="363.7188" fill="#84BE84" rx="3" ry="3" style="stroke:#038048;stroke-width:1.0;"/><text fill="#000000" font-family="sans-serif" font-size="11" lengthAdjust="spacingAndGlyphs" textLength="152" x="1378.5" y="366.9292">utilise(joueur: Joueur): void</text><ellipse cx="1369.5" cy="376.5234" fill="#84BE84" rx="3" ry="3" style="stroke:#038048;stroke-width:1.0;"/><text fill="#000000" font-family="sans-serif" font-size="11" lengthAdjust="spacingAndGlyphs" textLength="72" x="1378.5" y="379.7339">vue(): object</text><!--MD5=[9c44bef4398b9b819e757c850646d09b]
class Salle--><rect codeLine="69" fill="#FEFECE" filter="url(#f1mud2nvke5wqn)" height="150.4375" id="Salle" style="stroke:#A80036;stroke-width:1.5;" width="197" x="1255" y="7"/><ellipse cx="1334.75" cy="23" fill="#ADD1B2" rx="11" ry="11" style="stroke:#A80036;stroke-width:1.0;"/><path d="M1337.0938,18.6719 C1336.1563,18.2344 1335.5625,18.0938 1334.6875,18.0938 C1332.0625,18.0938 1330.0625,20.1719 1330.0625,22.8906 L1330.0625,24.0156 C1330.0625,26.5938 1332.1719,28.4844 1335.0625,28.4844 C1336.2813,28.4844 1337.4375,28.1875 1338.1875,27.6406 C1338.7656,27.2344 1339.0938,26.7813 1339.0938,26.3906 C1339.0938,25.9375 1338.7031,25.5469 1338.2344,25.5469 C1338.0156,25.5469 1337.8125,25.625 1337.625,25.8125 C1337.1719,26.2969 1337.1719,26.2969 1336.9844,26.3906 C1336.5625,26.6563 1335.875,26.7813 1335.1094,26.7813 C1333.0625,26.7813 1331.7656,25.6875 1331.7656,23.9844 L1331.7656,22.8906 C1331.7656,21.1094 1333.0156,19.7969 1334.75,19.7969 C1335.3281,19.7969 1335.9375,19.9531 1336.4063,20.2031 C1336.8906,20.4844 1337.0625,20.7031 1337.1563,21.1094 C1337.2188,21.5156 1337.25,21.6406 1337.3906,21.7656 C1337.5313,21.9063 1337.7656,22.0156 1337.9844,22.0156 C1338.25,22.0156 1338.5156,21.875 1338.6875,21.6563 C1338.7969,21.5 1338.8281,21.3125 1338.8281,20.8906 L1338.8281,19.4688 C1338.8281,19.0313 1338.8125,18.9063 1338.7188,18.75 C1338.5625,18.4844 1338.2813,18.3438 1337.9844,18.3438 C1337.6875,18.3438 1337.4844,18.4375 1337.2656,18.75 L1337.0938,18.6719 Z " fill="#000000"/><text fill="#000000" font-family="sans-serif" font-size="12" lengthAdjust="spacingAndGlyphs" textLength="29" x="1355.25" y="27.1543">Salle</text><line style="stroke:#A80036;stroke-width:1.5;" x1="1256" x2="1451" y1="39" y2="39"/><ellipse cx="1266" cy="50" fill="none" rx="3" ry="3" style="stroke:#038048;stroke-width:1.0;"/><text fill="#000000" font-family="sans-serif" font-size="11" lengthAdjust="spacingAndGlyphs" textLength="99" x="1275" y="53.2104">entites: number[]</text><ellipse cx="1266" cy="62.8047" fill="none" rx="3" ry="3" style="stroke:#038048;stroke-width:1.0;"/><text fill="#000000" font-family="sans-serif" font-size="11" lengthAdjust="spacingAndGlyphs" textLength="81" x="1275" y="66.0151">objets: Objet[]</text><ellipse cx="1266" cy="75.6094" fill="none" rx="3" ry="3" style="stroke:#038048;stroke-width:1.0;"/><text fill="#000000" font-family="sans-serif" font-size="11" lengthAdjust="spacingAndGlyphs" textLength="92" x="1275" y="78.8198">nomSalle: string</text><ellipse cx="1266" cy="88.4141" fill="none" rx="3" ry="3" style="stroke:#038048;stroke-width:1.0;"/><text fill="#000000" font-family="sans-serif" font-size="11" lengthAdjust="spacingAndGlyphs" textLength="171" x="1275" y="91.6245">passages: Map&lt;String, Salle&gt;</text><ellipse cx="1266" cy="101.2188" fill="none" rx="3" ry="3" style="stroke:#038048;stroke-width:1.0;"/><text fill="#000000" font-family="sans-serif" font-size="11" lengthAdjust="spacingAndGlyphs" textLength="100" x="1275" y="104.4292">description: string</text><ellipse cx="1266" cy="114.0234" fill="none" rx="3" ry="3" style="stroke:#038048;stroke-width:1.0;"/><text fill="#000000" font-family="sans-serif" font-size="11" lengthAdjust="spacingAndGlyphs" text-decoration="underline" textLength="82" x="1275" y="117.2339">donjon: Salle[]</text><line style="stroke:#A80036;stroke-width:1.5;" x1="1256" x2="1451" y1="123.8281" y2="123.8281"/><ellipse cx="1266" cy="134.8281" fill="#84BE84" rx="3" ry="3" style="stroke:#038048;stroke-width:1.0;"/><text fill="#000000" font-family="sans-serif" font-size="11" lengthAdjust="spacingAndGlyphs" textLength="72" x="1275" y="138.0386">vue(): object</text><ellipse cx="1266" cy="147.6328" fill="#84BE84" rx="3" ry="3" style="stroke:#038048;stroke-width:1.0;"/><text fill="#000000" font-family="sans-serif" font-size="11" lengthAdjust="spacingAndGlyphs" text-decoration="underline" textLength="132" x="1275" y="150.8433">inisialiserDonjon(): void</text><!--MD5=[afd6f96bfbd2a9a5b2a3668450eef53c]
class JSONFieldException--><rect codeLine="79" fill="#FEFECE" filter="url(#f1mud2nvke5wqn)" height="48" id="JSONFieldException" style="stroke:#A80036;stroke-width:1.5;" width="150" x="508.5" y="300"/><ellipse cx="523.5" cy="316" fill="#ADD1B2" rx="11" ry="11" style="stroke:#A80036;stroke-width:1.0;"/><path d="M525.8438,311.6719 C524.9063,311.2344 524.3125,311.0938 523.4375,311.0938 C520.8125,311.0938 518.8125,313.1719 518.8125,315.8906 L518.8125,317.0156 C518.8125,319.5938 520.9219,321.4844 523.8125,321.4844 C525.0313,321.4844 526.1875,321.1875 526.9375,320.6406 C527.5156,320.2344 527.8438,319.7813 527.8438,319.3906 C527.8438,318.9375 527.4531,318.5469 526.9844,318.5469 C526.7656,318.5469 526.5625,318.625 526.375,318.8125 C525.9219,319.2969 525.9219,319.2969 525.7344,319.3906 C525.3125,319.6563 524.625,319.7813 523.8594,319.7813 C521.8125,319.7813 520.5156,318.6875 520.5156,316.9844 L520.5156,315.8906 C520.5156,314.1094 521.7656,312.7969 523.5,312.7969 C524.0781,312.7969 524.6875,312.9531 525.1563,313.2031 C525.6406,313.4844 525.8125,313.7031 525.9063,314.1094 C525.9688,314.5156 526,314.6406 526.1406,314.7656 C526.2813,314.9063 526.5156,315.0156 526.7344,315.0156 C527,315.0156 527.2656,314.875 527.4375,314.6563 C527.5469,314.5 527.5781,314.3125 527.5781,313.8906 L527.5781,312.4688 C527.5781,312.0313 527.5625,311.9063 527.4688,311.75 C527.3125,311.4844 527.0313,311.3438 526.7344,311.3438 C526.4375,311.3438 526.2344,311.4375 526.0156,311.75 L525.8438,311.6719 Z " fill="#000000"/><text fill="#000000" font-family="sans-serif" font-size="12" lengthAdjust="spacingAndGlyphs" textLength="118" x="537.5" y="320.1543">JSONFieldException</text><line style="stroke:#A80036;stroke-width:1.5;" x1="509.5" x2="657.5" y1="332" y2="332"/><line style="stroke:#A80036;stroke-width:1.5;" x1="509.5" x2="657.5" y1="340" y2="340"/><!--MD5=[f35b8d93951ba498799a84be5600c0ca]
class Joueur--><rect codeLine="80" fill="#FEFECE" filter="url(#f1mud2nvke5wqn)" height="176.0469" id="Joueur" style="stroke:#A80036;stroke-width:1.5;" width="228" x="45.5" y="491"/><ellipse cx="135.75" cy="507" fill="#ADD1B2" rx="11" ry="11" style="stroke:#A80036;stroke-width:1.0;"/><path d="M138.0938,502.6719 C137.1563,502.2344 136.5625,502.0938 135.6875,502.0938 C133.0625,502.0938 131.0625,504.1719 131.0625,506.8906 L131.0625,508.0156 C131.0625,510.5938 133.1719,512.4844 136.0625,512.4844 C137.2813,512.4844 138.4375,512.1875 139.1875,511.6406 C139.7656,511.2344 140.0938,510.7813 140.0938,510.3906 C140.0938,509.9375 139.7031,509.5469 139.2344,509.5469 C139.0156,509.5469 138.8125,509.625 138.625,509.8125 C138.1719,510.2969 138.1719,510.2969 137.9844,510.3906 C137.5625,510.6563 136.875,510.7813 136.1094,510.7813 C134.0625,510.7813 132.7656,509.6875 132.7656,507.9844 L132.7656,506.8906 C132.7656,505.1094 134.0156,503.7969 135.75,503.7969 C136.3281,503.7969 136.9375,503.9531 137.4063,504.2031 C137.8906,504.4844 138.0625,504.7031 138.1563,505.1094 C138.2188,505.5156 138.25,505.6406 138.3906,505.7656 C138.5313,505.9063 138.7656,506.0156 138.9844,506.0156 C139.25,506.0156 139.5156,505.875 139.6875,505.6563 C139.7969,505.5 139.8281,505.3125 139.8281,504.8906 L139.8281,503.4688 C139.8281,503.0313 139.8125,502.9063 139.7188,502.75 C139.5625,502.4844 139.2813,502.3438 138.9844,502.3438 C138.6875,502.3438 138.4844,502.4375 138.2656,502.75 L138.0938,502.6719 Z " fill="#000000"/><text fill="#000000" font-family="sans-serif" font-size="12" lengthAdjust="spacingAndGlyphs" textLength="39" x="156.25" y="511.1543">Joueur</text><line style="stroke:#A80036;stroke-width:1.5;" x1="46.5" x2="272.5" y1="523" y2="523"/><ellipse cx="56.5" cy="534" fill="none" rx="3" ry="3" style="stroke:#038048;stroke-width:1.0;"/><text fill="#000000" font-family="sans-serif" font-size="11" lengthAdjust="spacingAndGlyphs" textLength="62" x="65.5" y="537.2104">or: number</text><ellipse cx="56.5" cy="546.8047" fill="none" rx="3" ry="3" style="stroke:#038048;stroke-width:1.0;"/><text fill="#000000" font-family="sans-serif" font-size="11" lengthAdjust="spacingAndGlyphs" textLength="63" x="65.5" y="550.0151">nom: string</text><ellipse cx="56.5" cy="559.6094" fill="none" rx="3" ry="3" style="stroke:#038048;stroke-width:1.0;"/><text fill="#000000" font-family="sans-serif" font-size="11" lengthAdjust="spacingAndGlyphs" textLength="95" x="65.5" y="562.8198">totalVie: number</text><ellipse cx="56.5" cy="572.4141" fill="none" rx="3" ry="3" style="stroke:#038048;stroke-width:1.0;"/><text fill="#000000" font-family="sans-serif" font-size="11" lengthAdjust="spacingAndGlyphs" textLength="75" x="65.5" y="575.6245">guid: number</text><ellipse cx="56.5" cy="585.2188" fill="none" rx="3" ry="3" style="stroke:#038048;stroke-width:1.0;"/><text fill="#000000" font-family="sans-serif" font-size="11" lengthAdjust="spacingAndGlyphs" textLength="63" x="65.5" y="588.4292">salle: Salle</text><line style="stroke:#A80036;stroke-width:1.5;" x1="46.5" x2="272.5" y1="595.0234" y2="595.0234"/><ellipse cx="56.5" cy="606.0234" fill="#84BE84" rx="3" ry="3" style="stroke:#038048;stroke-width:1.0;"/><text fill="#000000" font-family="sans-serif" font-size="11" lengthAdjust="spacingAndGlyphs" textLength="176" x="65.5" y="609.2339">deplacer(direction: string): void</text><ellipse cx="56.5" cy="618.8281" fill="#84BE84" rx="3" ry="3" style="stroke:#038048;stroke-width:1.0;"/><text fill="#000000" font-family="sans-serif" font-size="11" lengthAdjust="spacingAndGlyphs" textLength="202" x="65.5" y="622.0386">observerEntite(idx: number): object</text><ellipse cx="56.5" cy="631.6328" fill="#84BE84" rx="3" ry="3" style="stroke:#038048;stroke-width:1.0;"/><text fill="#000000" font-family="sans-serif" font-size="11" lengthAdjust="spacingAndGlyphs" textLength="200" x="65.5" y="634.8433">observerObjet(idx: number): object</text><ellipse cx="56.5" cy="644.4375" fill="#84BE84" rx="3" ry="3" style="stroke:#038048;stroke-width:1.0;"/><text fill="#000000" font-family="sans-serif" font-size="11" lengthAdjust="spacingAndGlyphs" textLength="152" x="65.5" y="647.6479">prendre(idx: number): void</text><ellipse cx="56.5" cy="657.2422" fill="#84BE84" rx="3" ry="3" style="stroke:#038048;stroke-width:1.0;"/><text fill="#000000" font-family="sans-serif" font-size="11" lengthAdjust="spacingAndGlyphs" textLength="72" x="65.5" y="660.4526">vue(): object</text><!--MD5=[426841cd6c634ed12310777f2119617b]
reverse link Error to EntiteNotFindException--><path d="M468.699,124.57 C448.209,175.267 414.287,259.197 397.915,299.705 " fill="none" id="Error-backto-EntiteNotFindException" style="stroke:#A80036;stroke-width:1.0;"/><polygon fill="none" points="462.215,121.932,476.199,106.012,475.195,127.178,462.215,121.932" style="stroke:#A80036;stroke-width:1.0;"/><!--MD5=[4d011e42b55bf2ca5937cf5b94f8be46]
reverse link Entite to Hostile--><path d="M159.5,177.743 C159.5,190.596 159.5,203.854 159.5,216.89 " fill="none" id="Entite-backto-Hostile" style="stroke:#A80036;stroke-width:1.0;"/><polygon fill="none" points="152.5,177.294,159.5,157.294,166.5,177.294,152.5,177.294" style="stroke:#A80036;stroke-width:1.0;"/><!--MD5=[83d9534316df663dbcf195bada95aad6]
reverse link Objet to Arme--><path d="M1017.48,147.37 C983.655,168.431 946.84,192.689 914.5,217 C901.452,226.809 888.097,237.727 875.271,248.721 " fill="none" id="Objet-backto-Arme" style="stroke:#A80036;stroke-width:1.0;"/><polygon fill="none" points="1014.15,141.197,1034.85,136.664,1021.5,153.116,1014.15,141.197" style="stroke:#A80036;stroke-width:1.0;"/><!--MD5=[fb44a1aee253e7e95c0a947ba0ff3a1f]
reverse link Objet to PotionDeForce--><path d="M1091.92,163.549 C1077.82,195.486 1061.86,231.619 1048.71,261.403 " fill="none" id="Objet-backto-PotionDeForce" style="stroke:#A80036;stroke-width:1.0;"/><polygon fill="none" points="1085.72,160.273,1100.2,144.806,1098.53,165.929,1085.72,160.273" style="stroke:#A80036;stroke-width:1.0;"/><!--MD5=[4c01ea8bae8b732b167dacdb8498e38d]
reverse link Objet to PotionDeVie--><path d="M1163.21,163.099 C1177.5,195.147 1193.7,231.479 1207.04,261.403 " fill="none" id="Objet-backto-PotionDeVie" style="stroke:#A80036;stroke-width:1.0;"/><polygon fill="none" points="1156.81,165.923,1155.06,144.806,1169.59,160.222,1156.81,165.923" style="stroke:#A80036;stroke-width:1.0;"/><!--MD5=[0d83b541d114e10f8cd55577859b6bfe]
reverse link Objet to PotionCritique--><path d="M1235.11,155.507 C1235.91,156.007 1236.71,156.505 1237.5,157 C1282.78,185.243 1299.16,184.521 1341.5,217 C1358.74,230.226 1376.01,246.102 1391.46,261.491 " fill="none" id="Objet-backto-PotionCritique" style="stroke:#A80036;stroke-width:1.0;"/><polygon fill="none" points="1231.22,161.326,1218.12,144.672,1238.75,149.522,1231.22,161.326" style="stroke:#A80036;stroke-width:1.0;"/><!--MD5=[1adc217826e6dd4b0eeefe1cbc3ad3e6]
reverse link Error to JSONFieldException--><path d="M502.474,124.57 C523.176,175.267 557.447,259.197 573.988,299.705 " fill="none" id="Error-backto-JSONFieldException" style="stroke:#A80036;stroke-width:1.0;"/><polygon fill="none" points="495.977,127.174,494.897,106.012,508.938,121.882,495.977,127.174" style="stroke:#A80036;stroke-width:1.0;"/><!--MD5=[3e6b7e182ab965f7f75a3689cf52102a]
reverse link Hostile to Joueur--><path d="M159.5,451.384 C159.5,464.739 159.5,478.095 159.5,490.858 " fill="none" id="Hostile-backto-Joueur" style="stroke:#A80036;stroke-width:1.0;"/><polygon fill="none" points="152.5,451.195,159.5,431.195,166.5,451.195,152.5,451.195" style="stroke:#A80036;stroke-width:1.0;"/><!--MD5=[ff644f093d12a9c3239ec06d10ff85c0]
@startuml
abstract class Entite {
    +nom: string
    +totalVie: number
    +guid: number
    +salle: Salle
    +remove(entites: number[], id: number): number[]
    +{abstract} vue(): object
    +{static} entites: Entite[]
    +{static} ajouterEntite(entite: Entite): void
}
class EntiteNotFindException extends Error
class Hostile extends Entite {
    +critique: number
    +arme: Arme | null
    +sac: Objet[]
    +nom: string
    +totalVie: number
    +force: number
    +guid: number
    +salle: Salle
    +combattre(attaque: number): void
    +attaquer(attaque: number): object
    +utiliser(idx: number): void
    +deEquiper(): void
    +vue(): object
}
abstract class Objet {
    +nom: string
    +prix: number
    +description: string
    +vendre(joueur: Joueur): void
    +{abstract} utilise(hostile: Hostile): void
    +{abstract} vue(): object
}
class Arme extends Objet {
    +nom: string
    +prix: number
    +degat: number
    +description: string
    +utilise(hostile: Hostile): void
    +equipe(hostile: Hostile): void
    +deEquipe(hostile: Hostile): void
    +vue(): object
}
class PotionDeForce extends Objet {
    +nom: string
    +prix: number
    +effect: number
    +description: string
    +utilise(joueur: Joueur): void
    +vue(): object
}
class PotionDeVie extends Objet {
    +nom: string
    +prix: number
    +effect: number
    +description: string
    +utilise(joueur: Joueur): void
    +vue(): object
}
class PotionCritique extends Objet {
    +nom: string
    +prix: number
    +effect: number
    +description: string
    +utilise(joueur: Joueur): void
    +vue(): object
}
class Salle {
    +entites: number[]
    +objets: Objet[]
    +nomSalle: string
    +passages: Map<String, Salle>
    +description: string
    +vue(): object
    +{static} donjon: Salle[]
    +{static} inisialiserDonjon(): void
}
class JSONFieldException extends Error
class Joueur extends Hostile {
    +or: number
    +nom: string
    +totalVie: number
    +guid: number
    +salle: Salle
    +deplacer(direction: string): void
    +observerEntite(idx: number): object
    +observerObjet(idx: number): object
    +prendre(idx: number): void
    +vue(): object
}
@enduml

PlantUML version 1.2020.27beta1(Unknown compile time)
(GPL source distribution)
Java Runtime: Java(TM) SE Runtime Environment
JVM: Java HotSpot(TM) 64-Bit Server VM
Default Encoding: UTF-8
Language: en
Country: US
--></g></svg>