<?xml version="1.0" encoding="UTF-8" standalone="no"?><svg xmlns="http://www.w3.org/2000/svg" xmlns:xlink="http://www.w3.org/1999/xlink" contentScriptType="application/ecmascript" contentStyleType="text/css" height="644px" preserveAspectRatio="none" style="width:963px;height:644px;" version="1.1" viewBox="0 0 963 644" width="963px" zoomAndPan="magnify"><defs><filter height="300%" id="fbgpqoch2c3pk" width="300%" x="-1" y="-1"><feGaussianBlur result="blurOut" stdDeviation="2.0"/><feColorMatrix in="blurOut" result="blurOut2" type="matrix" values="0 0 0 0 0 0 0 0 0 0 0 0 0 0 0 0 0 0 .4 0"/><feOffset dx="4.0" dy="4.0" in="blurOut2" result="blurOut3"/><feBlend in="SourceGraphic" in2="blurOut3" mode="normal"/></filter></defs><g><!--MD5=[2bbec844ebd31f726303561be2fafbd2]
class Entite--><rect codeLine="1" fill="#FEFECE" filter="url(#fbgpqoch2c3pk)" height="99.2188" id="Entite" style="stroke:#A80036;stroke-width:1.5;" width="329" x="7" y="26.5"/><ellipse cx="149.25" cy="42.5" fill="#A9DCDF" rx="11" ry="11" style="stroke:#A80036;stroke-width:1.0;"/><path d="M151.3281,44.3125 L151.7188,45.2969 L151.3281,45.2969 C150.875,45.2969 150.7656,45.3125 150.6094,45.4219 C150.3594,45.5781 150.2031,45.8594 150.2031,46.1563 C150.2031,46.4219 150.3438,46.6719 150.5625,46.8281 C150.7031,46.9531 150.9063,47 151.3281,47 L153.6875,47 C154.0469,47 154.2656,46.9688 154.4063,46.875 C154.6563,46.7344 154.8125,46.4375 154.8125,46.1563 C154.8125,45.875 154.6719,45.625 154.4531,45.4688 C154.2813,45.3281 154.125,45.2969 153.6563,45.2969 L150.2656,37.0938 L146.5938,37.0938 C146.1406,37.0938 146.0156,37.1094 145.8594,37.2031 C145.6094,37.375 145.4531,37.6563 145.4531,37.9375 C145.4531,38.2188 145.5938,38.4688 145.8125,38.6406 C145.9844,38.75 146.1563,38.7813 146.5938,38.7813 L147.6719,38.7813 L145.0313,45.2969 C144.6094,45.2969 144.4531,45.3125 144.2969,45.4219 C144.0469,45.5781 143.8906,45.8594 143.8906,46.1563 C143.8906,46.7188 144.2656,47 145.0156,47 L147.2813,47 C147.6406,47 147.8594,46.9688 147.9844,46.875 C148.25,46.7344 148.3906,46.4375 148.3906,46.1563 C148.3906,45.875 148.2656,45.625 148.0469,45.4531 C147.875,45.3281 147.7344,45.2969 147.2813,45.2969 L146.8906,45.2969 L147.2813,44.3125 L151.3281,44.3125 Z M150.625,42.6094 L147.9531,42.6094 L149.2969,39.3438 L150.625,42.6094 Z " fill="#000000"/><text fill="#000000" font-family="sans-serif" font-size="12" font-style="italic" lengthAdjust="spacingAndGlyphs" textLength="36" x="169.75" y="46.6543">Entite</text><line style="stroke:#A80036;stroke-width:1.5;" x1="8" x2="335" y1="58.5" y2="58.5"/><ellipse cx="18" cy="69.5" fill="none" rx="3" ry="3" style="stroke:#038048;stroke-width:1.0;"/><text fill="#000000" font-family="sans-serif" font-size="11" lengthAdjust="spacingAndGlyphs" textLength="63" x="27" y="72.7104">nom: string</text><ellipse cx="18" cy="82.3047" fill="none" rx="3" ry="3" style="stroke:#038048;stroke-width:1.0;"/><text fill="#000000" font-family="sans-serif" font-size="11" lengthAdjust="spacingAndGlyphs" textLength="69" x="27" y="85.5151">vie: number</text><ellipse cx="18" cy="95.1094" fill="none" rx="3" ry="3" style="stroke:#038048;stroke-width:1.0;"/><text fill="#000000" font-family="sans-serif" font-size="11" lengthAdjust="spacingAndGlyphs" textLength="88" x="27" y="98.3198">salleId: number</text><line style="stroke:#A80036;stroke-width:1.5;" x1="8" x2="335" y1="104.9141" y2="104.9141"/><ellipse cx="18" cy="115.9141" fill="#84BE84" rx="3" ry="3" style="stroke:#038048;stroke-width:1.0;"/><text fill="#000000" font-family="sans-serif" font-size="11" lengthAdjust="spacingAndGlyphs" textLength="303" x="27" y="119.1245">remove(listeEntitee: Entite[], entitee: Entite): Entite[]</text><!--MD5=[9c44bef4398b9b819e757c850646d09b]
class Salle--><rect codeLine="7" fill="#FEFECE" filter="url(#fbgpqoch2c3pk)" height="137.6328" id="Salle" style="stroke:#A80036;stroke-width:1.5;" width="149" x="371" y="7"/><ellipse cx="426.75" cy="23" fill="#ADD1B2" rx="11" ry="11" style="stroke:#A80036;stroke-width:1.0;"/><path d="M429.0938,18.6719 C428.1563,18.2344 427.5625,18.0938 426.6875,18.0938 C424.0625,18.0938 422.0625,20.1719 422.0625,22.8906 L422.0625,24.0156 C422.0625,26.5938 424.1719,28.4844 427.0625,28.4844 C428.2813,28.4844 429.4375,28.1875 430.1875,27.6406 C430.7656,27.2344 431.0938,26.7813 431.0938,26.3906 C431.0938,25.9375 430.7031,25.5469 430.2344,25.5469 C430.0156,25.5469 429.8125,25.625 429.625,25.8125 C429.1719,26.2969 429.1719,26.2969 428.9844,26.3906 C428.5625,26.6563 427.875,26.7813 427.1094,26.7813 C425.0625,26.7813 423.7656,25.6875 423.7656,23.9844 L423.7656,22.8906 C423.7656,21.1094 425.0156,19.7969 426.75,19.7969 C427.3281,19.7969 427.9375,19.9531 428.4063,20.2031 C428.8906,20.4844 429.0625,20.7031 429.1563,21.1094 C429.2188,21.5156 429.25,21.6406 429.3906,21.7656 C429.5313,21.9063 429.7656,22.0156 429.9844,22.0156 C430.25,22.0156 430.5156,21.875 430.6875,21.6563 C430.7969,21.5 430.8281,21.3125 430.8281,20.8906 L430.8281,19.4688 C430.8281,19.0313 430.8125,18.9063 430.7188,18.75 C430.5625,18.4844 430.2813,18.3438 429.9844,18.3438 C429.6875,18.3438 429.4844,18.4375 429.2656,18.75 L429.0938,18.6719 Z " fill="#000000"/><text fill="#000000" font-family="sans-serif" font-size="12" lengthAdjust="spacingAndGlyphs" textLength="29" x="447.25" y="27.1543">Salle</text><line style="stroke:#A80036;stroke-width:1.5;" x1="372" x2="519" y1="39" y2="39"/><ellipse cx="382" cy="50" fill="none" rx="3" ry="3" style="stroke:#038048;stroke-width:1.0;"/><text fill="#000000" font-family="sans-serif" font-size="11" lengthAdjust="spacingAndGlyphs" textLength="88" x="391" y="53.2104">entites: Entite[]</text><ellipse cx="382" cy="62.8047" fill="none" rx="3" ry="3" style="stroke:#038048;stroke-width:1.0;"/><text fill="#000000" font-family="sans-serif" font-size="11" lengthAdjust="spacingAndGlyphs" textLength="81" x="391" y="66.0151">objets: Objet[]</text><ellipse cx="382" cy="75.6094" fill="none" rx="3" ry="3" style="stroke:#038048;stroke-width:1.0;"/><text fill="#000000" font-family="sans-serif" font-size="11" lengthAdjust="spacingAndGlyphs" textLength="92" x="391" y="78.8198">nomSalle: string</text><ellipse cx="382" cy="88.4141" fill="none" rx="3" ry="3" style="stroke:#038048;stroke-width:1.0;"/><text fill="#000000" font-family="sans-serif" font-size="11" lengthAdjust="spacingAndGlyphs" textLength="100" x="391" y="91.6245">passages: string[]</text><ellipse cx="382" cy="101.2188" fill="none" rx="3" ry="3" style="stroke:#038048;stroke-width:1.0;"/><text fill="#000000" font-family="sans-serif" font-size="11" lengthAdjust="spacingAndGlyphs" textLength="123" x="391" y="104.4292">passagesId: number[]</text><ellipse cx="382" cy="114.0234" fill="none" rx="3" ry="3" style="stroke:#038048;stroke-width:1.0;"/><text fill="#000000" font-family="sans-serif" font-size="11" lengthAdjust="spacingAndGlyphs" textLength="100" x="391" y="117.2339">description: string</text><ellipse cx="382" cy="126.8281" fill="none" rx="3" ry="3" style="stroke:#038048;stroke-width:1.0;"/><text fill="#000000" font-family="sans-serif" font-size="11" lengthAdjust="spacingAndGlyphs" text-decoration="underline" textLength="82" x="391" y="130.0386">donjon: Salle[]</text><line style="stroke:#A80036;stroke-width:1.5;" x1="372" x2="519" y1="136.6328" y2="136.6328"/><!--MD5=[96b3989871b5279a8981fb911260d86c]
class Hostile--><rect codeLine="16" fill="#FEFECE" filter="url(#fbgpqoch2c3pk)" height="188.8516" id="Hostile" style="stroke:#A80036;stroke-width:1.5;" width="205" x="69" y="205"/><ellipse cx="146.25" cy="221" fill="#ADD1B2" rx="11" ry="11" style="stroke:#A80036;stroke-width:1.0;"/><path d="M148.5938,216.6719 C147.6563,216.2344 147.0625,216.0938 146.1875,216.0938 C143.5625,216.0938 141.5625,218.1719 141.5625,220.8906 L141.5625,222.0156 C141.5625,224.5938 143.6719,226.4844 146.5625,226.4844 C147.7813,226.4844 148.9375,226.1875 149.6875,225.6406 C150.2656,225.2344 150.5938,224.7813 150.5938,224.3906 C150.5938,223.9375 150.2031,223.5469 149.7344,223.5469 C149.5156,223.5469 149.3125,223.625 149.125,223.8125 C148.6719,224.2969 148.6719,224.2969 148.4844,224.3906 C148.0625,224.6563 147.375,224.7813 146.6094,224.7813 C144.5625,224.7813 143.2656,223.6875 143.2656,221.9844 L143.2656,220.8906 C143.2656,219.1094 144.5156,217.7969 146.25,217.7969 C146.8281,217.7969 147.4375,217.9531 147.9063,218.2031 C148.3906,218.4844 148.5625,218.7031 148.6563,219.1094 C148.7188,219.5156 148.75,219.6406 148.8906,219.7656 C149.0313,219.9063 149.2656,220.0156 149.4844,220.0156 C149.75,220.0156 150.0156,219.875 150.1875,219.6563 C150.2969,219.5 150.3281,219.3125 150.3281,218.8906 L150.3281,217.4688 C150.3281,217.0313 150.3125,216.9063 150.2188,216.75 C150.0625,216.4844 149.7813,216.3438 149.4844,216.3438 C149.1875,216.3438 148.9844,216.4375 148.7656,216.75 L148.5938,216.6719 Z " fill="#000000"/><text fill="#000000" font-family="sans-serif" font-size="12" lengthAdjust="spacingAndGlyphs" textLength="42" x="166.75" y="225.1543">Hostile</text><line style="stroke:#A80036;stroke-width:1.5;" x1="70" x2="273" y1="237" y2="237"/><ellipse cx="80" cy="248" fill="none" rx="3" ry="3" style="stroke:#038048;stroke-width:1.0;"/><text fill="#000000" font-family="sans-serif" font-size="11" lengthAdjust="spacingAndGlyphs" textLength="93" x="89" y="251.2104">critique: number</text><ellipse cx="80" cy="260.8047" fill="none" rx="3" ry="3" style="stroke:#038048;stroke-width:1.0;"/><text fill="#000000" font-family="sans-serif" font-size="11" lengthAdjust="spacingAndGlyphs" textLength="99" x="89" y="264.0151">arme: Arme | null</text><ellipse cx="80" cy="273.6094" fill="none" rx="3" ry="3" style="stroke:#038048;stroke-width:1.0;"/><text fill="#000000" font-family="sans-serif" font-size="11" lengthAdjust="spacingAndGlyphs" textLength="65" x="89" y="276.8198">sac: Objet[]</text><ellipse cx="80" cy="286.4141" fill="none" rx="3" ry="3" style="stroke:#038048;stroke-width:1.0;"/><text fill="#000000" font-family="sans-serif" font-size="11" lengthAdjust="spacingAndGlyphs" textLength="63" x="89" y="289.6245">nom: string</text><ellipse cx="80" cy="299.2188" fill="none" rx="3" ry="3" style="stroke:#038048;stroke-width:1.0;"/><text fill="#000000" font-family="sans-serif" font-size="11" lengthAdjust="spacingAndGlyphs" textLength="69" x="89" y="302.4292">vie: number</text><ellipse cx="80" cy="312.0234" fill="none" rx="3" ry="3" style="stroke:#038048;stroke-width:1.0;"/><text fill="#000000" font-family="sans-serif" font-size="11" lengthAdjust="spacingAndGlyphs" textLength="80" x="89" y="315.2339">force: number</text><ellipse cx="80" cy="324.8281" fill="none" rx="3" ry="3" style="stroke:#038048;stroke-width:1.0;"/><text fill="#000000" font-family="sans-serif" font-size="11" lengthAdjust="spacingAndGlyphs" textLength="88" x="89" y="328.0386">salleId: number</text><line style="stroke:#A80036;stroke-width:1.5;" x1="70" x2="273" y1="334.6328" y2="334.6328"/><ellipse cx="80" cy="345.6328" fill="#84BE84" rx="3" ry="3" style="stroke:#038048;stroke-width:1.0;"/><text fill="#000000" font-family="sans-serif" font-size="11" lengthAdjust="spacingAndGlyphs" textLength="179" x="89" y="348.8433">combattre(entitee: Entite): void</text><rect fill="#F24D5C" height="6" style="stroke:#C82930;stroke-width:1.0;" width="6" x="77" y="355.4375"/><text fill="#000000" font-family="sans-serif" font-size="11" lengthAdjust="spacingAndGlyphs" textLength="169" x="89" y="361.6479">attaquer(entitee: Entite): void</text><ellipse cx="80" cy="371.2422" fill="#84BE84" rx="3" ry="3" style="stroke:#038048;stroke-width:1.0;"/><text fill="#000000" font-family="sans-serif" font-size="11" lengthAdjust="spacingAndGlyphs" textLength="145" x="89" y="374.4526">utiliser(idx: number): void</text><ellipse cx="80" cy="384.0469" fill="#84BE84" rx="3" ry="3" style="stroke:#038048;stroke-width:1.0;"/><text fill="#000000" font-family="sans-serif" font-size="11" lengthAdjust="spacingAndGlyphs" textLength="97" x="89" y="387.2573">deEquiper(): void</text><!--MD5=[616299f142344228d442db1d4b54b5f3]
class Objet--><rect codeLine="29" fill="#FEFECE" filter="url(#fbgpqoch2c3pk)" height="99.2188" id="Objet" style="stroke:#A80036;stroke-width:1.5;" width="185" x="555" y="26.5"/><ellipse cx="627.25" cy="42.5" fill="#A9DCDF" rx="11" ry="11" style="stroke:#A80036;stroke-width:1.0;"/><path d="M629.3281,44.3125 L629.7188,45.2969 L629.3281,45.2969 C628.875,45.2969 628.7656,45.3125 628.6094,45.4219 C628.3594,45.5781 628.2031,45.8594 628.2031,46.1563 C628.2031,46.4219 628.3438,46.6719 628.5625,46.8281 C628.7031,46.9531 628.9063,47 629.3281,47 L631.6875,47 C632.0469,47 632.2656,46.9688 632.4063,46.875 C632.6563,46.7344 632.8125,46.4375 632.8125,46.1563 C632.8125,45.875 632.6719,45.625 632.4531,45.4688 C632.2813,45.3281 632.125,45.2969 631.6563,45.2969 L628.2656,37.0938 L624.5938,37.0938 C624.1406,37.0938 624.0156,37.1094 623.8594,37.2031 C623.6094,37.375 623.4531,37.6563 623.4531,37.9375 C623.4531,38.2188 623.5938,38.4688 623.8125,38.6406 C623.9844,38.75 624.1563,38.7813 624.5938,38.7813 L625.6719,38.7813 L623.0313,45.2969 C622.6094,45.2969 622.4531,45.3125 622.2969,45.4219 C622.0469,45.5781 621.8906,45.8594 621.8906,46.1563 C621.8906,46.7188 622.2656,47 623.0156,47 L625.2813,47 C625.6406,47 625.8594,46.9688 625.9844,46.875 C626.25,46.7344 626.3906,46.4375 626.3906,46.1563 C626.3906,45.875 626.2656,45.625 626.0469,45.4531 C625.875,45.3281 625.7344,45.2969 625.2813,45.2969 L624.8906,45.2969 L625.2813,44.3125 L629.3281,44.3125 Z M628.625,42.6094 L625.9531,42.6094 L627.2969,39.3438 L628.625,42.6094 Z " fill="#000000"/><text fill="#000000" font-family="sans-serif" font-size="12" font-style="italic" lengthAdjust="spacingAndGlyphs" textLength="32" x="647.75" y="46.6543">Objet</text><line style="stroke:#A80036;stroke-width:1.5;" x1="556" x2="739" y1="58.5" y2="58.5"/><ellipse cx="566" cy="69.5" fill="none" rx="3" ry="3" style="stroke:#038048;stroke-width:1.0;"/><text fill="#000000" font-family="sans-serif" font-size="11" lengthAdjust="spacingAndGlyphs" textLength="63" x="575" y="72.7104">nom: string</text><ellipse cx="566" cy="82.3047" fill="none" rx="3" ry="3" style="stroke:#038048;stroke-width:1.0;"/><text fill="#000000" font-family="sans-serif" font-size="11" lengthAdjust="spacingAndGlyphs" textLength="72" x="575" y="85.5151">prix: number</text><line style="stroke:#A80036;stroke-width:1.5;" x1="556" x2="739" y1="92.1094" y2="92.1094"/><ellipse cx="566" cy="103.1094" fill="#84BE84" rx="3" ry="3" style="stroke:#038048;stroke-width:1.0;"/><text fill="#000000" font-family="sans-serif" font-size="11" lengthAdjust="spacingAndGlyphs" textLength="159" x="575" y="106.3198">vendre(joueur: Joueur): void</text><ellipse cx="566" cy="115.9141" fill="#84BE84" rx="3" ry="3" style="stroke:#038048;stroke-width:1.0;"/><text fill="#000000" font-family="sans-serif" font-size="11" font-style="italic" lengthAdjust="spacingAndGlyphs" textLength="156" x="575" y="119.1245">utilise(hostile: Hostile): void</text><!--MD5=[0e40145dcd0b5bb8a81ea75444240c9b]
class Arme--><rect codeLine="35" fill="#FEFECE" filter="url(#fbgpqoch2c3pk)" height="124.8281" id="Arme" style="stroke:#A80036;stroke-width:1.5;" width="203" x="320" y="237"/><ellipse cx="401.25" cy="253" fill="#ADD1B2" rx="11" ry="11" style="stroke:#A80036;stroke-width:1.0;"/><path d="M403.5938,248.6719 C402.6563,248.2344 402.0625,248.0938 401.1875,248.0938 C398.5625,248.0938 396.5625,250.1719 396.5625,252.8906 L396.5625,254.0156 C396.5625,256.5938 398.6719,258.4844 401.5625,258.4844 C402.7813,258.4844 403.9375,258.1875 404.6875,257.6406 C405.2656,257.2344 405.5938,256.7813 405.5938,256.3906 C405.5938,255.9375 405.2031,255.5469 404.7344,255.5469 C404.5156,255.5469 404.3125,255.625 404.125,255.8125 C403.6719,256.2969 403.6719,256.2969 403.4844,256.3906 C403.0625,256.6563 402.375,256.7813 401.6094,256.7813 C399.5625,256.7813 398.2656,255.6875 398.2656,253.9844 L398.2656,252.8906 C398.2656,251.1094 399.5156,249.7969 401.25,249.7969 C401.8281,249.7969 402.4375,249.9531 402.9063,250.2031 C403.3906,250.4844 403.5625,250.7031 403.6563,251.1094 C403.7188,251.5156 403.75,251.6406 403.8906,251.7656 C404.0313,251.9063 404.2656,252.0156 404.4844,252.0156 C404.75,252.0156 405.0156,251.875 405.1875,251.6563 C405.2969,251.5 405.3281,251.3125 405.3281,250.8906 L405.3281,249.4688 C405.3281,249.0313 405.3125,248.9063 405.2188,248.75 C405.0625,248.4844 404.7813,248.3438 404.4844,248.3438 C404.1875,248.3438 403.9844,248.4375 403.7656,248.75 L403.5938,248.6719 Z " fill="#000000"/><text fill="#000000" font-family="sans-serif" font-size="12" lengthAdjust="spacingAndGlyphs" textLength="32" x="421.75" y="257.1543">Arme</text><line style="stroke:#A80036;stroke-width:1.5;" x1="321" x2="522" y1="269" y2="269"/><ellipse cx="331" cy="280" fill="none" rx="3" ry="3" style="stroke:#038048;stroke-width:1.0;"/><text fill="#000000" font-family="sans-serif" font-size="11" lengthAdjust="spacingAndGlyphs" textLength="63" x="340" y="283.2104">nom: string</text><ellipse cx="331" cy="292.8047" fill="none" rx="3" ry="3" style="stroke:#038048;stroke-width:1.0;"/><text fill="#000000" font-family="sans-serif" font-size="11" lengthAdjust="spacingAndGlyphs" textLength="72" x="340" y="296.0151">prix: number</text><ellipse cx="331" cy="305.6094" fill="none" rx="3" ry="3" style="stroke:#038048;stroke-width:1.0;"/><text fill="#000000" font-family="sans-serif" font-size="11" lengthAdjust="spacingAndGlyphs" textLength="84" x="340" y="308.8198">degat: number</text><line style="stroke:#A80036;stroke-width:1.5;" x1="321" x2="522" y1="315.4141" y2="315.4141"/><ellipse cx="331" cy="326.4141" fill="#84BE84" rx="3" ry="3" style="stroke:#038048;stroke-width:1.0;"/><text fill="#000000" font-family="sans-serif" font-size="11" lengthAdjust="spacingAndGlyphs" textLength="157" x="340" y="329.6245">utilise(hostile: Hostile): void</text><ellipse cx="331" cy="339.2188" fill="#84BE84" rx="3" ry="3" style="stroke:#038048;stroke-width:1.0;"/><text fill="#000000" font-family="sans-serif" font-size="11" lengthAdjust="spacingAndGlyphs" textLength="163" x="340" y="342.4292">equipe(hostile: Hostile): void</text><ellipse cx="331" cy="352.0234" fill="#84BE84" rx="3" ry="3" style="stroke:#038048;stroke-width:1.0;"/><text fill="#000000" font-family="sans-serif" font-size="11" lengthAdjust="spacingAndGlyphs" textLength="177" x="340" y="355.2339">deEquipe(hostile: Hostile): void</text><!--MD5=[f35b8d93951ba498799a84be5600c0ca]
class Joueur--><rect codeLine="43" fill="#FEFECE" filter="url(#fbgpqoch2c3pk)" height="176.0469" id="Joueur" style="stroke:#A80036;stroke-width:1.5;" width="234" x="54.5" y="454"/><ellipse cx="147.75" cy="470" fill="#ADD1B2" rx="11" ry="11" style="stroke:#A80036;stroke-width:1.0;"/><path d="M150.0938,465.6719 C149.1563,465.2344 148.5625,465.0938 147.6875,465.0938 C145.0625,465.0938 143.0625,467.1719 143.0625,469.8906 L143.0625,471.0156 C143.0625,473.5938 145.1719,475.4844 148.0625,475.4844 C149.2813,475.4844 150.4375,475.1875 151.1875,474.6406 C151.7656,474.2344 152.0938,473.7813 152.0938,473.3906 C152.0938,472.9375 151.7031,472.5469 151.2344,472.5469 C151.0156,472.5469 150.8125,472.625 150.625,472.8125 C150.1719,473.2969 150.1719,473.2969 149.9844,473.3906 C149.5625,473.6563 148.875,473.7813 148.1094,473.7813 C146.0625,473.7813 144.7656,472.6875 144.7656,470.9844 L144.7656,469.8906 C144.7656,468.1094 146.0156,466.7969 147.75,466.7969 C148.3281,466.7969 148.9375,466.9531 149.4063,467.2031 C149.8906,467.4844 150.0625,467.7031 150.1563,468.1094 C150.2188,468.5156 150.25,468.6406 150.3906,468.7656 C150.5313,468.9063 150.7656,469.0156 150.9844,469.0156 C151.25,469.0156 151.5156,468.875 151.6875,468.6563 C151.7969,468.5 151.8281,468.3125 151.8281,467.8906 L151.8281,466.4688 C151.8281,466.0313 151.8125,465.9063 151.7188,465.75 C151.5625,465.4844 151.2813,465.3438 150.9844,465.3438 C150.6875,465.3438 150.4844,465.4375 150.2656,465.75 L150.0938,465.6719 Z " fill="#000000"/><text fill="#000000" font-family="sans-serif" font-size="12" lengthAdjust="spacingAndGlyphs" textLength="39" x="168.25" y="474.1543">Joueur</text><line style="stroke:#A80036;stroke-width:1.5;" x1="55.5" x2="287.5" y1="486" y2="486"/><ellipse cx="65.5" cy="497" fill="none" rx="3" ry="3" style="stroke:#038048;stroke-width:1.0;"/><text fill="#000000" font-family="sans-serif" font-size="11" lengthAdjust="spacingAndGlyphs" textLength="99" x="74.5" y="500.2104">arme: Arme | null</text><ellipse cx="65.5" cy="509.8047" fill="none" rx="3" ry="3" style="stroke:#038048;stroke-width:1.0;"/><text fill="#000000" font-family="sans-serif" font-size="11" lengthAdjust="spacingAndGlyphs" textLength="62" x="74.5" y="513.0151">or: number</text><ellipse cx="65.5" cy="522.6094" fill="none" rx="3" ry="3" style="stroke:#038048;stroke-width:1.0;"/><text fill="#000000" font-family="sans-serif" font-size="11" lengthAdjust="spacingAndGlyphs" textLength="65" x="74.5" y="525.8198">sac: Objet[]</text><ellipse cx="65.5" cy="535.4141" fill="none" rx="3" ry="3" style="stroke:#038048;stroke-width:1.0;"/><text fill="#000000" font-family="sans-serif" font-size="11" lengthAdjust="spacingAndGlyphs" textLength="63" x="74.5" y="538.6245">nom: string</text><ellipse cx="65.5" cy="548.2188" fill="none" rx="3" ry="3" style="stroke:#038048;stroke-width:1.0;"/><text fill="#000000" font-family="sans-serif" font-size="11" lengthAdjust="spacingAndGlyphs" textLength="69" x="74.5" y="551.4292">vie: number</text><ellipse cx="65.5" cy="561.0234" fill="none" rx="3" ry="3" style="stroke:#038048;stroke-width:1.0;"/><text fill="#000000" font-family="sans-serif" font-size="11" lengthAdjust="spacingAndGlyphs" textLength="88" x="74.5" y="564.2339">salleId: number</text><line style="stroke:#A80036;stroke-width:1.5;" x1="55.5" x2="287.5" y1="570.8281" y2="570.8281"/><ellipse cx="65.5" cy="581.8281" fill="#84BE84" rx="3" ry="3" style="stroke:#038048;stroke-width:1.0;"/><text fill="#000000" font-family="sans-serif" font-size="11" lengthAdjust="spacingAndGlyphs" textLength="176" x="74.5" y="585.0386">deplacer(direction: string): void</text><ellipse cx="65.5" cy="594.6328" fill="#84BE84" rx="3" ry="3" style="stroke:#038048;stroke-width:1.0;"/><text fill="#000000" font-family="sans-serif" font-size="11" lengthAdjust="spacingAndGlyphs" textLength="208" x="74.5" y="597.8433">observerEntitee(idx: number): Entite</text><ellipse cx="65.5" cy="607.4375" fill="#84BE84" rx="3" ry="3" style="stroke:#038048;stroke-width:1.0;"/><text fill="#000000" font-family="sans-serif" font-size="11" lengthAdjust="spacingAndGlyphs" textLength="196" x="74.5" y="610.6479">observerObjet(idx: number): Objet</text><ellipse cx="65.5" cy="620.2422" fill="#84BE84" rx="3" ry="3" style="stroke:#038048;stroke-width:1.0;"/><text fill="#000000" font-family="sans-serif" font-size="11" lengthAdjust="spacingAndGlyphs" textLength="152" x="74.5" y="623.4526">prendre(idx: number): void</text><!--MD5=[e22129eb8960ccad542846e0143c8748]
class PotionDeVie--><rect codeLine="55" fill="#FEFECE" filter="url(#fbgpqoch2c3pk)" height="99.2188" id="PotionDeVie" style="stroke:#A80036;stroke-width:1.5;" width="178" x="558.5" y="250"/><ellipse cx="607.25" cy="266" fill="#ADD1B2" rx="11" ry="11" style="stroke:#A80036;stroke-width:1.0;"/><path d="M609.5938,261.6719 C608.6563,261.2344 608.0625,261.0938 607.1875,261.0938 C604.5625,261.0938 602.5625,263.1719 602.5625,265.8906 L602.5625,267.0156 C602.5625,269.5938 604.6719,271.4844 607.5625,271.4844 C608.7813,271.4844 609.9375,271.1875 610.6875,270.6406 C611.2656,270.2344 611.5938,269.7813 611.5938,269.3906 C611.5938,268.9375 611.2031,268.5469 610.7344,268.5469 C610.5156,268.5469 610.3125,268.625 610.125,268.8125 C609.6719,269.2969 609.6719,269.2969 609.4844,269.3906 C609.0625,269.6563 608.375,269.7813 607.6094,269.7813 C605.5625,269.7813 604.2656,268.6875 604.2656,266.9844 L604.2656,265.8906 C604.2656,264.1094 605.5156,262.7969 607.25,262.7969 C607.8281,262.7969 608.4375,262.9531 608.9063,263.2031 C609.3906,263.4844 609.5625,263.7031 609.6563,264.1094 C609.7188,264.5156 609.75,264.6406 609.8906,264.7656 C610.0313,264.9063 610.2656,265.0156 610.4844,265.0156 C610.75,265.0156 611.0156,264.875 611.1875,264.6563 C611.2969,264.5 611.3281,264.3125 611.3281,263.8906 L611.3281,262.4688 C611.3281,262.0313 611.3125,261.9063 611.2188,261.75 C611.0625,261.4844 610.7813,261.3438 610.4844,261.3438 C610.1875,261.3438 609.9844,261.4375 609.7656,261.75 L609.5938,261.6719 Z " fill="#000000"/><text fill="#000000" font-family="sans-serif" font-size="12" lengthAdjust="spacingAndGlyphs" textLength="72" x="627.75" y="270.1543">PotionDeVie</text><line style="stroke:#A80036;stroke-width:1.5;" x1="559.5" x2="735.5" y1="282" y2="282"/><ellipse cx="569.5" cy="293" fill="none" rx="3" ry="3" style="stroke:#038048;stroke-width:1.0;"/><text fill="#000000" font-family="sans-serif" font-size="11" lengthAdjust="spacingAndGlyphs" textLength="63" x="578.5" y="296.2104">nom: string</text><ellipse cx="569.5" cy="305.8047" fill="none" rx="3" ry="3" style="stroke:#038048;stroke-width:1.0;"/><text fill="#000000" font-family="sans-serif" font-size="11" lengthAdjust="spacingAndGlyphs" textLength="72" x="578.5" y="309.0151">prix: number</text><ellipse cx="569.5" cy="318.6094" fill="none" rx="3" ry="3" style="stroke:#038048;stroke-width:1.0;"/><text fill="#000000" font-family="sans-serif" font-size="11" lengthAdjust="spacingAndGlyphs" textLength="85" x="578.5" y="321.8198">effect: number</text><line style="stroke:#A80036;stroke-width:1.5;" x1="559.5" x2="735.5" y1="328.4141" y2="328.4141"/><ellipse cx="569.5" cy="339.4141" fill="#84BE84" rx="3" ry="3" style="stroke:#038048;stroke-width:1.0;"/><text fill="#000000" font-family="sans-serif" font-size="11" lengthAdjust="spacingAndGlyphs" textLength="152" x="578.5" y="342.6245">utilise(joueur: Joueur): void</text><!--MD5=[b17f251f85577685872bad37a8eaec44]
class PotionDeForce--><rect codeLine="61" fill="#FEFECE" filter="url(#fbgpqoch2c3pk)" height="99.2188" id="PotionDeForce" style="stroke:#A80036;stroke-width:1.5;" width="178" x="771.5" y="250"/><ellipse cx="812.6" cy="266" fill="#ADD1B2" rx="11" ry="11" style="stroke:#A80036;stroke-width:1.0;"/><path d="M814.9438,261.6719 C814.0063,261.2344 813.4125,261.0938 812.5375,261.0938 C809.9125,261.0938 807.9125,263.1719 807.9125,265.8906 L807.9125,267.0156 C807.9125,269.5938 810.0219,271.4844 812.9125,271.4844 C814.1313,271.4844 815.2875,271.1875 816.0375,270.6406 C816.6156,270.2344 816.9438,269.7813 816.9438,269.3906 C816.9438,268.9375 816.5531,268.5469 816.0844,268.5469 C815.8656,268.5469 815.6625,268.625 815.475,268.8125 C815.0219,269.2969 815.0219,269.2969 814.8344,269.3906 C814.4125,269.6563 813.725,269.7813 812.9594,269.7813 C810.9125,269.7813 809.6156,268.6875 809.6156,266.9844 L809.6156,265.8906 C809.6156,264.1094 810.8656,262.7969 812.6,262.7969 C813.1781,262.7969 813.7875,262.9531 814.2563,263.2031 C814.7406,263.4844 814.9125,263.7031 815.0063,264.1094 C815.0688,264.5156 815.1,264.6406 815.2406,264.7656 C815.3813,264.9063 815.6156,265.0156 815.8344,265.0156 C816.1,265.0156 816.3656,264.875 816.5375,264.6563 C816.6469,264.5 816.6781,264.3125 816.6781,263.8906 L816.6781,262.4688 C816.6781,262.0313 816.6625,261.9063 816.5688,261.75 C816.4125,261.4844 816.1313,261.3438 815.8344,261.3438 C815.5375,261.3438 815.3344,261.4375 815.1156,261.75 L814.9438,261.6719 Z " fill="#000000"/><text fill="#000000" font-family="sans-serif" font-size="12" lengthAdjust="spacingAndGlyphs" textLength="88" x="832.4" y="270.1543">PotionDeForce</text><line style="stroke:#A80036;stroke-width:1.5;" x1="772.5" x2="948.5" y1="282" y2="282"/><ellipse cx="782.5" cy="293" fill="none" rx="3" ry="3" style="stroke:#038048;stroke-width:1.0;"/><text fill="#000000" font-family="sans-serif" font-size="11" lengthAdjust="spacingAndGlyphs" textLength="63" x="791.5" y="296.2104">nom: string</text><ellipse cx="782.5" cy="305.8047" fill="none" rx="3" ry="3" style="stroke:#038048;stroke-width:1.0;"/><text fill="#000000" font-family="sans-serif" font-size="11" lengthAdjust="spacingAndGlyphs" textLength="72" x="791.5" y="309.0151">prix: number</text><ellipse cx="782.5" cy="318.6094" fill="none" rx="3" ry="3" style="stroke:#038048;stroke-width:1.0;"/><text fill="#000000" font-family="sans-serif" font-size="11" lengthAdjust="spacingAndGlyphs" textLength="85" x="791.5" y="321.8198">effect: number</text><line style="stroke:#A80036;stroke-width:1.5;" x1="772.5" x2="948.5" y1="328.4141" y2="328.4141"/><ellipse cx="782.5" cy="339.4141" fill="#84BE84" rx="3" ry="3" style="stroke:#038048;stroke-width:1.0;"/><text fill="#000000" font-family="sans-serif" font-size="11" lengthAdjust="spacingAndGlyphs" textLength="152" x="791.5" y="342.6245">utilise(joueur: Joueur): void</text><!--MD5=[4d011e42b55bf2ca5937cf5b94f8be46]
reverse link Entite to Hostile--><path d="M171.5,145.803 C171.5,164.52 171.5,185.112 171.5,204.949 " fill="none" id="Entite-backto-Hostile" style="stroke:#A80036;stroke-width:1.0;"/><polygon fill="none" points="164.5,145.609,171.5,125.609,178.5,145.609,164.5,145.609" style="stroke:#A80036;stroke-width:1.0;"/><!--MD5=[83d9534316df663dbcf195bada95aad6]
reverse link Objet to Arme--><path d="M583.221,139.999 C552.213,170.389 515.152,206.713 484.335,236.916 " fill="none" id="Objet-backto-Arme" style="stroke:#A80036;stroke-width:1.0;"/><polygon fill="none" points="578.72,134.609,597.903,125.609,588.519,144.608,578.72,134.609" style="stroke:#A80036;stroke-width:1.0;"/><!--MD5=[3e6b7e182ab965f7f75a3689cf52102a]
reverse link Hostile to Joueur--><path d="M171.5,414.23 C171.5,427.557 171.5,440.99 171.5,453.874 " fill="none" id="Hostile-backto-Joueur" style="stroke:#A80036;stroke-width:1.0;"/><polygon fill="none" points="164.5,414.172,171.5,394.172,178.5,414.172,164.5,414.172" style="stroke:#A80036;stroke-width:1.0;"/><!--MD5=[4c01ea8bae8b732b167dacdb8498e38d]
reverse link Objet to PotionDeVie--><path d="M647.5,145.648 C647.5,179.319 647.5,219.09 647.5,249.622 " fill="none" id="Objet-backto-PotionDeVie" style="stroke:#A80036;stroke-width:1.0;"/><polygon fill="none" points="640.5,145.609,647.5,125.609,654.5,145.609,640.5,145.609" style="stroke:#A80036;stroke-width:1.0;"/><!--MD5=[fb44a1aee253e7e95c0a947ba0ff3a1f]
reverse link Objet to PotionDeForce--><path d="M708.523,140.459 C741.9,175.167 782.614,217.505 813.498,249.622 " fill="none" id="Objet-backto-PotionDeForce" style="stroke:#A80036;stroke-width:1.0;"/><polygon fill="none" points="703.061,144.877,694.244,125.609,713.152,135.173,703.061,144.877" style="stroke:#A80036;stroke-width:1.0;"/><!--MD5=[82a2981ed13a0833dda75e9769253b14]
@startuml
abstract class Entite {
    +nom: string
    +vie: number
    +salleId: number
    +remove(listeEntitee: Entite[], entitee: Entite): Entite[]
}
class Salle {
    +entites: Entite[]
    +objets: Objet[]
    +nomSalle: string
    +passages: string[]
    +passagesId: number[]
    +description: string
    +{static} donjon: Salle[]
}
class Hostile extends Entite {
    +critique: number
    +arme: Arme | null
    +sac: Objet[]
    +nom: string
    +vie: number
    +force: number
    +salleId: number
    +combattre(entitee: Entite): void
    -attaquer(entitee: Entite): void
    +utiliser(idx: number): void
    +deEquiper(): void
}
abstract class Objet {
    +nom: string
    +prix: number
    +vendre(joueur: Joueur): void
    +{abstract} utilise(hostile: Hostile): void
}
class Arme extends Objet {
    +nom: string
    +prix: number
    +degat: number
    +utilise(hostile: Hostile): void
    +equipe(hostile: Hostile): void
    +deEquipe(hostile: Hostile): void
}
class Joueur extends Hostile {
    +arme: Arme | null
    +or: number
    +sac: Objet[]
    +nom: string
    +vie: number
    +salleId: number
    +deplacer(direction: string): void
    +observerEntitee(idx: number): Entite
    +observerObjet(idx: number): Objet
    +prendre(idx: number): void
}
class PotionDeVie extends Objet {
    +nom: string
    +prix: number
    +effect: number
    +utilise(joueur: Joueur): void
}
class PotionDeForce extends Objet {
    +nom: string
    +prix: number
    +effect: number
    +utilise(joueur: Joueur): void
}
@enduml

PlantUML version 1.2020.22beta3(Unknown compile time)
(GPL source distribution)
Java Runtime: Java(TM) SE Runtime Environment
JVM: Java HotSpot(TM) 64-Bit Server VM
Default Encoding: UTF-8
Language: en
Country: US
--></g></svg>