<?xml version="1.0" encoding="UTF-8" standalone="no"?><svg xmlns="http://www.w3.org/2000/svg" xmlns:xlink="http://www.w3.org/1999/xlink" contentScriptType="application/ecmascript" contentStyleType="text/css" height="681px" preserveAspectRatio="none" style="width:2215px;height:681px;" version="1.1" viewBox="0 0 2215 681" width="2215px" zoomAndPan="magnify"><defs><filter height="300%" id="fw85g8s1ldl0a" width="300%" x="-1" y="-1"><feGaussianBlur result="blurOut" stdDeviation="2.0"/><feColorMatrix in="blurOut" result="blurOut2" type="matrix" values="0 0 0 0 0 0 0 0 0 0 0 0 0 0 0 0 0 0 .4 0"/><feOffset dx="4.0" dy="4.0" in="blurOut2" result="blurOut3"/><feBlend in="SourceGraphic" in2="blurOut3" mode="normal"/></filter></defs><g><!--MD5=[2bbec844ebd31f726303561be2fafbd2]
class Entite--><rect codeLine="1" fill="#FEFECE" filter="url(#fw85g8s1ldl0a)" height="150.4375" id="Entite" style="stroke:#A80036;stroke-width:1.5;" width="305" x="7" y="7"/><ellipse cx="137.25" cy="23" fill="#A9DCDF" rx="11" ry="11" style="stroke:#A80036;stroke-width:1.0;"/><path d="M139.3281,24.8125 L139.7188,25.7969 L139.3281,25.7969 C138.875,25.7969 138.7656,25.8125 138.6094,25.9219 C138.3594,26.0781 138.2031,26.3594 138.2031,26.6563 C138.2031,26.9219 138.3438,27.1719 138.5625,27.3281 C138.7031,27.4531 138.9063,27.5 139.3281,27.5 L141.6875,27.5 C142.0469,27.5 142.2656,27.4688 142.4063,27.375 C142.6563,27.2344 142.8125,26.9375 142.8125,26.6563 C142.8125,26.375 142.6719,26.125 142.4531,25.9688 C142.2813,25.8281 142.125,25.7969 141.6563,25.7969 L138.2656,17.5938 L134.5938,17.5938 C134.1406,17.5938 134.0156,17.6094 133.8594,17.7031 C133.6094,17.875 133.4531,18.1563 133.4531,18.4375 C133.4531,18.7188 133.5938,18.9688 133.8125,19.1406 C133.9844,19.25 134.1563,19.2813 134.5938,19.2813 L135.6719,19.2813 L133.0313,25.7969 C132.6094,25.7969 132.4531,25.8125 132.2969,25.9219 C132.0469,26.0781 131.8906,26.3594 131.8906,26.6563 C131.8906,27.2188 132.2656,27.5 133.0156,27.5 L135.2813,27.5 C135.6406,27.5 135.8594,27.4688 135.9844,27.375 C136.25,27.2344 136.3906,26.9375 136.3906,26.6563 C136.3906,26.375 136.2656,26.125 136.0469,25.9531 C135.875,25.8281 135.7344,25.7969 135.2813,25.7969 L134.8906,25.7969 L135.2813,24.8125 L139.3281,24.8125 Z M138.625,23.1094 L135.9531,23.1094 L137.2969,19.8438 L138.625,23.1094 Z " fill="#000000"/><text fill="#000000" font-family="sans-serif" font-size="12" font-style="italic" lengthAdjust="spacingAndGlyphs" textLength="36" x="157.75" y="27.1543">Entite</text><line style="stroke:#A80036;stroke-width:1.5;" x1="8" x2="311" y1="39" y2="39"/><ellipse cx="18" cy="50" fill="none" rx="3" ry="3" style="stroke:#038048;stroke-width:1.0;"/><text fill="#000000" font-family="sans-serif" font-size="11" lengthAdjust="spacingAndGlyphs" textLength="63" x="27" y="53.2104">nom: string</text><ellipse cx="18" cy="62.8047" fill="none" rx="3" ry="3" style="stroke:#038048;stroke-width:1.0;"/><text fill="#000000" font-family="sans-serif" font-size="11" lengthAdjust="spacingAndGlyphs" textLength="95" x="27" y="66.0151">totalVie: number</text><ellipse cx="18" cy="75.6094" fill="none" rx="3" ry="3" style="stroke:#038048;stroke-width:1.0;"/><text fill="#000000" font-family="sans-serif" font-size="11" lengthAdjust="spacingAndGlyphs" textLength="75" x="27" y="78.8198">guid: number</text><ellipse cx="18" cy="88.4141" fill="none" rx="3" ry="3" style="stroke:#038048;stroke-width:1.0;"/><text fill="#000000" font-family="sans-serif" font-size="11" lengthAdjust="spacingAndGlyphs" textLength="63" x="27" y="91.6245">salle: Salle</text><ellipse cx="18" cy="101.2188" fill="none" rx="3" ry="3" style="stroke:#038048;stroke-width:1.0;"/><text fill="#000000" font-family="sans-serif" font-size="11" lengthAdjust="spacingAndGlyphs" text-decoration="underline" textLength="88" x="27" y="104.4292">entites: Entite[]</text><line style="stroke:#A80036;stroke-width:1.5;" x1="8" x2="311" y1="111.0234" y2="111.0234"/><ellipse cx="18" cy="122.0234" fill="#84BE84" rx="3" ry="3" style="stroke:#038048;stroke-width:1.0;"/><text fill="#000000" font-family="sans-serif" font-size="11" lengthAdjust="spacingAndGlyphs" textLength="279" x="27" y="125.2339">remove(entites: number[], id: number): number[]</text><ellipse cx="18" cy="134.8281" fill="#84BE84" rx="3" ry="3" style="stroke:#038048;stroke-width:1.0;"/><text fill="#000000" font-family="sans-serif" font-size="11" font-style="italic" lengthAdjust="spacingAndGlyphs" textLength="71" x="27" y="138.0386">vue(): object</text><ellipse cx="18" cy="147.6328" fill="#84BE84" rx="3" ry="3" style="stroke:#038048;stroke-width:1.0;"/><text fill="#000000" font-family="sans-serif" font-size="11" lengthAdjust="spacingAndGlyphs" text-decoration="underline" textLength="186" x="27" y="150.8433">ajouterEntite(entite: Entite): void</text><!--MD5=[aba917d2fb3e03c8f126b542441dff29]
class EntiteNotFoundException--><rect codeLine="11" fill="#FEFECE" filter="url(#fw85g8s1ldl0a)" height="48" id="EntiteNotFoundException" style="stroke:#A80036;stroke-width:1.5;" width="181" x="304" y="300"/><ellipse cx="319" cy="316" fill="#ADD1B2" rx="11" ry="11" style="stroke:#A80036;stroke-width:1.0;"/><path d="M321.3438,311.6719 C320.4063,311.2344 319.8125,311.0938 318.9375,311.0938 C316.3125,311.0938 314.3125,313.1719 314.3125,315.8906 L314.3125,317.0156 C314.3125,319.5938 316.4219,321.4844 319.3125,321.4844 C320.5313,321.4844 321.6875,321.1875 322.4375,320.6406 C323.0156,320.2344 323.3438,319.7813 323.3438,319.3906 C323.3438,318.9375 322.9531,318.5469 322.4844,318.5469 C322.2656,318.5469 322.0625,318.625 321.875,318.8125 C321.4219,319.2969 321.4219,319.2969 321.2344,319.3906 C320.8125,319.6563 320.125,319.7813 319.3594,319.7813 C317.3125,319.7813 316.0156,318.6875 316.0156,316.9844 L316.0156,315.8906 C316.0156,314.1094 317.2656,312.7969 319,312.7969 C319.5781,312.7969 320.1875,312.9531 320.6563,313.2031 C321.1406,313.4844 321.3125,313.7031 321.4063,314.1094 C321.4688,314.5156 321.5,314.6406 321.6406,314.7656 C321.7813,314.9063 322.0156,315.0156 322.2344,315.0156 C322.5,315.0156 322.7656,314.875 322.9375,314.6563 C323.0469,314.5 323.0781,314.3125 323.0781,313.8906 L323.0781,312.4688 C323.0781,312.0313 323.0625,311.9063 322.9688,311.75 C322.8125,311.4844 322.5313,311.3438 322.2344,311.3438 C321.9375,311.3438 321.7344,311.4375 321.5156,311.75 L321.3438,311.6719 Z " fill="#000000"/><text fill="#000000" font-family="sans-serif" font-size="12" lengthAdjust="spacingAndGlyphs" textLength="149" x="333" y="320.1543">EntiteNotFoundException</text><line style="stroke:#A80036;stroke-width:1.5;" x1="305" x2="484" y1="332" y2="332"/><line style="stroke:#A80036;stroke-width:1.5;" x1="305" x2="484" y1="340" y2="340"/><!--MD5=[b8cfd8c4119a3b0a7a46bfc5fc780f85]
class Error--><rect fill="#FEFECE" filter="url(#fw85g8s1ldl0a)" height="48" id="Error" style="stroke:#A80036;stroke-width:1.5;" width="62" x="788.5" y="58"/><ellipse cx="803.5" cy="74" fill="#ADD1B2" rx="11" ry="11" style="stroke:#A80036;stroke-width:1.0;"/><path d="M805.8438,69.6719 C804.9063,69.2344 804.3125,69.0938 803.4375,69.0938 C800.8125,69.0938 798.8125,71.1719 798.8125,73.8906 L798.8125,75.0156 C798.8125,77.5938 800.9219,79.4844 803.8125,79.4844 C805.0313,79.4844 806.1875,79.1875 806.9375,78.6406 C807.5156,78.2344 807.8438,77.7813 807.8438,77.3906 C807.8438,76.9375 807.4531,76.5469 806.9844,76.5469 C806.7656,76.5469 806.5625,76.625 806.375,76.8125 C805.9219,77.2969 805.9219,77.2969 805.7344,77.3906 C805.3125,77.6563 804.625,77.7813 803.8594,77.7813 C801.8125,77.7813 800.5156,76.6875 800.5156,74.9844 L800.5156,73.8906 C800.5156,72.1094 801.7656,70.7969 803.5,70.7969 C804.0781,70.7969 804.6875,70.9531 805.1563,71.2031 C805.6406,71.4844 805.8125,71.7031 805.9063,72.1094 C805.9688,72.5156 806,72.6406 806.1406,72.7656 C806.2813,72.9063 806.5156,73.0156 806.7344,73.0156 C807,73.0156 807.2656,72.875 807.4375,72.6563 C807.5469,72.5 807.5781,72.3125 807.5781,71.8906 L807.5781,70.4688 C807.5781,70.0313 807.5625,69.9063 807.4688,69.75 C807.3125,69.4844 807.0313,69.3438 806.7344,69.3438 C806.4375,69.3438 806.2344,69.4375 806.0156,69.75 L805.8438,69.6719 Z " fill="#000000"/><text fill="#000000" font-family="sans-serif" font-size="12" lengthAdjust="spacingAndGlyphs" textLength="30" x="817.5" y="78.1543">Error</text><line style="stroke:#A80036;stroke-width:1.5;" x1="789.5" x2="849.5" y1="90" y2="90"/><line style="stroke:#A80036;stroke-width:1.5;" x1="789.5" x2="849.5" y1="98" y2="98"/><!--MD5=[f3c3218fb1e9140f424f70ee889ea84c]
class ObjectNotFoundException--><rect codeLine="12" fill="#FEFECE" filter="url(#fw85g8s1ldl0a)" height="48" id="ObjectNotFoundException" style="stroke:#A80036;stroke-width:1.5;" width="188" x="520.5" y="300"/><ellipse cx="535.5" cy="316" fill="#ADD1B2" rx="11" ry="11" style="stroke:#A80036;stroke-width:1.0;"/><path d="M537.8438,311.6719 C536.9063,311.2344 536.3125,311.0938 535.4375,311.0938 C532.8125,311.0938 530.8125,313.1719 530.8125,315.8906 L530.8125,317.0156 C530.8125,319.5938 532.9219,321.4844 535.8125,321.4844 C537.0313,321.4844 538.1875,321.1875 538.9375,320.6406 C539.5156,320.2344 539.8438,319.7813 539.8438,319.3906 C539.8438,318.9375 539.4531,318.5469 538.9844,318.5469 C538.7656,318.5469 538.5625,318.625 538.375,318.8125 C537.9219,319.2969 537.9219,319.2969 537.7344,319.3906 C537.3125,319.6563 536.625,319.7813 535.8594,319.7813 C533.8125,319.7813 532.5156,318.6875 532.5156,316.9844 L532.5156,315.8906 C532.5156,314.1094 533.7656,312.7969 535.5,312.7969 C536.0781,312.7969 536.6875,312.9531 537.1563,313.2031 C537.6406,313.4844 537.8125,313.7031 537.9063,314.1094 C537.9688,314.5156 538,314.6406 538.1406,314.7656 C538.2813,314.9063 538.5156,315.0156 538.7344,315.0156 C539,315.0156 539.2656,314.875 539.4375,314.6563 C539.5469,314.5 539.5781,314.3125 539.5781,313.8906 L539.5781,312.4688 C539.5781,312.0313 539.5625,311.9063 539.4688,311.75 C539.3125,311.4844 539.0313,311.3438 538.7344,311.3438 C538.4375,311.3438 538.2344,311.4375 538.0156,311.75 L537.8438,311.6719 Z " fill="#000000"/><text fill="#000000" font-family="sans-serif" font-size="12" lengthAdjust="spacingAndGlyphs" textLength="156" x="549.5" y="320.1543">ObjectNotFoundException</text><line style="stroke:#A80036;stroke-width:1.5;" x1="521.5" x2="707.5" y1="332" y2="332"/><line style="stroke:#A80036;stroke-width:1.5;" x1="521.5" x2="707.5" y1="340" y2="340"/><!--MD5=[96b3989871b5279a8981fb911260d86c]
class Hostile--><rect codeLine="13" fill="#FEFECE" filter="url(#fw85g8s1ldl0a)" height="214.4609" id="Hostile" style="stroke:#A80036;stroke-width:1.5;" width="219" x="50" y="217"/><ellipse cx="134.25" cy="233" fill="#ADD1B2" rx="11" ry="11" style="stroke:#A80036;stroke-width:1.0;"/><path d="M136.5938,228.6719 C135.6563,228.2344 135.0625,228.0938 134.1875,228.0938 C131.5625,228.0938 129.5625,230.1719 129.5625,232.8906 L129.5625,234.0156 C129.5625,236.5938 131.6719,238.4844 134.5625,238.4844 C135.7813,238.4844 136.9375,238.1875 137.6875,237.6406 C138.2656,237.2344 138.5938,236.7813 138.5938,236.3906 C138.5938,235.9375 138.2031,235.5469 137.7344,235.5469 C137.5156,235.5469 137.3125,235.625 137.125,235.8125 C136.6719,236.2969 136.6719,236.2969 136.4844,236.3906 C136.0625,236.6563 135.375,236.7813 134.6094,236.7813 C132.5625,236.7813 131.2656,235.6875 131.2656,233.9844 L131.2656,232.8906 C131.2656,231.1094 132.5156,229.7969 134.25,229.7969 C134.8281,229.7969 135.4375,229.9531 135.9063,230.2031 C136.3906,230.4844 136.5625,230.7031 136.6563,231.1094 C136.7188,231.5156 136.75,231.6406 136.8906,231.7656 C137.0313,231.9063 137.2656,232.0156 137.4844,232.0156 C137.75,232.0156 138.0156,231.875 138.1875,231.6563 C138.2969,231.5 138.3281,231.3125 138.3281,230.8906 L138.3281,229.4688 C138.3281,229.0313 138.3125,228.9063 138.2188,228.75 C138.0625,228.4844 137.7813,228.3438 137.4844,228.3438 C137.1875,228.3438 136.9844,228.4375 136.7656,228.75 L136.5938,228.6719 Z " fill="#000000"/><text fill="#000000" font-family="sans-serif" font-size="12" lengthAdjust="spacingAndGlyphs" textLength="42" x="154.75" y="237.1543">Hostile</text><line style="stroke:#A80036;stroke-width:1.5;" x1="51" x2="268" y1="249" y2="249"/><ellipse cx="61" cy="260" fill="none" rx="3" ry="3" style="stroke:#038048;stroke-width:1.0;"/><text fill="#000000" font-family="sans-serif" font-size="11" lengthAdjust="spacingAndGlyphs" textLength="93" x="70" y="263.2104">critique: number</text><ellipse cx="61" cy="272.8047" fill="none" rx="3" ry="3" style="stroke:#038048;stroke-width:1.0;"/><text fill="#000000" font-family="sans-serif" font-size="11" lengthAdjust="spacingAndGlyphs" textLength="99" x="70" y="276.0151">arme: Arme | null</text><ellipse cx="61" cy="285.6094" fill="none" rx="3" ry="3" style="stroke:#038048;stroke-width:1.0;"/><text fill="#000000" font-family="sans-serif" font-size="11" lengthAdjust="spacingAndGlyphs" textLength="65" x="70" y="288.8198">sac: Objet[]</text><ellipse cx="61" cy="298.4141" fill="none" rx="3" ry="3" style="stroke:#038048;stroke-width:1.0;"/><text fill="#000000" font-family="sans-serif" font-size="11" lengthAdjust="spacingAndGlyphs" textLength="63" x="70" y="301.6245">nom: string</text><ellipse cx="61" cy="311.2188" fill="none" rx="3" ry="3" style="stroke:#038048;stroke-width:1.0;"/><text fill="#000000" font-family="sans-serif" font-size="11" lengthAdjust="spacingAndGlyphs" textLength="95" x="70" y="314.4292">totalVie: number</text><ellipse cx="61" cy="324.0234" fill="none" rx="3" ry="3" style="stroke:#038048;stroke-width:1.0;"/><text fill="#000000" font-family="sans-serif" font-size="11" lengthAdjust="spacingAndGlyphs" textLength="80" x="70" y="327.2339">force: number</text><ellipse cx="61" cy="336.8281" fill="none" rx="3" ry="3" style="stroke:#038048;stroke-width:1.0;"/><text fill="#000000" font-family="sans-serif" font-size="11" lengthAdjust="spacingAndGlyphs" textLength="75" x="70" y="340.0386">guid: number</text><ellipse cx="61" cy="349.6328" fill="none" rx="3" ry="3" style="stroke:#038048;stroke-width:1.0;"/><text fill="#000000" font-family="sans-serif" font-size="11" lengthAdjust="spacingAndGlyphs" textLength="63" x="70" y="352.8433">salle: Salle</text><line style="stroke:#A80036;stroke-width:1.5;" x1="51" x2="268" y1="359.4375" y2="359.4375"/><ellipse cx="61" cy="370.4375" fill="#84BE84" rx="3" ry="3" style="stroke:#038048;stroke-width:1.0;"/><text fill="#000000" font-family="sans-serif" font-size="11" lengthAdjust="spacingAndGlyphs" textLength="192" x="70" y="373.6479">combattre(attaque: number): void</text><ellipse cx="61" cy="383.2422" fill="#84BE84" rx="3" ry="3" style="stroke:#038048;stroke-width:1.0;"/><text fill="#000000" font-family="sans-serif" font-size="11" lengthAdjust="spacingAndGlyphs" textLength="193" x="70" y="386.4526">attaquer(attaque: number): object</text><ellipse cx="61" cy="396.0469" fill="#84BE84" rx="3" ry="3" style="stroke:#038048;stroke-width:1.0;"/><text fill="#000000" font-family="sans-serif" font-size="11" lengthAdjust="spacingAndGlyphs" textLength="145" x="70" y="399.2573">utiliser(idx: number): void</text><ellipse cx="61" cy="408.8516" fill="#84BE84" rx="3" ry="3" style="stroke:#038048;stroke-width:1.0;"/><text fill="#000000" font-family="sans-serif" font-size="11" lengthAdjust="spacingAndGlyphs" textLength="97" x="70" y="412.062">deEquiper(): void</text><ellipse cx="61" cy="421.6563" fill="#84BE84" rx="3" ry="3" style="stroke:#038048;stroke-width:1.0;"/><text fill="#000000" font-family="sans-serif" font-size="11" lengthAdjust="spacingAndGlyphs" textLength="72" x="70" y="424.8667">vue(): object</text><!--MD5=[616299f142344228d442db1d4b54b5f3]
class Objet--><rect codeLine="28" fill="#FEFECE" filter="url(#fw85g8s1ldl0a)" height="124.8281" id="Objet" style="stroke:#A80036;stroke-width:1.5;" width="185" x="1700" y="19.5"/><ellipse cx="1772.25" cy="35.5" fill="#A9DCDF" rx="11" ry="11" style="stroke:#A80036;stroke-width:1.0;"/><path d="M1774.3281,37.3125 L1774.7188,38.2969 L1774.3281,38.2969 C1773.875,38.2969 1773.7656,38.3125 1773.6094,38.4219 C1773.3594,38.5781 1773.2031,38.8594 1773.2031,39.1563 C1773.2031,39.4219 1773.3438,39.6719 1773.5625,39.8281 C1773.7031,39.9531 1773.9063,40 1774.3281,40 L1776.6875,40 C1777.0469,40 1777.2656,39.9688 1777.4063,39.875 C1777.6563,39.7344 1777.8125,39.4375 1777.8125,39.1563 C1777.8125,38.875 1777.6719,38.625 1777.4531,38.4688 C1777.2813,38.3281 1777.125,38.2969 1776.6563,38.2969 L1773.2656,30.0938 L1769.5938,30.0938 C1769.1406,30.0938 1769.0156,30.1094 1768.8594,30.2031 C1768.6094,30.375 1768.4531,30.6563 1768.4531,30.9375 C1768.4531,31.2188 1768.5938,31.4688 1768.8125,31.6406 C1768.9844,31.75 1769.1563,31.7813 1769.5938,31.7813 L1770.6719,31.7813 L1768.0313,38.2969 C1767.6094,38.2969 1767.4531,38.3125 1767.2969,38.4219 C1767.0469,38.5781 1766.8906,38.8594 1766.8906,39.1563 C1766.8906,39.7188 1767.2656,40 1768.0156,40 L1770.2813,40 C1770.6406,40 1770.8594,39.9688 1770.9844,39.875 C1771.25,39.7344 1771.3906,39.4375 1771.3906,39.1563 C1771.3906,38.875 1771.2656,38.625 1771.0469,38.4531 C1770.875,38.3281 1770.7344,38.2969 1770.2813,38.2969 L1769.8906,38.2969 L1770.2813,37.3125 L1774.3281,37.3125 Z M1773.625,35.6094 L1770.9531,35.6094 L1772.2969,32.3438 L1773.625,35.6094 Z " fill="#000000"/><text fill="#000000" font-family="sans-serif" font-size="12" font-style="italic" lengthAdjust="spacingAndGlyphs" textLength="32" x="1792.75" y="39.6543">Objet</text><line style="stroke:#A80036;stroke-width:1.5;" x1="1701" x2="1884" y1="51.5" y2="51.5"/><ellipse cx="1711" cy="62.5" fill="none" rx="3" ry="3" style="stroke:#038048;stroke-width:1.0;"/><text fill="#000000" font-family="sans-serif" font-size="11" lengthAdjust="spacingAndGlyphs" textLength="63" x="1720" y="65.7104">nom: string</text><ellipse cx="1711" cy="75.3047" fill="none" rx="3" ry="3" style="stroke:#038048;stroke-width:1.0;"/><text fill="#000000" font-family="sans-serif" font-size="11" lengthAdjust="spacingAndGlyphs" textLength="72" x="1720" y="78.5151">prix: number</text><ellipse cx="1711" cy="88.1094" fill="none" rx="3" ry="3" style="stroke:#038048;stroke-width:1.0;"/><text fill="#000000" font-family="sans-serif" font-size="11" lengthAdjust="spacingAndGlyphs" textLength="100" x="1720" y="91.3198">description: string</text><line style="stroke:#A80036;stroke-width:1.5;" x1="1701" x2="1884" y1="97.9141" y2="97.9141"/><ellipse cx="1711" cy="108.9141" fill="#84BE84" rx="3" ry="3" style="stroke:#038048;stroke-width:1.0;"/><text fill="#000000" font-family="sans-serif" font-size="11" lengthAdjust="spacingAndGlyphs" textLength="159" x="1720" y="112.1245">vendre(joueur: Joueur): void</text><ellipse cx="1711" cy="121.7188" fill="#84BE84" rx="3" ry="3" style="stroke:#038048;stroke-width:1.0;"/><text fill="#000000" font-family="sans-serif" font-size="11" font-style="italic" lengthAdjust="spacingAndGlyphs" textLength="156" x="1720" y="124.9292">utilise(hostile: Hostile): void</text><ellipse cx="1711" cy="134.5234" fill="#84BE84" rx="3" ry="3" style="stroke:#038048;stroke-width:1.0;"/><text fill="#000000" font-family="sans-serif" font-size="11" font-style="italic" lengthAdjust="spacingAndGlyphs" textLength="71" x="1720" y="137.7339">vue(): object</text><!--MD5=[0e40145dcd0b5bb8a81ea75444240c9b]
class Arme--><rect codeLine="36" fill="#FEFECE" filter="url(#fw85g8s1ldl0a)" height="150.4375" id="Arme" style="stroke:#A80036;stroke-width:1.5;" width="203" x="1359" y="249"/><ellipse cx="1440.25" cy="265" fill="#ADD1B2" rx="11" ry="11" style="stroke:#A80036;stroke-width:1.0;"/><path d="M1442.5938,260.6719 C1441.6563,260.2344 1441.0625,260.0938 1440.1875,260.0938 C1437.5625,260.0938 1435.5625,262.1719 1435.5625,264.8906 L1435.5625,266.0156 C1435.5625,268.5938 1437.6719,270.4844 1440.5625,270.4844 C1441.7813,270.4844 1442.9375,270.1875 1443.6875,269.6406 C1444.2656,269.2344 1444.5938,268.7813 1444.5938,268.3906 C1444.5938,267.9375 1444.2031,267.5469 1443.7344,267.5469 C1443.5156,267.5469 1443.3125,267.625 1443.125,267.8125 C1442.6719,268.2969 1442.6719,268.2969 1442.4844,268.3906 C1442.0625,268.6563 1441.375,268.7813 1440.6094,268.7813 C1438.5625,268.7813 1437.2656,267.6875 1437.2656,265.9844 L1437.2656,264.8906 C1437.2656,263.1094 1438.5156,261.7969 1440.25,261.7969 C1440.8281,261.7969 1441.4375,261.9531 1441.9063,262.2031 C1442.3906,262.4844 1442.5625,262.7031 1442.6563,263.1094 C1442.7188,263.5156 1442.75,263.6406 1442.8906,263.7656 C1443.0313,263.9063 1443.2656,264.0156 1443.4844,264.0156 C1443.75,264.0156 1444.0156,263.875 1444.1875,263.6563 C1444.2969,263.5 1444.3281,263.3125 1444.3281,262.8906 L1444.3281,261.4688 C1444.3281,261.0313 1444.3125,260.9063 1444.2188,260.75 C1444.0625,260.4844 1443.7813,260.3438 1443.4844,260.3438 C1443.1875,260.3438 1442.9844,260.4375 1442.7656,260.75 L1442.5938,260.6719 Z " fill="#000000"/><text fill="#000000" font-family="sans-serif" font-size="12" lengthAdjust="spacingAndGlyphs" textLength="32" x="1460.75" y="269.1543">Arme</text><line style="stroke:#A80036;stroke-width:1.5;" x1="1360" x2="1561" y1="281" y2="281"/><ellipse cx="1370" cy="292" fill="none" rx="3" ry="3" style="stroke:#038048;stroke-width:1.0;"/><text fill="#000000" font-family="sans-serif" font-size="11" lengthAdjust="spacingAndGlyphs" textLength="63" x="1379" y="295.2104">nom: string</text><ellipse cx="1370" cy="304.8047" fill="none" rx="3" ry="3" style="stroke:#038048;stroke-width:1.0;"/><text fill="#000000" font-family="sans-serif" font-size="11" lengthAdjust="spacingAndGlyphs" textLength="72" x="1379" y="308.0151">prix: number</text><ellipse cx="1370" cy="317.6094" fill="none" rx="3" ry="3" style="stroke:#038048;stroke-width:1.0;"/><text fill="#000000" font-family="sans-serif" font-size="11" lengthAdjust="spacingAndGlyphs" textLength="84" x="1379" y="320.8198">degat: number</text><ellipse cx="1370" cy="330.4141" fill="none" rx="3" ry="3" style="stroke:#038048;stroke-width:1.0;"/><text fill="#000000" font-family="sans-serif" font-size="11" lengthAdjust="spacingAndGlyphs" textLength="100" x="1379" y="333.6245">description: string</text><line style="stroke:#A80036;stroke-width:1.5;" x1="1360" x2="1561" y1="340.2188" y2="340.2188"/><ellipse cx="1370" cy="351.2188" fill="#84BE84" rx="3" ry="3" style="stroke:#038048;stroke-width:1.0;"/><text fill="#000000" font-family="sans-serif" font-size="11" lengthAdjust="spacingAndGlyphs" textLength="157" x="1379" y="354.4292">utilise(hostile: Hostile): void</text><ellipse cx="1370" cy="364.0234" fill="#84BE84" rx="3" ry="3" style="stroke:#038048;stroke-width:1.0;"/><text fill="#000000" font-family="sans-serif" font-size="11" lengthAdjust="spacingAndGlyphs" textLength="163" x="1379" y="367.2339">equipe(hostile: Hostile): void</text><ellipse cx="1370" cy="376.8281" fill="#84BE84" rx="3" ry="3" style="stroke:#038048;stroke-width:1.0;"/><text fill="#000000" font-family="sans-serif" font-size="11" lengthAdjust="spacingAndGlyphs" textLength="177" x="1379" y="380.0386">deEquipe(hostile: Hostile): void</text><ellipse cx="1370" cy="389.6328" fill="#84BE84" rx="3" ry="3" style="stroke:#038048;stroke-width:1.0;"/><text fill="#000000" font-family="sans-serif" font-size="11" lengthAdjust="spacingAndGlyphs" textLength="72" x="1379" y="392.8433">vue(): object</text><!--MD5=[b17f251f85577685872bad37a8eaec44]
class PotionDeForce--><rect codeLine="46" fill="#FEFECE" filter="url(#fw85g8s1ldl0a)" height="124.8281" id="PotionDeForce" style="stroke:#A80036;stroke-width:1.5;" width="178" x="1597.5" y="261.5"/><ellipse cx="1638.6" cy="277.5" fill="#ADD1B2" rx="11" ry="11" style="stroke:#A80036;stroke-width:1.0;"/><path d="M1640.9438,273.1719 C1640.0063,272.7344 1639.4125,272.5938 1638.5375,272.5938 C1635.9125,272.5938 1633.9125,274.6719 1633.9125,277.3906 L1633.9125,278.5156 C1633.9125,281.0938 1636.0219,282.9844 1638.9125,282.9844 C1640.1313,282.9844 1641.2875,282.6875 1642.0375,282.1406 C1642.6156,281.7344 1642.9438,281.2813 1642.9438,280.8906 C1642.9438,280.4375 1642.5531,280.0469 1642.0844,280.0469 C1641.8656,280.0469 1641.6625,280.125 1641.475,280.3125 C1641.0219,280.7969 1641.0219,280.7969 1640.8344,280.8906 C1640.4125,281.1563 1639.725,281.2813 1638.9594,281.2813 C1636.9125,281.2813 1635.6156,280.1875 1635.6156,278.4844 L1635.6156,277.3906 C1635.6156,275.6094 1636.8656,274.2969 1638.6,274.2969 C1639.1781,274.2969 1639.7875,274.4531 1640.2563,274.7031 C1640.7406,274.9844 1640.9125,275.2031 1641.0063,275.6094 C1641.0688,276.0156 1641.1,276.1406 1641.2406,276.2656 C1641.3813,276.4063 1641.6156,276.5156 1641.8344,276.5156 C1642.1,276.5156 1642.3656,276.375 1642.5375,276.1563 C1642.6469,276 1642.6781,275.8125 1642.6781,275.3906 L1642.6781,273.9688 C1642.6781,273.5313 1642.6625,273.4063 1642.5688,273.25 C1642.4125,272.9844 1642.1313,272.8438 1641.8344,272.8438 C1641.5375,272.8438 1641.3344,272.9375 1641.1156,273.25 L1640.9438,273.1719 Z " fill="#000000"/><text fill="#000000" font-family="sans-serif" font-size="12" lengthAdjust="spacingAndGlyphs" textLength="88" x="1658.4" y="281.6543">PotionDeForce</text><line style="stroke:#A80036;stroke-width:1.5;" x1="1598.5" x2="1774.5" y1="293.5" y2="293.5"/><ellipse cx="1608.5" cy="304.5" fill="none" rx="3" ry="3" style="stroke:#038048;stroke-width:1.0;"/><text fill="#000000" font-family="sans-serif" font-size="11" lengthAdjust="spacingAndGlyphs" textLength="63" x="1617.5" y="307.7104">nom: string</text><ellipse cx="1608.5" cy="317.3047" fill="none" rx="3" ry="3" style="stroke:#038048;stroke-width:1.0;"/><text fill="#000000" font-family="sans-serif" font-size="11" lengthAdjust="spacingAndGlyphs" textLength="72" x="1617.5" y="320.5151">prix: number</text><ellipse cx="1608.5" cy="330.1094" fill="none" rx="3" ry="3" style="stroke:#038048;stroke-width:1.0;"/><text fill="#000000" font-family="sans-serif" font-size="11" lengthAdjust="spacingAndGlyphs" textLength="85" x="1617.5" y="333.3198">effect: number</text><ellipse cx="1608.5" cy="342.9141" fill="none" rx="3" ry="3" style="stroke:#038048;stroke-width:1.0;"/><text fill="#000000" font-family="sans-serif" font-size="11" lengthAdjust="spacingAndGlyphs" textLength="100" x="1617.5" y="346.1245">description: string</text><line style="stroke:#A80036;stroke-width:1.5;" x1="1598.5" x2="1774.5" y1="352.7188" y2="352.7188"/><ellipse cx="1608.5" cy="363.7188" fill="#84BE84" rx="3" ry="3" style="stroke:#038048;stroke-width:1.0;"/><text fill="#000000" font-family="sans-serif" font-size="11" lengthAdjust="spacingAndGlyphs" textLength="152" x="1617.5" y="366.9292">utilise(joueur: Joueur): void</text><ellipse cx="1608.5" cy="376.5234" fill="#84BE84" rx="3" ry="3" style="stroke:#038048;stroke-width:1.0;"/><text fill="#000000" font-family="sans-serif" font-size="11" lengthAdjust="spacingAndGlyphs" textLength="72" x="1617.5" y="379.7339">vue(): object</text><!--MD5=[e22129eb8960ccad542846e0143c8748]
class PotionDeVie--><rect codeLine="54" fill="#FEFECE" filter="url(#fw85g8s1ldl0a)" height="124.8281" id="PotionDeVie" style="stroke:#A80036;stroke-width:1.5;" width="178" x="1810.5" y="261.5"/><ellipse cx="1859.25" cy="277.5" fill="#ADD1B2" rx="11" ry="11" style="stroke:#A80036;stroke-width:1.0;"/><path d="M1861.5938,273.1719 C1860.6563,272.7344 1860.0625,272.5938 1859.1875,272.5938 C1856.5625,272.5938 1854.5625,274.6719 1854.5625,277.3906 L1854.5625,278.5156 C1854.5625,281.0938 1856.6719,282.9844 1859.5625,282.9844 C1860.7813,282.9844 1861.9375,282.6875 1862.6875,282.1406 C1863.2656,281.7344 1863.5938,281.2813 1863.5938,280.8906 C1863.5938,280.4375 1863.2031,280.0469 1862.7344,280.0469 C1862.5156,280.0469 1862.3125,280.125 1862.125,280.3125 C1861.6719,280.7969 1861.6719,280.7969 1861.4844,280.8906 C1861.0625,281.1563 1860.375,281.2813 1859.6094,281.2813 C1857.5625,281.2813 1856.2656,280.1875 1856.2656,278.4844 L1856.2656,277.3906 C1856.2656,275.6094 1857.5156,274.2969 1859.25,274.2969 C1859.8281,274.2969 1860.4375,274.4531 1860.9063,274.7031 C1861.3906,274.9844 1861.5625,275.2031 1861.6563,275.6094 C1861.7188,276.0156 1861.75,276.1406 1861.8906,276.2656 C1862.0313,276.4063 1862.2656,276.5156 1862.4844,276.5156 C1862.75,276.5156 1863.0156,276.375 1863.1875,276.1563 C1863.2969,276 1863.3281,275.8125 1863.3281,275.3906 L1863.3281,273.9688 C1863.3281,273.5313 1863.3125,273.4063 1863.2188,273.25 C1863.0625,272.9844 1862.7813,272.8438 1862.4844,272.8438 C1862.1875,272.8438 1861.9844,272.9375 1861.7656,273.25 L1861.5938,273.1719 Z " fill="#000000"/><text fill="#000000" font-family="sans-serif" font-size="12" lengthAdjust="spacingAndGlyphs" textLength="72" x="1879.75" y="281.6543">PotionDeVie</text><line style="stroke:#A80036;stroke-width:1.5;" x1="1811.5" x2="1987.5" y1="293.5" y2="293.5"/><ellipse cx="1821.5" cy="304.5" fill="none" rx="3" ry="3" style="stroke:#038048;stroke-width:1.0;"/><text fill="#000000" font-family="sans-serif" font-size="11" lengthAdjust="spacingAndGlyphs" textLength="63" x="1830.5" y="307.7104">nom: string</text><ellipse cx="1821.5" cy="317.3047" fill="none" rx="3" ry="3" style="stroke:#038048;stroke-width:1.0;"/><text fill="#000000" font-family="sans-serif" font-size="11" lengthAdjust="spacingAndGlyphs" textLength="72" x="1830.5" y="320.5151">prix: number</text><ellipse cx="1821.5" cy="330.1094" fill="none" rx="3" ry="3" style="stroke:#038048;stroke-width:1.0;"/><text fill="#000000" font-family="sans-serif" font-size="11" lengthAdjust="spacingAndGlyphs" textLength="85" x="1830.5" y="333.3198">effect: number</text><ellipse cx="1821.5" cy="342.9141" fill="none" rx="3" ry="3" style="stroke:#038048;stroke-width:1.0;"/><text fill="#000000" font-family="sans-serif" font-size="11" lengthAdjust="spacingAndGlyphs" textLength="100" x="1830.5" y="346.1245">description: string</text><line style="stroke:#A80036;stroke-width:1.5;" x1="1811.5" x2="1987.5" y1="352.7188" y2="352.7188"/><ellipse cx="1821.5" cy="363.7188" fill="#84BE84" rx="3" ry="3" style="stroke:#038048;stroke-width:1.0;"/><text fill="#000000" font-family="sans-serif" font-size="11" lengthAdjust="spacingAndGlyphs" textLength="152" x="1830.5" y="366.9292">utilise(joueur: Joueur): void</text><ellipse cx="1821.5" cy="376.5234" fill="#84BE84" rx="3" ry="3" style="stroke:#038048;stroke-width:1.0;"/><text fill="#000000" font-family="sans-serif" font-size="11" lengthAdjust="spacingAndGlyphs" textLength="72" x="1830.5" y="379.7339">vue(): object</text><!--MD5=[7d41168c07fdef390b78e3f41920d4aa]
class PotionCritique--><rect codeLine="62" fill="#FEFECE" filter="url(#fw85g8s1ldl0a)" height="124.8281" id="PotionCritique" style="stroke:#A80036;stroke-width:1.5;" width="178" x="2023.5" y="261.5"/><ellipse cx="2067.3" cy="277.5" fill="#ADD1B2" rx="11" ry="11" style="stroke:#A80036;stroke-width:1.0;"/><path d="M2069.6438,273.1719 C2068.7063,272.7344 2068.1125,272.5938 2067.2375,272.5938 C2064.6125,272.5938 2062.6125,274.6719 2062.6125,277.3906 L2062.6125,278.5156 C2062.6125,281.0938 2064.7219,282.9844 2067.6125,282.9844 C2068.8313,282.9844 2069.9875,282.6875 2070.7375,282.1406 C2071.3156,281.7344 2071.6438,281.2813 2071.6438,280.8906 C2071.6438,280.4375 2071.2531,280.0469 2070.7844,280.0469 C2070.5656,280.0469 2070.3625,280.125 2070.175,280.3125 C2069.7219,280.7969 2069.7219,280.7969 2069.5344,280.8906 C2069.1125,281.1563 2068.425,281.2813 2067.6594,281.2813 C2065.6125,281.2813 2064.3156,280.1875 2064.3156,278.4844 L2064.3156,277.3906 C2064.3156,275.6094 2065.5656,274.2969 2067.3,274.2969 C2067.8781,274.2969 2068.4875,274.4531 2068.9563,274.7031 C2069.4406,274.9844 2069.6125,275.2031 2069.7063,275.6094 C2069.7688,276.0156 2069.8,276.1406 2069.9406,276.2656 C2070.0813,276.4063 2070.3156,276.5156 2070.5344,276.5156 C2070.8,276.5156 2071.0656,276.375 2071.2375,276.1563 C2071.3469,276 2071.3781,275.8125 2071.3781,275.3906 L2071.3781,273.9688 C2071.3781,273.5313 2071.3625,273.4063 2071.2688,273.25 C2071.1125,272.9844 2070.8313,272.8438 2070.5344,272.8438 C2070.2375,272.8438 2070.0344,272.9375 2069.8156,273.25 L2069.6438,273.1719 Z " fill="#000000"/><text fill="#000000" font-family="sans-serif" font-size="12" lengthAdjust="spacingAndGlyphs" textLength="82" x="2087.7" y="281.6543">PotionCritique</text><line style="stroke:#A80036;stroke-width:1.5;" x1="2024.5" x2="2200.5" y1="293.5" y2="293.5"/><ellipse cx="2034.5" cy="304.5" fill="none" rx="3" ry="3" style="stroke:#038048;stroke-width:1.0;"/><text fill="#000000" font-family="sans-serif" font-size="11" lengthAdjust="spacingAndGlyphs" textLength="63" x="2043.5" y="307.7104">nom: string</text><ellipse cx="2034.5" cy="317.3047" fill="none" rx="3" ry="3" style="stroke:#038048;stroke-width:1.0;"/><text fill="#000000" font-family="sans-serif" font-size="11" lengthAdjust="spacingAndGlyphs" textLength="72" x="2043.5" y="320.5151">prix: number</text><ellipse cx="2034.5" cy="330.1094" fill="none" rx="3" ry="3" style="stroke:#038048;stroke-width:1.0;"/><text fill="#000000" font-family="sans-serif" font-size="11" lengthAdjust="spacingAndGlyphs" textLength="85" x="2043.5" y="333.3198">effect: number</text><ellipse cx="2034.5" cy="342.9141" fill="none" rx="3" ry="3" style="stroke:#038048;stroke-width:1.0;"/><text fill="#000000" font-family="sans-serif" font-size="11" lengthAdjust="spacingAndGlyphs" textLength="100" x="2043.5" y="346.1245">description: string</text><line style="stroke:#A80036;stroke-width:1.5;" x1="2024.5" x2="2200.5" y1="352.7188" y2="352.7188"/><ellipse cx="2034.5" cy="363.7188" fill="#84BE84" rx="3" ry="3" style="stroke:#038048;stroke-width:1.0;"/><text fill="#000000" font-family="sans-serif" font-size="11" lengthAdjust="spacingAndGlyphs" textLength="152" x="2043.5" y="366.9292">utilise(joueur: Joueur): void</text><ellipse cx="2034.5" cy="376.5234" fill="#84BE84" rx="3" ry="3" style="stroke:#038048;stroke-width:1.0;"/><text fill="#000000" font-family="sans-serif" font-size="11" lengthAdjust="spacingAndGlyphs" textLength="72" x="2043.5" y="379.7339">vue(): object</text><!--MD5=[9c44bef4398b9b819e757c850646d09b]
class Salle--><rect codeLine="70" fill="#FEFECE" filter="url(#fw85g8s1ldl0a)" height="150.4375" id="Salle" style="stroke:#A80036;stroke-width:1.5;" width="197" x="1920" y="7"/><ellipse cx="1999.75" cy="23" fill="#ADD1B2" rx="11" ry="11" style="stroke:#A80036;stroke-width:1.0;"/><path d="M2002.0938,18.6719 C2001.1563,18.2344 2000.5625,18.0938 1999.6875,18.0938 C1997.0625,18.0938 1995.0625,20.1719 1995.0625,22.8906 L1995.0625,24.0156 C1995.0625,26.5938 1997.1719,28.4844 2000.0625,28.4844 C2001.2813,28.4844 2002.4375,28.1875 2003.1875,27.6406 C2003.7656,27.2344 2004.0938,26.7813 2004.0938,26.3906 C2004.0938,25.9375 2003.7031,25.5469 2003.2344,25.5469 C2003.0156,25.5469 2002.8125,25.625 2002.625,25.8125 C2002.1719,26.2969 2002.1719,26.2969 2001.9844,26.3906 C2001.5625,26.6563 2000.875,26.7813 2000.1094,26.7813 C1998.0625,26.7813 1996.7656,25.6875 1996.7656,23.9844 L1996.7656,22.8906 C1996.7656,21.1094 1998.0156,19.7969 1999.75,19.7969 C2000.3281,19.7969 2000.9375,19.9531 2001.4063,20.2031 C2001.8906,20.4844 2002.0625,20.7031 2002.1563,21.1094 C2002.2188,21.5156 2002.25,21.6406 2002.3906,21.7656 C2002.5313,21.9063 2002.7656,22.0156 2002.9844,22.0156 C2003.25,22.0156 2003.5156,21.875 2003.6875,21.6563 C2003.7969,21.5 2003.8281,21.3125 2003.8281,20.8906 L2003.8281,19.4688 C2003.8281,19.0313 2003.8125,18.9063 2003.7188,18.75 C2003.5625,18.4844 2003.2813,18.3438 2002.9844,18.3438 C2002.6875,18.3438 2002.4844,18.4375 2002.2656,18.75 L2002.0938,18.6719 Z " fill="#000000"/><text fill="#000000" font-family="sans-serif" font-size="12" lengthAdjust="spacingAndGlyphs" textLength="29" x="2020.25" y="27.1543">Salle</text><line style="stroke:#A80036;stroke-width:1.5;" x1="1921" x2="2116" y1="39" y2="39"/><ellipse cx="1931" cy="50" fill="none" rx="3" ry="3" style="stroke:#038048;stroke-width:1.0;"/><text fill="#000000" font-family="sans-serif" font-size="11" lengthAdjust="spacingAndGlyphs" textLength="99" x="1940" y="53.2104">entites: number[]</text><ellipse cx="1931" cy="62.8047" fill="none" rx="3" ry="3" style="stroke:#038048;stroke-width:1.0;"/><text fill="#000000" font-family="sans-serif" font-size="11" lengthAdjust="spacingAndGlyphs" textLength="81" x="1940" y="66.0151">objets: Objet[]</text><ellipse cx="1931" cy="75.6094" fill="none" rx="3" ry="3" style="stroke:#038048;stroke-width:1.0;"/><text fill="#000000" font-family="sans-serif" font-size="11" lengthAdjust="spacingAndGlyphs" textLength="92" x="1940" y="78.8198">nomSalle: string</text><ellipse cx="1931" cy="88.4141" fill="none" rx="3" ry="3" style="stroke:#038048;stroke-width:1.0;"/><text fill="#000000" font-family="sans-serif" font-size="11" lengthAdjust="spacingAndGlyphs" textLength="171" x="1940" y="91.6245">passages: Map&lt;String, Salle&gt;</text><ellipse cx="1931" cy="101.2188" fill="none" rx="3" ry="3" style="stroke:#038048;stroke-width:1.0;"/><text fill="#000000" font-family="sans-serif" font-size="11" lengthAdjust="spacingAndGlyphs" textLength="100" x="1940" y="104.4292">description: string</text><ellipse cx="1931" cy="114.0234" fill="none" rx="3" ry="3" style="stroke:#038048;stroke-width:1.0;"/><text fill="#000000" font-family="sans-serif" font-size="11" lengthAdjust="spacingAndGlyphs" text-decoration="underline" textLength="82" x="1940" y="117.2339">donjon: Salle[]</text><line style="stroke:#A80036;stroke-width:1.5;" x1="1921" x2="2116" y1="123.8281" y2="123.8281"/><ellipse cx="1931" cy="134.8281" fill="#84BE84" rx="3" ry="3" style="stroke:#038048;stroke-width:1.0;"/><text fill="#000000" font-family="sans-serif" font-size="11" lengthAdjust="spacingAndGlyphs" textLength="72" x="1940" y="138.0386">vue(): object</text><ellipse cx="1931" cy="147.6328" fill="#84BE84" rx="3" ry="3" style="stroke:#038048;stroke-width:1.0;"/><text fill="#000000" font-family="sans-serif" font-size="11" lengthAdjust="spacingAndGlyphs" text-decoration="underline" textLength="132" x="1940" y="150.8433">inisialiserDonjon(): void</text><!--MD5=[14e67569c48c582aabc43f45291d3d01]
class NoAccessException--><rect codeLine="80" fill="#FEFECE" filter="url(#fw85g8s1ldl0a)" height="48" id="NoAccessException" style="stroke:#A80036;stroke-width:1.5;" width="151" x="744" y="300"/><ellipse cx="759" cy="316" fill="#ADD1B2" rx="11" ry="11" style="stroke:#A80036;stroke-width:1.0;"/><path d="M761.3438,311.6719 C760.4063,311.2344 759.8125,311.0938 758.9375,311.0938 C756.3125,311.0938 754.3125,313.1719 754.3125,315.8906 L754.3125,317.0156 C754.3125,319.5938 756.4219,321.4844 759.3125,321.4844 C760.5313,321.4844 761.6875,321.1875 762.4375,320.6406 C763.0156,320.2344 763.3438,319.7813 763.3438,319.3906 C763.3438,318.9375 762.9531,318.5469 762.4844,318.5469 C762.2656,318.5469 762.0625,318.625 761.875,318.8125 C761.4219,319.2969 761.4219,319.2969 761.2344,319.3906 C760.8125,319.6563 760.125,319.7813 759.3594,319.7813 C757.3125,319.7813 756.0156,318.6875 756.0156,316.9844 L756.0156,315.8906 C756.0156,314.1094 757.2656,312.7969 759,312.7969 C759.5781,312.7969 760.1875,312.9531 760.6563,313.2031 C761.1406,313.4844 761.3125,313.7031 761.4063,314.1094 C761.4688,314.5156 761.5,314.6406 761.6406,314.7656 C761.7813,314.9063 762.0156,315.0156 762.2344,315.0156 C762.5,315.0156 762.7656,314.875 762.9375,314.6563 C763.0469,314.5 763.0781,314.3125 763.0781,313.8906 L763.0781,312.4688 C763.0781,312.0313 763.0625,311.9063 762.9688,311.75 C762.8125,311.4844 762.5313,311.3438 762.2344,311.3438 C761.9375,311.3438 761.7344,311.4375 761.5156,311.75 L761.3438,311.6719 Z " fill="#000000"/><text fill="#000000" font-family="sans-serif" font-size="12" lengthAdjust="spacingAndGlyphs" textLength="119" x="773" y="320.1543">NoAccessException</text><line style="stroke:#A80036;stroke-width:1.5;" x1="745" x2="894" y1="332" y2="332"/><line style="stroke:#A80036;stroke-width:1.5;" x1="745" x2="894" y1="340" y2="340"/><!--MD5=[afd6f96bfbd2a9a5b2a3668450eef53c]
class JSONFieldException--><rect codeLine="81" fill="#FEFECE" filter="url(#fw85g8s1ldl0a)" height="48" id="JSONFieldException" style="stroke:#A80036;stroke-width:1.5;" width="150" x="930.5" y="300"/><ellipse cx="945.5" cy="316" fill="#ADD1B2" rx="11" ry="11" style="stroke:#A80036;stroke-width:1.0;"/><path d="M947.8438,311.6719 C946.9063,311.2344 946.3125,311.0938 945.4375,311.0938 C942.8125,311.0938 940.8125,313.1719 940.8125,315.8906 L940.8125,317.0156 C940.8125,319.5938 942.9219,321.4844 945.8125,321.4844 C947.0313,321.4844 948.1875,321.1875 948.9375,320.6406 C949.5156,320.2344 949.8438,319.7813 949.8438,319.3906 C949.8438,318.9375 949.4531,318.5469 948.9844,318.5469 C948.7656,318.5469 948.5625,318.625 948.375,318.8125 C947.9219,319.2969 947.9219,319.2969 947.7344,319.3906 C947.3125,319.6563 946.625,319.7813 945.8594,319.7813 C943.8125,319.7813 942.5156,318.6875 942.5156,316.9844 L942.5156,315.8906 C942.5156,314.1094 943.7656,312.7969 945.5,312.7969 C946.0781,312.7969 946.6875,312.9531 947.1563,313.2031 C947.6406,313.4844 947.8125,313.7031 947.9063,314.1094 C947.9688,314.5156 948,314.6406 948.1406,314.7656 C948.2813,314.9063 948.5156,315.0156 948.7344,315.0156 C949,315.0156 949.2656,314.875 949.4375,314.6563 C949.5469,314.5 949.5781,314.3125 949.5781,313.8906 L949.5781,312.4688 C949.5781,312.0313 949.5625,311.9063 949.4688,311.75 C949.3125,311.4844 949.0313,311.3438 948.7344,311.3438 C948.4375,311.3438 948.2344,311.4375 948.0156,311.75 L947.8438,311.6719 Z " fill="#000000"/><text fill="#000000" font-family="sans-serif" font-size="12" lengthAdjust="spacingAndGlyphs" textLength="118" x="959.5" y="320.1543">JSONFieldException</text><line style="stroke:#A80036;stroke-width:1.5;" x1="931.5" x2="1079.5" y1="332" y2="332"/><line style="stroke:#A80036;stroke-width:1.5;" x1="931.5" x2="1079.5" y1="340" y2="340"/><!--MD5=[f35b8d93951ba498799a84be5600c0ca]
class Joueur--><rect codeLine="82" fill="#FEFECE" filter="url(#fw85g8s1ldl0a)" height="176.0469" id="Joueur" style="stroke:#A80036;stroke-width:1.5;" width="228" x="45.5" y="491"/><ellipse cx="135.75" cy="507" fill="#ADD1B2" rx="11" ry="11" style="stroke:#A80036;stroke-width:1.0;"/><path d="M138.0938,502.6719 C137.1563,502.2344 136.5625,502.0938 135.6875,502.0938 C133.0625,502.0938 131.0625,504.1719 131.0625,506.8906 L131.0625,508.0156 C131.0625,510.5938 133.1719,512.4844 136.0625,512.4844 C137.2813,512.4844 138.4375,512.1875 139.1875,511.6406 C139.7656,511.2344 140.0938,510.7813 140.0938,510.3906 C140.0938,509.9375 139.7031,509.5469 139.2344,509.5469 C139.0156,509.5469 138.8125,509.625 138.625,509.8125 C138.1719,510.2969 138.1719,510.2969 137.9844,510.3906 C137.5625,510.6563 136.875,510.7813 136.1094,510.7813 C134.0625,510.7813 132.7656,509.6875 132.7656,507.9844 L132.7656,506.8906 C132.7656,505.1094 134.0156,503.7969 135.75,503.7969 C136.3281,503.7969 136.9375,503.9531 137.4063,504.2031 C137.8906,504.4844 138.0625,504.7031 138.1563,505.1094 C138.2188,505.5156 138.25,505.6406 138.3906,505.7656 C138.5313,505.9063 138.7656,506.0156 138.9844,506.0156 C139.25,506.0156 139.5156,505.875 139.6875,505.6563 C139.7969,505.5 139.8281,505.3125 139.8281,504.8906 L139.8281,503.4688 C139.8281,503.0313 139.8125,502.9063 139.7188,502.75 C139.5625,502.4844 139.2813,502.3438 138.9844,502.3438 C138.6875,502.3438 138.4844,502.4375 138.2656,502.75 L138.0938,502.6719 Z " fill="#000000"/><text fill="#000000" font-family="sans-serif" font-size="12" lengthAdjust="spacingAndGlyphs" textLength="39" x="156.25" y="511.1543">Joueur</text><line style="stroke:#A80036;stroke-width:1.5;" x1="46.5" x2="272.5" y1="523" y2="523"/><ellipse cx="56.5" cy="534" fill="none" rx="3" ry="3" style="stroke:#038048;stroke-width:1.0;"/><text fill="#000000" font-family="sans-serif" font-size="11" lengthAdjust="spacingAndGlyphs" textLength="62" x="65.5" y="537.2104">or: number</text><ellipse cx="56.5" cy="546.8047" fill="none" rx="3" ry="3" style="stroke:#038048;stroke-width:1.0;"/><text fill="#000000" font-family="sans-serif" font-size="11" lengthAdjust="spacingAndGlyphs" textLength="63" x="65.5" y="550.0151">nom: string</text><ellipse cx="56.5" cy="559.6094" fill="none" rx="3" ry="3" style="stroke:#038048;stroke-width:1.0;"/><text fill="#000000" font-family="sans-serif" font-size="11" lengthAdjust="spacingAndGlyphs" textLength="95" x="65.5" y="562.8198">totalVie: number</text><ellipse cx="56.5" cy="572.4141" fill="none" rx="3" ry="3" style="stroke:#038048;stroke-width:1.0;"/><text fill="#000000" font-family="sans-serif" font-size="11" lengthAdjust="spacingAndGlyphs" textLength="75" x="65.5" y="575.6245">guid: number</text><ellipse cx="56.5" cy="585.2188" fill="none" rx="3" ry="3" style="stroke:#038048;stroke-width:1.0;"/><text fill="#000000" font-family="sans-serif" font-size="11" lengthAdjust="spacingAndGlyphs" textLength="63" x="65.5" y="588.4292">salle: Salle</text><line style="stroke:#A80036;stroke-width:1.5;" x1="46.5" x2="272.5" y1="595.0234" y2="595.0234"/><ellipse cx="56.5" cy="606.0234" fill="#84BE84" rx="3" ry="3" style="stroke:#038048;stroke-width:1.0;"/><text fill="#000000" font-family="sans-serif" font-size="11" lengthAdjust="spacingAndGlyphs" textLength="176" x="65.5" y="609.2339">deplacer(direction: string): void</text><ellipse cx="56.5" cy="618.8281" fill="#84BE84" rx="3" ry="3" style="stroke:#038048;stroke-width:1.0;"/><text fill="#000000" font-family="sans-serif" font-size="11" lengthAdjust="spacingAndGlyphs" textLength="202" x="65.5" y="622.0386">observerEntite(idx: number): object</text><ellipse cx="56.5" cy="631.6328" fill="#84BE84" rx="3" ry="3" style="stroke:#038048;stroke-width:1.0;"/><text fill="#000000" font-family="sans-serif" font-size="11" lengthAdjust="spacingAndGlyphs" textLength="200" x="65.5" y="634.8433">observerObjet(idx: number): object</text><ellipse cx="56.5" cy="644.4375" fill="#84BE84" rx="3" ry="3" style="stroke:#038048;stroke-width:1.0;"/><text fill="#000000" font-family="sans-serif" font-size="11" lengthAdjust="spacingAndGlyphs" textLength="152" x="65.5" y="647.6479">prendre(idx: number): void</text><ellipse cx="56.5" cy="657.2422" fill="#84BE84" rx="3" ry="3" style="stroke:#038048;stroke-width:1.0;"/><text fill="#000000" font-family="sans-serif" font-size="11" lengthAdjust="spacingAndGlyphs" textLength="72" x="65.5" y="660.4526">vue(): object</text><!--MD5=[f8ce881941032a87c26787dfe3c65eb7]
class CommandNotFoundException--><rect codeLine="94" fill="#FEFECE" filter="url(#fw85g8s1ldl0a)" height="48" id="CommandNotFoundException" style="stroke:#A80036;stroke-width:1.5;" width="208" x="1115.5" y="300"/><ellipse cx="1130.5" cy="316" fill="#ADD1B2" rx="11" ry="11" style="stroke:#A80036;stroke-width:1.0;"/><path d="M1132.8438,311.6719 C1131.9063,311.2344 1131.3125,311.0938 1130.4375,311.0938 C1127.8125,311.0938 1125.8125,313.1719 1125.8125,315.8906 L1125.8125,317.0156 C1125.8125,319.5938 1127.9219,321.4844 1130.8125,321.4844 C1132.0313,321.4844 1133.1875,321.1875 1133.9375,320.6406 C1134.5156,320.2344 1134.8438,319.7813 1134.8438,319.3906 C1134.8438,318.9375 1134.4531,318.5469 1133.9844,318.5469 C1133.7656,318.5469 1133.5625,318.625 1133.375,318.8125 C1132.9219,319.2969 1132.9219,319.2969 1132.7344,319.3906 C1132.3125,319.6563 1131.625,319.7813 1130.8594,319.7813 C1128.8125,319.7813 1127.5156,318.6875 1127.5156,316.9844 L1127.5156,315.8906 C1127.5156,314.1094 1128.7656,312.7969 1130.5,312.7969 C1131.0781,312.7969 1131.6875,312.9531 1132.1563,313.2031 C1132.6406,313.4844 1132.8125,313.7031 1132.9063,314.1094 C1132.9688,314.5156 1133,314.6406 1133.1406,314.7656 C1133.2813,314.9063 1133.5156,315.0156 1133.7344,315.0156 C1134,315.0156 1134.2656,314.875 1134.4375,314.6563 C1134.5469,314.5 1134.5781,314.3125 1134.5781,313.8906 L1134.5781,312.4688 C1134.5781,312.0313 1134.5625,311.9063 1134.4688,311.75 C1134.3125,311.4844 1134.0313,311.3438 1133.7344,311.3438 C1133.4375,311.3438 1133.2344,311.4375 1133.0156,311.75 L1132.8438,311.6719 Z " fill="#000000"/><text fill="#000000" font-family="sans-serif" font-size="12" lengthAdjust="spacingAndGlyphs" textLength="176" x="1144.5" y="320.1543">CommandNotFoundException</text><line style="stroke:#A80036;stroke-width:1.5;" x1="1116.5" x2="1322.5" y1="332" y2="332"/><line style="stroke:#A80036;stroke-width:1.5;" x1="1116.5" x2="1322.5" y1="340" y2="340"/><!--MD5=[d2d75e1d971c26844baffa6dab6011e4]
reverse link Error to EntiteNotFoundException--><path d="M769.054,97.793 C703.967,118.293 588.856,159.431 502.5,217 C467.306,240.462 433.663,276.339 413.54,299.735 " fill="none" id="Error-backto-EntiteNotFoundException" style="stroke:#A80036;stroke-width:1.0;"/><polygon fill="none" points="767.154,91.054,788.328,91.868,771.268,104.436,767.154,91.054" style="stroke:#A80036;stroke-width:1.0;"/><!--MD5=[9aa3e15a2b76f6bc16109f964bd457ca]
reverse link Error to ObjectNotFoundException--><path d="M786.83,121.247 C743.886,171.524 669.766,258.298 634.398,299.705 " fill="none" id="Error-backto-ObjectNotFoundException" style="stroke:#A80036;stroke-width:1.0;"/><polygon fill="none" points="781.531,116.673,799.844,106.012,792.177,125.766,781.531,116.673" style="stroke:#A80036;stroke-width:1.0;"/><!--MD5=[4d011e42b55bf2ca5937cf5b94f8be46]
reverse link Entite to Hostile--><path d="M159.5,177.743 C159.5,190.596 159.5,203.854 159.5,216.89 " fill="none" id="Entite-backto-Hostile" style="stroke:#A80036;stroke-width:1.0;"/><polygon fill="none" points="152.5,177.294,159.5,157.294,166.5,177.294,152.5,177.294" style="stroke:#A80036;stroke-width:1.0;"/><!--MD5=[83d9534316df663dbcf195bada95aad6]
reverse link Objet to Arme--><path d="M1682.48,147.37 C1648.66,168.431 1611.84,192.689 1579.5,217 C1566.45,226.809 1553.1,237.727 1540.27,248.721 " fill="none" id="Objet-backto-Arme" style="stroke:#A80036;stroke-width:1.0;"/><polygon fill="none" points="1679.15,141.197,1699.85,136.664,1686.5,153.116,1679.15,141.197" style="stroke:#A80036;stroke-width:1.0;"/><!--MD5=[fb44a1aee253e7e95c0a947ba0ff3a1f]
reverse link Objet to PotionDeForce--><path d="M1756.92,163.549 C1742.82,195.486 1726.86,231.619 1713.71,261.403 " fill="none" id="Objet-backto-PotionDeForce" style="stroke:#A80036;stroke-width:1.0;"/><polygon fill="none" points="1750.72,160.273,1765.2,144.806,1763.53,165.929,1750.72,160.273" style="stroke:#A80036;stroke-width:1.0;"/><!--MD5=[4c01ea8bae8b732b167dacdb8498e38d]
reverse link Objet to PotionDeVie--><path d="M1828.21,163.099 C1842.5,195.147 1858.7,231.479 1872.04,261.403 " fill="none" id="Objet-backto-PotionDeVie" style="stroke:#A80036;stroke-width:1.0;"/><polygon fill="none" points="1821.81,165.923,1820.06,144.806,1834.59,160.222,1821.81,165.923" style="stroke:#A80036;stroke-width:1.0;"/><!--MD5=[0d83b541d114e10f8cd55577859b6bfe]
reverse link Objet to PotionCritique--><path d="M1900.11,155.507 C1900.91,156.007 1901.71,156.505 1902.5,157 C1947.78,185.243 1964.16,184.521 2006.5,217 C2023.74,230.226 2041.01,246.102 2056.46,261.491 " fill="none" id="Objet-backto-PotionCritique" style="stroke:#A80036;stroke-width:1.0;"/><polygon fill="none" points="1896.22,161.326,1883.12,144.672,1903.75,149.522,1896.22,161.326" style="stroke:#A80036;stroke-width:1.0;"/><!--MD5=[494a1780dc268d7fb400a3e0312c7077]
reverse link Error to NoAccessException--><path d="M819.5,126.268 C819.5,177.123 819.5,259.646 819.5,299.705 " fill="none" id="Error-backto-NoAccessException" style="stroke:#A80036;stroke-width:1.0;"/><polygon fill="none" points="812.5,126.012,819.5,106.012,826.5,126.012,812.5,126.012" style="stroke:#A80036;stroke-width:1.0;"/><!--MD5=[1adc217826e6dd4b0eeefe1cbc3ad3e6]
reverse link Error to JSONFieldException--><path d="M849.65,121.904 C888.689,172.276 955.496,258.478 987.446,299.705 " fill="none" id="Error-backto-JSONFieldException" style="stroke:#A80036;stroke-width:1.0;"/><polygon fill="none" points="844.053,126.109,837.334,106.012,855.119,117.533,844.053,126.109" style="stroke:#A80036;stroke-width:1.0;"/><!--MD5=[3e6b7e182ab965f7f75a3689cf52102a]
reverse link Hostile to Joueur--><path d="M159.5,451.384 C159.5,464.739 159.5,478.095 159.5,490.858 " fill="none" id="Hostile-backto-Joueur" style="stroke:#A80036;stroke-width:1.0;"/><polygon fill="none" points="152.5,451.195,159.5,431.195,166.5,451.195,152.5,451.195" style="stroke:#A80036;stroke-width:1.0;"/><!--MD5=[2168d9ba9801376d2c5c925b78e725fe]
reverse link Error to CommandNotFoundException--><path d="M869.472,102.336 C926.824,125.584 1022.61,167.692 1097.5,217 C1135,241.687 1173.28,276.922 1196.72,299.876 " fill="none" id="Error-backto-CommandNotFoundException" style="stroke:#A80036;stroke-width:1.0;"/><polygon fill="none" points="866.52,108.695,850.538,94.782,871.708,95.692,866.52,108.695" style="stroke:#A80036;stroke-width:1.0;"/><!--MD5=[9560284c2c1160cf33d0677a6384b34a]
@startuml
abstract class Entite {
    +nom: string
    +totalVie: number
    +guid: number
    +salle: Salle
    +remove(entites: number[], id: number): number[]
    +{abstract} vue(): object
    +{static} entites: Entite[]
    +{static} ajouterEntite(entite: Entite): void
}
class EntiteNotFoundException extends Error
class ObjectNotFoundException extends Error
class Hostile extends Entite {
    +critique: number
    +arme: Arme | null
    +sac: Objet[]
    +nom: string
    +totalVie: number
    +force: number
    +guid: number
    +salle: Salle
    +combattre(attaque: number): void
    +attaquer(attaque: number): object
    +utiliser(idx: number): void
    +deEquiper(): void
    +vue(): object
}
abstract class Objet {
    +nom: string
    +prix: number
    +description: string
    +vendre(joueur: Joueur): void
    +{abstract} utilise(hostile: Hostile): void
    +{abstract} vue(): object
}
class Arme extends Objet {
    +nom: string
    +prix: number
    +degat: number
    +description: string
    +utilise(hostile: Hostile): void
    +equipe(hostile: Hostile): void
    +deEquipe(hostile: Hostile): void
    +vue(): object
}
class PotionDeForce extends Objet {
    +nom: string
    +prix: number
    +effect: number
    +description: string
    +utilise(joueur: Joueur): void
    +vue(): object
}
class PotionDeVie extends Objet {
    +nom: string
    +prix: number
    +effect: number
    +description: string
    +utilise(joueur: Joueur): void
    +vue(): object
}
class PotionCritique extends Objet {
    +nom: string
    +prix: number
    +effect: number
    +description: string
    +utilise(joueur: Joueur): void
    +vue(): object
}
class Salle {
    +entites: number[]
    +objets: Objet[]
    +nomSalle: string
    +passages: Map<String, Salle>
    +description: string
    +vue(): object
    +{static} donjon: Salle[]
    +{static} inisialiserDonjon(): void
}
class NoAccessException extends Error
class JSONFieldException extends Error
class Joueur extends Hostile {
    +or: number
    +nom: string
    +totalVie: number
    +guid: number
    +salle: Salle
    +deplacer(direction: string): void
    +observerEntite(idx: number): object
    +observerObjet(idx: number): object
    +prendre(idx: number): void
    +vue(): object
}
class CommandNotFoundException extends Error
@enduml

PlantUML version 1.2020.27beta1(Unknown compile time)
(GPL source distribution)
Java Runtime: Java(TM) SE Runtime Environment
JVM: Java HotSpot(TM) 64-Bit Server VM
Default Encoding: UTF-8
Language: en
Country: US
--></g></svg>