<?xml version="1.0" encoding="UTF-8" standalone="no"?><svg xmlns="http://www.w3.org/2000/svg" xmlns:xlink="http://www.w3.org/1999/xlink" contentScriptType="application/ecmascript" contentStyleType="text/css" height="644px" preserveAspectRatio="none" style="width:1131px;height:644px;" version="1.1" viewBox="0 0 1131 644" width="1131px" zoomAndPan="magnify"><defs><filter height="300%" id="f1loal4hk5e753" width="300%" x="-1" y="-1"><feGaussianBlur result="blurOut" stdDeviation="2.0"/><feColorMatrix in="blurOut" result="blurOut2" type="matrix" values="0 0 0 0 0 0 0 0 0 0 0 0 0 0 0 0 0 0 .4 0"/><feOffset dx="4.0" dy="4.0" in="blurOut2" result="blurOut3"/><feBlend in="SourceGraphic" in2="blurOut3" mode="normal"/></filter></defs><g><!--MD5=[9c44bef4398b9b819e757c850646d09b]
class Salle--><rect codeLine="1" fill="#FEFECE" filter="url(#f1loal4hk5e753)" height="137.6328" id="Salle" style="stroke:#A80036;stroke-width:1.5;" width="149" x="7" y="7"/><ellipse cx="62.75" cy="23" fill="#ADD1B2" rx="11" ry="11" style="stroke:#A80036;stroke-width:1.0;"/><path d="M65.0938,18.6719 C64.1563,18.2344 63.5625,18.0938 62.6875,18.0938 C60.0625,18.0938 58.0625,20.1719 58.0625,22.8906 L58.0625,24.0156 C58.0625,26.5938 60.1719,28.4844 63.0625,28.4844 C64.2813,28.4844 65.4375,28.1875 66.1875,27.6406 C66.7656,27.2344 67.0938,26.7813 67.0938,26.3906 C67.0938,25.9375 66.7031,25.5469 66.2344,25.5469 C66.0156,25.5469 65.8125,25.625 65.625,25.8125 C65.1719,26.2969 65.1719,26.2969 64.9844,26.3906 C64.5625,26.6563 63.875,26.7813 63.1094,26.7813 C61.0625,26.7813 59.7656,25.6875 59.7656,23.9844 L59.7656,22.8906 C59.7656,21.1094 61.0156,19.7969 62.75,19.7969 C63.3281,19.7969 63.9375,19.9531 64.4063,20.2031 C64.8906,20.4844 65.0625,20.7031 65.1563,21.1094 C65.2188,21.5156 65.25,21.6406 65.3906,21.7656 C65.5313,21.9063 65.7656,22.0156 65.9844,22.0156 C66.25,22.0156 66.5156,21.875 66.6875,21.6563 C66.7969,21.5 66.8281,21.3125 66.8281,20.8906 L66.8281,19.4688 C66.8281,19.0313 66.8125,18.9063 66.7188,18.75 C66.5625,18.4844 66.2813,18.3438 65.9844,18.3438 C65.6875,18.3438 65.4844,18.4375 65.2656,18.75 L65.0938,18.6719 Z " fill="#000000"/><text fill="#000000" font-family="sans-serif" font-size="12" lengthAdjust="spacingAndGlyphs" textLength="29" x="83.25" y="27.1543">Salle</text><line style="stroke:#A80036;stroke-width:1.5;" x1="8" x2="155" y1="39" y2="39"/><ellipse cx="18" cy="50" fill="none" rx="3" ry="3" style="stroke:#038048;stroke-width:1.0;"/><text fill="#000000" font-family="sans-serif" font-size="11" lengthAdjust="spacingAndGlyphs" textLength="99" x="27" y="53.2104">entites: number[]</text><ellipse cx="18" cy="62.8047" fill="none" rx="3" ry="3" style="stroke:#038048;stroke-width:1.0;"/><text fill="#000000" font-family="sans-serif" font-size="11" lengthAdjust="spacingAndGlyphs" textLength="81" x="27" y="66.0151">objets: Objet[]</text><ellipse cx="18" cy="75.6094" fill="none" rx="3" ry="3" style="stroke:#038048;stroke-width:1.0;"/><text fill="#000000" font-family="sans-serif" font-size="11" lengthAdjust="spacingAndGlyphs" textLength="92" x="27" y="78.8198">nomSalle: string</text><ellipse cx="18" cy="88.4141" fill="none" rx="3" ry="3" style="stroke:#038048;stroke-width:1.0;"/><text fill="#000000" font-family="sans-serif" font-size="11" lengthAdjust="spacingAndGlyphs" textLength="100" x="27" y="91.6245">passages: string[]</text><ellipse cx="18" cy="101.2188" fill="none" rx="3" ry="3" style="stroke:#038048;stroke-width:1.0;"/><text fill="#000000" font-family="sans-serif" font-size="11" lengthAdjust="spacingAndGlyphs" textLength="123" x="27" y="104.4292">passagesId: number[]</text><ellipse cx="18" cy="114.0234" fill="none" rx="3" ry="3" style="stroke:#038048;stroke-width:1.0;"/><text fill="#000000" font-family="sans-serif" font-size="11" lengthAdjust="spacingAndGlyphs" textLength="100" x="27" y="117.2339">description: string</text><ellipse cx="18" cy="126.8281" fill="none" rx="3" ry="3" style="stroke:#038048;stroke-width:1.0;"/><text fill="#000000" font-family="sans-serif" font-size="11" lengthAdjust="spacingAndGlyphs" text-decoration="underline" textLength="82" x="27" y="130.0386">donjon: Salle[]</text><line style="stroke:#A80036;stroke-width:1.5;" x1="8" x2="155" y1="136.6328" y2="136.6328"/><!--MD5=[2bbec844ebd31f726303561be2fafbd2]
class Entite--><rect codeLine="10" fill="#FEFECE" filter="url(#f1loal4hk5e753)" height="137.6328" id="Entite" style="stroke:#A80036;stroke-width:1.5;" width="305" x="191" y="7"/><ellipse cx="321.25" cy="23" fill="#A9DCDF" rx="11" ry="11" style="stroke:#A80036;stroke-width:1.0;"/><path d="M323.3281,24.8125 L323.7188,25.7969 L323.3281,25.7969 C322.875,25.7969 322.7656,25.8125 322.6094,25.9219 C322.3594,26.0781 322.2031,26.3594 322.2031,26.6563 C322.2031,26.9219 322.3438,27.1719 322.5625,27.3281 C322.7031,27.4531 322.9063,27.5 323.3281,27.5 L325.6875,27.5 C326.0469,27.5 326.2656,27.4688 326.4063,27.375 C326.6563,27.2344 326.8125,26.9375 326.8125,26.6563 C326.8125,26.375 326.6719,26.125 326.4531,25.9688 C326.2813,25.8281 326.125,25.7969 325.6563,25.7969 L322.2656,17.5938 L318.5938,17.5938 C318.1406,17.5938 318.0156,17.6094 317.8594,17.7031 C317.6094,17.875 317.4531,18.1563 317.4531,18.4375 C317.4531,18.7188 317.5938,18.9688 317.8125,19.1406 C317.9844,19.25 318.1563,19.2813 318.5938,19.2813 L319.6719,19.2813 L317.0313,25.7969 C316.6094,25.7969 316.4531,25.8125 316.2969,25.9219 C316.0469,26.0781 315.8906,26.3594 315.8906,26.6563 C315.8906,27.2188 316.2656,27.5 317.0156,27.5 L319.2813,27.5 C319.6406,27.5 319.8594,27.4688 319.9844,27.375 C320.25,27.2344 320.3906,26.9375 320.3906,26.6563 C320.3906,26.375 320.2656,26.125 320.0469,25.9531 C319.875,25.8281 319.7344,25.7969 319.2813,25.7969 L318.8906,25.7969 L319.2813,24.8125 L323.3281,24.8125 Z M322.625,23.1094 L319.9531,23.1094 L321.2969,19.8438 L322.625,23.1094 Z " fill="#000000"/><text fill="#000000" font-family="sans-serif" font-size="12" font-style="italic" lengthAdjust="spacingAndGlyphs" textLength="36" x="341.75" y="27.1543">Entite</text><line style="stroke:#A80036;stroke-width:1.5;" x1="192" x2="495" y1="39" y2="39"/><ellipse cx="202" cy="50" fill="none" rx="3" ry="3" style="stroke:#038048;stroke-width:1.0;"/><text fill="#000000" font-family="sans-serif" font-size="11" lengthAdjust="spacingAndGlyphs" textLength="63" x="211" y="53.2104">nom: string</text><ellipse cx="202" cy="62.8047" fill="none" rx="3" ry="3" style="stroke:#038048;stroke-width:1.0;"/><text fill="#000000" font-family="sans-serif" font-size="11" lengthAdjust="spacingAndGlyphs" textLength="95" x="211" y="66.0151">totalVie: number</text><ellipse cx="202" cy="75.6094" fill="none" rx="3" ry="3" style="stroke:#038048;stroke-width:1.0;"/><text fill="#000000" font-family="sans-serif" font-size="11" lengthAdjust="spacingAndGlyphs" textLength="75" x="211" y="78.8198">guid: number</text><ellipse cx="202" cy="88.4141" fill="none" rx="3" ry="3" style="stroke:#038048;stroke-width:1.0;"/><text fill="#000000" font-family="sans-serif" font-size="11" lengthAdjust="spacingAndGlyphs" textLength="63" x="211" y="91.6245">salle: Salle</text><ellipse cx="202" cy="101.2188" fill="none" rx="3" ry="3" style="stroke:#038048;stroke-width:1.0;"/><text fill="#000000" font-family="sans-serif" font-size="11" lengthAdjust="spacingAndGlyphs" text-decoration="underline" textLength="88" x="211" y="104.4292">entites: Entite[]</text><line style="stroke:#A80036;stroke-width:1.5;" x1="192" x2="495" y1="111.0234" y2="111.0234"/><ellipse cx="202" cy="122.0234" fill="#84BE84" rx="3" ry="3" style="stroke:#038048;stroke-width:1.0;"/><text fill="#000000" font-family="sans-serif" font-size="11" lengthAdjust="spacingAndGlyphs" textLength="279" x="211" y="125.2339">remove(entites: number[], id: number): number[]</text><ellipse cx="202" cy="134.8281" fill="#84BE84" rx="3" ry="3" style="stroke:#038048;stroke-width:1.0;"/><text fill="#000000" font-family="sans-serif" font-size="11" lengthAdjust="spacingAndGlyphs" text-decoration="underline" textLength="186" x="211" y="138.0386">ajouterEntite(entite: Entite): void</text><!--MD5=[96b3989871b5279a8981fb911260d86c]
class Hostile--><rect codeLine="19" fill="#FEFECE" filter="url(#f1loal4hk5e753)" height="201.6563" id="Hostile" style="stroke:#A80036;stroke-width:1.5;" width="218" x="234.5" y="205"/><ellipse cx="318.25" cy="221" fill="#ADD1B2" rx="11" ry="11" style="stroke:#A80036;stroke-width:1.0;"/><path d="M320.5938,216.6719 C319.6563,216.2344 319.0625,216.0938 318.1875,216.0938 C315.5625,216.0938 313.5625,218.1719 313.5625,220.8906 L313.5625,222.0156 C313.5625,224.5938 315.6719,226.4844 318.5625,226.4844 C319.7813,226.4844 320.9375,226.1875 321.6875,225.6406 C322.2656,225.2344 322.5938,224.7813 322.5938,224.3906 C322.5938,223.9375 322.2031,223.5469 321.7344,223.5469 C321.5156,223.5469 321.3125,223.625 321.125,223.8125 C320.6719,224.2969 320.6719,224.2969 320.4844,224.3906 C320.0625,224.6563 319.375,224.7813 318.6094,224.7813 C316.5625,224.7813 315.2656,223.6875 315.2656,221.9844 L315.2656,220.8906 C315.2656,219.1094 316.5156,217.7969 318.25,217.7969 C318.8281,217.7969 319.4375,217.9531 319.9063,218.2031 C320.3906,218.4844 320.5625,218.7031 320.6563,219.1094 C320.7188,219.5156 320.75,219.6406 320.8906,219.7656 C321.0313,219.9063 321.2656,220.0156 321.4844,220.0156 C321.75,220.0156 322.0156,219.875 322.1875,219.6563 C322.2969,219.5 322.3281,219.3125 322.3281,218.8906 L322.3281,217.4688 C322.3281,217.0313 322.3125,216.9063 322.2188,216.75 C322.0625,216.4844 321.7813,216.3438 321.4844,216.3438 C321.1875,216.3438 320.9844,216.4375 320.7656,216.75 L320.5938,216.6719 Z " fill="#000000"/><text fill="#000000" font-family="sans-serif" font-size="12" lengthAdjust="spacingAndGlyphs" textLength="42" x="338.75" y="225.1543">Hostile</text><line style="stroke:#A80036;stroke-width:1.5;" x1="235.5" x2="451.5" y1="237" y2="237"/><ellipse cx="245.5" cy="248" fill="none" rx="3" ry="3" style="stroke:#038048;stroke-width:1.0;"/><text fill="#000000" font-family="sans-serif" font-size="11" lengthAdjust="spacingAndGlyphs" textLength="93" x="254.5" y="251.2104">critique: number</text><ellipse cx="245.5" cy="260.8047" fill="none" rx="3" ry="3" style="stroke:#038048;stroke-width:1.0;"/><text fill="#000000" font-family="sans-serif" font-size="11" lengthAdjust="spacingAndGlyphs" textLength="99" x="254.5" y="264.0151">arme: Arme | null</text><ellipse cx="245.5" cy="273.6094" fill="none" rx="3" ry="3" style="stroke:#038048;stroke-width:1.0;"/><text fill="#000000" font-family="sans-serif" font-size="11" lengthAdjust="spacingAndGlyphs" textLength="65" x="254.5" y="276.8198">sac: Objet[]</text><ellipse cx="245.5" cy="286.4141" fill="none" rx="3" ry="3" style="stroke:#038048;stroke-width:1.0;"/><text fill="#000000" font-family="sans-serif" font-size="11" lengthAdjust="spacingAndGlyphs" textLength="63" x="254.5" y="289.6245">nom: string</text><ellipse cx="245.5" cy="299.2188" fill="none" rx="3" ry="3" style="stroke:#038048;stroke-width:1.0;"/><text fill="#000000" font-family="sans-serif" font-size="11" lengthAdjust="spacingAndGlyphs" textLength="95" x="254.5" y="302.4292">totalVie: number</text><ellipse cx="245.5" cy="312.0234" fill="none" rx="3" ry="3" style="stroke:#038048;stroke-width:1.0;"/><text fill="#000000" font-family="sans-serif" font-size="11" lengthAdjust="spacingAndGlyphs" textLength="80" x="254.5" y="315.2339">force: number</text><ellipse cx="245.5" cy="324.8281" fill="none" rx="3" ry="3" style="stroke:#038048;stroke-width:1.0;"/><text fill="#000000" font-family="sans-serif" font-size="11" lengthAdjust="spacingAndGlyphs" textLength="75" x="254.5" y="328.0386">guid: number</text><ellipse cx="245.5" cy="337.6328" fill="none" rx="3" ry="3" style="stroke:#038048;stroke-width:1.0;"/><text fill="#000000" font-family="sans-serif" font-size="11" lengthAdjust="spacingAndGlyphs" textLength="63" x="254.5" y="340.8433">salle: Salle</text><line style="stroke:#A80036;stroke-width:1.5;" x1="235.5" x2="451.5" y1="347.4375" y2="347.4375"/><ellipse cx="245.5" cy="358.4375" fill="#84BE84" rx="3" ry="3" style="stroke:#038048;stroke-width:1.0;"/><text fill="#000000" font-family="sans-serif" font-size="11" lengthAdjust="spacingAndGlyphs" textLength="192" x="254.5" y="361.6479">combattre(attaque: number): void</text><ellipse cx="245.5" cy="371.2422" fill="#84BE84" rx="3" ry="3" style="stroke:#038048;stroke-width:1.0;"/><text fill="#000000" font-family="sans-serif" font-size="11" lengthAdjust="spacingAndGlyphs" textLength="182" x="254.5" y="374.4526">attaquer(attaque: number): void</text><ellipse cx="245.5" cy="384.0469" fill="#84BE84" rx="3" ry="3" style="stroke:#038048;stroke-width:1.0;"/><text fill="#000000" font-family="sans-serif" font-size="11" lengthAdjust="spacingAndGlyphs" textLength="145" x="254.5" y="387.2573">utiliser(idx: number): void</text><ellipse cx="245.5" cy="396.8516" fill="#84BE84" rx="3" ry="3" style="stroke:#038048;stroke-width:1.0;"/><text fill="#000000" font-family="sans-serif" font-size="11" lengthAdjust="spacingAndGlyphs" textLength="97" x="254.5" y="400.062">deEquiper(): void</text><!--MD5=[f35b8d93951ba498799a84be5600c0ca]
class Joueur--><rect codeLine="33" fill="#FEFECE" filter="url(#f1loal4hk5e753)" height="163.2422" id="Joueur" style="stroke:#A80036;stroke-width:1.5;" width="295" x="196" y="467"/><ellipse cx="319.75" cy="483" fill="#ADD1B2" rx="11" ry="11" style="stroke:#A80036;stroke-width:1.0;"/><path d="M322.0938,478.6719 C321.1563,478.2344 320.5625,478.0938 319.6875,478.0938 C317.0625,478.0938 315.0625,480.1719 315.0625,482.8906 L315.0625,484.0156 C315.0625,486.5938 317.1719,488.4844 320.0625,488.4844 C321.2813,488.4844 322.4375,488.1875 323.1875,487.6406 C323.7656,487.2344 324.0938,486.7813 324.0938,486.3906 C324.0938,485.9375 323.7031,485.5469 323.2344,485.5469 C323.0156,485.5469 322.8125,485.625 322.625,485.8125 C322.1719,486.2969 322.1719,486.2969 321.9844,486.3906 C321.5625,486.6563 320.875,486.7813 320.1094,486.7813 C318.0625,486.7813 316.7656,485.6875 316.7656,483.9844 L316.7656,482.8906 C316.7656,481.1094 318.0156,479.7969 319.75,479.7969 C320.3281,479.7969 320.9375,479.9531 321.4063,480.2031 C321.8906,480.4844 322.0625,480.7031 322.1563,481.1094 C322.2188,481.5156 322.25,481.6406 322.3906,481.7656 C322.5313,481.9063 322.7656,482.0156 322.9844,482.0156 C323.25,482.0156 323.5156,481.875 323.6875,481.6563 C323.7969,481.5 323.8281,481.3125 323.8281,480.8906 L323.8281,479.4688 C323.8281,479.0313 323.8125,478.9063 323.7188,478.75 C323.5625,478.4844 323.2813,478.3438 322.9844,478.3438 C322.6875,478.3438 322.4844,478.4375 322.2656,478.75 L322.0938,478.6719 Z " fill="#000000"/><text fill="#000000" font-family="sans-serif" font-size="12" lengthAdjust="spacingAndGlyphs" textLength="39" x="340.25" y="487.1543">Joueur</text><line style="stroke:#A80036;stroke-width:1.5;" x1="197" x2="490" y1="499" y2="499"/><ellipse cx="207" cy="510" fill="none" rx="3" ry="3" style="stroke:#038048;stroke-width:1.0;"/><text fill="#000000" font-family="sans-serif" font-size="11" lengthAdjust="spacingAndGlyphs" textLength="62" x="216" y="513.2104">or: number</text><ellipse cx="207" cy="522.8047" fill="none" rx="3" ry="3" style="stroke:#038048;stroke-width:1.0;"/><text fill="#000000" font-family="sans-serif" font-size="11" lengthAdjust="spacingAndGlyphs" textLength="63" x="216" y="526.0151">nom: string</text><ellipse cx="207" cy="535.6094" fill="none" rx="3" ry="3" style="stroke:#038048;stroke-width:1.0;"/><text fill="#000000" font-family="sans-serif" font-size="11" lengthAdjust="spacingAndGlyphs" textLength="95" x="216" y="538.8198">totalVie: number</text><ellipse cx="207" cy="548.4141" fill="none" rx="3" ry="3" style="stroke:#038048;stroke-width:1.0;"/><text fill="#000000" font-family="sans-serif" font-size="11" lengthAdjust="spacingAndGlyphs" textLength="75" x="216" y="551.6245">guid: number</text><ellipse cx="207" cy="561.2188" fill="none" rx="3" ry="3" style="stroke:#038048;stroke-width:1.0;"/><text fill="#000000" font-family="sans-serif" font-size="11" lengthAdjust="spacingAndGlyphs" textLength="63" x="216" y="564.4292">salle: Salle</text><line style="stroke:#A80036;stroke-width:1.5;" x1="197" x2="490" y1="571.0234" y2="571.0234"/><ellipse cx="207" cy="582.0234" fill="#84BE84" rx="3" ry="3" style="stroke:#038048;stroke-width:1.0;"/><text fill="#000000" font-family="sans-serif" font-size="11" lengthAdjust="spacingAndGlyphs" textLength="176" x="216" y="585.2339">deplacer(direction: string): void</text><ellipse cx="207" cy="594.8281" fill="#84BE84" rx="3" ry="3" style="stroke:#038048;stroke-width:1.0;"/><text fill="#000000" font-family="sans-serif" font-size="11" lengthAdjust="spacingAndGlyphs" textLength="269" x="216" y="598.0386">observerEntite(idx: number): Entite | undefined</text><ellipse cx="207" cy="607.6328" fill="#84BE84" rx="3" ry="3" style="stroke:#038048;stroke-width:1.0;"/><text fill="#000000" font-family="sans-serif" font-size="11" lengthAdjust="spacingAndGlyphs" textLength="265" x="216" y="610.8433">observerObjet(idx: number): Objet | undefined</text><ellipse cx="207" cy="620.4375" fill="#84BE84" rx="3" ry="3" style="stroke:#038048;stroke-width:1.0;"/><text fill="#000000" font-family="sans-serif" font-size="11" lengthAdjust="spacingAndGlyphs" textLength="152" x="216" y="623.6479">prendre(idx: number): void</text><!--MD5=[616299f142344228d442db1d4b54b5f3]
class Objet--><rect codeLine="44" fill="#FEFECE" filter="url(#f1loal4hk5e753)" height="99.2188" id="Objet" style="stroke:#A80036;stroke-width:1.5;" width="185" x="723" y="26.5"/><ellipse cx="795.25" cy="42.5" fill="#A9DCDF" rx="11" ry="11" style="stroke:#A80036;stroke-width:1.0;"/><path d="M797.3281,44.3125 L797.7188,45.2969 L797.3281,45.2969 C796.875,45.2969 796.7656,45.3125 796.6094,45.4219 C796.3594,45.5781 796.2031,45.8594 796.2031,46.1563 C796.2031,46.4219 796.3438,46.6719 796.5625,46.8281 C796.7031,46.9531 796.9063,47 797.3281,47 L799.6875,47 C800.0469,47 800.2656,46.9688 800.4063,46.875 C800.6563,46.7344 800.8125,46.4375 800.8125,46.1563 C800.8125,45.875 800.6719,45.625 800.4531,45.4688 C800.2813,45.3281 800.125,45.2969 799.6563,45.2969 L796.2656,37.0938 L792.5938,37.0938 C792.1406,37.0938 792.0156,37.1094 791.8594,37.2031 C791.6094,37.375 791.4531,37.6563 791.4531,37.9375 C791.4531,38.2188 791.5938,38.4688 791.8125,38.6406 C791.9844,38.75 792.1563,38.7813 792.5938,38.7813 L793.6719,38.7813 L791.0313,45.2969 C790.6094,45.2969 790.4531,45.3125 790.2969,45.4219 C790.0469,45.5781 789.8906,45.8594 789.8906,46.1563 C789.8906,46.7188 790.2656,47 791.0156,47 L793.2813,47 C793.6406,47 793.8594,46.9688 793.9844,46.875 C794.25,46.7344 794.3906,46.4375 794.3906,46.1563 C794.3906,45.875 794.2656,45.625 794.0469,45.4531 C793.875,45.3281 793.7344,45.2969 793.2813,45.2969 L792.8906,45.2969 L793.2813,44.3125 L797.3281,44.3125 Z M796.625,42.6094 L793.9531,42.6094 L795.2969,39.3438 L796.625,42.6094 Z " fill="#000000"/><text fill="#000000" font-family="sans-serif" font-size="12" font-style="italic" lengthAdjust="spacingAndGlyphs" textLength="32" x="815.75" y="46.6543">Objet</text><line style="stroke:#A80036;stroke-width:1.5;" x1="724" x2="907" y1="58.5" y2="58.5"/><ellipse cx="734" cy="69.5" fill="none" rx="3" ry="3" style="stroke:#038048;stroke-width:1.0;"/><text fill="#000000" font-family="sans-serif" font-size="11" lengthAdjust="spacingAndGlyphs" textLength="63" x="743" y="72.7104">nom: string</text><ellipse cx="734" cy="82.3047" fill="none" rx="3" ry="3" style="stroke:#038048;stroke-width:1.0;"/><text fill="#000000" font-family="sans-serif" font-size="11" lengthAdjust="spacingAndGlyphs" textLength="72" x="743" y="85.5151">prix: number</text><line style="stroke:#A80036;stroke-width:1.5;" x1="724" x2="907" y1="92.1094" y2="92.1094"/><ellipse cx="734" cy="103.1094" fill="#84BE84" rx="3" ry="3" style="stroke:#038048;stroke-width:1.0;"/><text fill="#000000" font-family="sans-serif" font-size="11" lengthAdjust="spacingAndGlyphs" textLength="159" x="743" y="106.3198">vendre(joueur: Joueur): void</text><ellipse cx="734" cy="115.9141" fill="#84BE84" rx="3" ry="3" style="stroke:#038048;stroke-width:1.0;"/><text fill="#000000" font-family="sans-serif" font-size="11" font-style="italic" lengthAdjust="spacingAndGlyphs" textLength="156" x="743" y="119.1245">utilise(hostile: Hostile): void</text><!--MD5=[0e40145dcd0b5bb8a81ea75444240c9b]
class Arme--><rect codeLine="50" fill="#FEFECE" filter="url(#f1loal4hk5e753)" height="124.8281" id="Arme" style="stroke:#A80036;stroke-width:1.5;" width="203" x="488" y="243.5"/><ellipse cx="569.25" cy="259.5" fill="#ADD1B2" rx="11" ry="11" style="stroke:#A80036;stroke-width:1.0;"/><path d="M571.5938,255.1719 C570.6563,254.7344 570.0625,254.5938 569.1875,254.5938 C566.5625,254.5938 564.5625,256.6719 564.5625,259.3906 L564.5625,260.5156 C564.5625,263.0938 566.6719,264.9844 569.5625,264.9844 C570.7813,264.9844 571.9375,264.6875 572.6875,264.1406 C573.2656,263.7344 573.5938,263.2813 573.5938,262.8906 C573.5938,262.4375 573.2031,262.0469 572.7344,262.0469 C572.5156,262.0469 572.3125,262.125 572.125,262.3125 C571.6719,262.7969 571.6719,262.7969 571.4844,262.8906 C571.0625,263.1563 570.375,263.2813 569.6094,263.2813 C567.5625,263.2813 566.2656,262.1875 566.2656,260.4844 L566.2656,259.3906 C566.2656,257.6094 567.5156,256.2969 569.25,256.2969 C569.8281,256.2969 570.4375,256.4531 570.9063,256.7031 C571.3906,256.9844 571.5625,257.2031 571.6563,257.6094 C571.7188,258.0156 571.75,258.1406 571.8906,258.2656 C572.0313,258.4063 572.2656,258.5156 572.4844,258.5156 C572.75,258.5156 573.0156,258.375 573.1875,258.1563 C573.2969,258 573.3281,257.8125 573.3281,257.3906 L573.3281,255.9688 C573.3281,255.5313 573.3125,255.4063 573.2188,255.25 C573.0625,254.9844 572.7813,254.8438 572.4844,254.8438 C572.1875,254.8438 571.9844,254.9375 571.7656,255.25 L571.5938,255.1719 Z " fill="#000000"/><text fill="#000000" font-family="sans-serif" font-size="12" lengthAdjust="spacingAndGlyphs" textLength="32" x="589.75" y="263.6543">Arme</text><line style="stroke:#A80036;stroke-width:1.5;" x1="489" x2="690" y1="275.5" y2="275.5"/><ellipse cx="499" cy="286.5" fill="none" rx="3" ry="3" style="stroke:#038048;stroke-width:1.0;"/><text fill="#000000" font-family="sans-serif" font-size="11" lengthAdjust="spacingAndGlyphs" textLength="63" x="508" y="289.7104">nom: string</text><ellipse cx="499" cy="299.3047" fill="none" rx="3" ry="3" style="stroke:#038048;stroke-width:1.0;"/><text fill="#000000" font-family="sans-serif" font-size="11" lengthAdjust="spacingAndGlyphs" textLength="72" x="508" y="302.5151">prix: number</text><ellipse cx="499" cy="312.1094" fill="none" rx="3" ry="3" style="stroke:#038048;stroke-width:1.0;"/><text fill="#000000" font-family="sans-serif" font-size="11" lengthAdjust="spacingAndGlyphs" textLength="84" x="508" y="315.3198">degat: number</text><line style="stroke:#A80036;stroke-width:1.5;" x1="489" x2="690" y1="321.9141" y2="321.9141"/><ellipse cx="499" cy="332.9141" fill="#84BE84" rx="3" ry="3" style="stroke:#038048;stroke-width:1.0;"/><text fill="#000000" font-family="sans-serif" font-size="11" lengthAdjust="spacingAndGlyphs" textLength="157" x="508" y="336.1245">utilise(hostile: Hostile): void</text><ellipse cx="499" cy="345.7188" fill="#84BE84" rx="3" ry="3" style="stroke:#038048;stroke-width:1.0;"/><text fill="#000000" font-family="sans-serif" font-size="11" lengthAdjust="spacingAndGlyphs" textLength="163" x="508" y="348.9292">equipe(hostile: Hostile): void</text><ellipse cx="499" cy="358.5234" fill="#84BE84" rx="3" ry="3" style="stroke:#038048;stroke-width:1.0;"/><text fill="#000000" font-family="sans-serif" font-size="11" lengthAdjust="spacingAndGlyphs" textLength="177" x="508" y="361.7339">deEquipe(hostile: Hostile): void</text><!--MD5=[e22129eb8960ccad542846e0143c8748]
class PotionDeVie--><rect codeLine="58" fill="#FEFECE" filter="url(#f1loal4hk5e753)" height="99.2188" id="PotionDeVie" style="stroke:#A80036;stroke-width:1.5;" width="178" x="726.5" y="256.5"/><ellipse cx="775.25" cy="272.5" fill="#ADD1B2" rx="11" ry="11" style="stroke:#A80036;stroke-width:1.0;"/><path d="M777.5938,268.1719 C776.6563,267.7344 776.0625,267.5938 775.1875,267.5938 C772.5625,267.5938 770.5625,269.6719 770.5625,272.3906 L770.5625,273.5156 C770.5625,276.0938 772.6719,277.9844 775.5625,277.9844 C776.7813,277.9844 777.9375,277.6875 778.6875,277.1406 C779.2656,276.7344 779.5938,276.2813 779.5938,275.8906 C779.5938,275.4375 779.2031,275.0469 778.7344,275.0469 C778.5156,275.0469 778.3125,275.125 778.125,275.3125 C777.6719,275.7969 777.6719,275.7969 777.4844,275.8906 C777.0625,276.1563 776.375,276.2813 775.6094,276.2813 C773.5625,276.2813 772.2656,275.1875 772.2656,273.4844 L772.2656,272.3906 C772.2656,270.6094 773.5156,269.2969 775.25,269.2969 C775.8281,269.2969 776.4375,269.4531 776.9063,269.7031 C777.3906,269.9844 777.5625,270.2031 777.6563,270.6094 C777.7188,271.0156 777.75,271.1406 777.8906,271.2656 C778.0313,271.4063 778.2656,271.5156 778.4844,271.5156 C778.75,271.5156 779.0156,271.375 779.1875,271.1563 C779.2969,271 779.3281,270.8125 779.3281,270.3906 L779.3281,268.9688 C779.3281,268.5313 779.3125,268.4063 779.2188,268.25 C779.0625,267.9844 778.7813,267.8438 778.4844,267.8438 C778.1875,267.8438 777.9844,267.9375 777.7656,268.25 L777.5938,268.1719 Z " fill="#000000"/><text fill="#000000" font-family="sans-serif" font-size="12" lengthAdjust="spacingAndGlyphs" textLength="72" x="795.75" y="276.6543">PotionDeVie</text><line style="stroke:#A80036;stroke-width:1.5;" x1="727.5" x2="903.5" y1="288.5" y2="288.5"/><ellipse cx="737.5" cy="299.5" fill="none" rx="3" ry="3" style="stroke:#038048;stroke-width:1.0;"/><text fill="#000000" font-family="sans-serif" font-size="11" lengthAdjust="spacingAndGlyphs" textLength="63" x="746.5" y="302.7104">nom: string</text><ellipse cx="737.5" cy="312.3047" fill="none" rx="3" ry="3" style="stroke:#038048;stroke-width:1.0;"/><text fill="#000000" font-family="sans-serif" font-size="11" lengthAdjust="spacingAndGlyphs" textLength="72" x="746.5" y="315.5151">prix: number</text><ellipse cx="737.5" cy="325.1094" fill="none" rx="3" ry="3" style="stroke:#038048;stroke-width:1.0;"/><text fill="#000000" font-family="sans-serif" font-size="11" lengthAdjust="spacingAndGlyphs" textLength="85" x="746.5" y="328.3198">effect: number</text><line style="stroke:#A80036;stroke-width:1.5;" x1="727.5" x2="903.5" y1="334.9141" y2="334.9141"/><ellipse cx="737.5" cy="345.9141" fill="#84BE84" rx="3" ry="3" style="stroke:#038048;stroke-width:1.0;"/><text fill="#000000" font-family="sans-serif" font-size="11" lengthAdjust="spacingAndGlyphs" textLength="152" x="746.5" y="349.1245">utilise(joueur: Joueur): void</text><!--MD5=[b17f251f85577685872bad37a8eaec44]
class PotionDeForce--><rect codeLine="64" fill="#FEFECE" filter="url(#f1loal4hk5e753)" height="99.2188" id="PotionDeForce" style="stroke:#A80036;stroke-width:1.5;" width="178" x="939.5" y="256.5"/><ellipse cx="980.6" cy="272.5" fill="#ADD1B2" rx="11" ry="11" style="stroke:#A80036;stroke-width:1.0;"/><path d="M982.9438,268.1719 C982.0063,267.7344 981.4125,267.5938 980.5375,267.5938 C977.9125,267.5938 975.9125,269.6719 975.9125,272.3906 L975.9125,273.5156 C975.9125,276.0938 978.0219,277.9844 980.9125,277.9844 C982.1313,277.9844 983.2875,277.6875 984.0375,277.1406 C984.6156,276.7344 984.9438,276.2813 984.9438,275.8906 C984.9438,275.4375 984.5531,275.0469 984.0844,275.0469 C983.8656,275.0469 983.6625,275.125 983.475,275.3125 C983.0219,275.7969 983.0219,275.7969 982.8344,275.8906 C982.4125,276.1563 981.725,276.2813 980.9594,276.2813 C978.9125,276.2813 977.6156,275.1875 977.6156,273.4844 L977.6156,272.3906 C977.6156,270.6094 978.8656,269.2969 980.6,269.2969 C981.1781,269.2969 981.7875,269.4531 982.2563,269.7031 C982.7406,269.9844 982.9125,270.2031 983.0063,270.6094 C983.0688,271.0156 983.1,271.1406 983.2406,271.2656 C983.3813,271.4063 983.6156,271.5156 983.8344,271.5156 C984.1,271.5156 984.3656,271.375 984.5375,271.1563 C984.6469,271 984.6781,270.8125 984.6781,270.3906 L984.6781,268.9688 C984.6781,268.5313 984.6625,268.4063 984.5688,268.25 C984.4125,267.9844 984.1313,267.8438 983.8344,267.8438 C983.5375,267.8438 983.3344,267.9375 983.1156,268.25 L982.9438,268.1719 Z " fill="#000000"/><text fill="#000000" font-family="sans-serif" font-size="12" lengthAdjust="spacingAndGlyphs" textLength="88" x="1000.4" y="276.6543">PotionDeForce</text><line style="stroke:#A80036;stroke-width:1.5;" x1="940.5" x2="1116.5" y1="288.5" y2="288.5"/><ellipse cx="950.5" cy="299.5" fill="none" rx="3" ry="3" style="stroke:#038048;stroke-width:1.0;"/><text fill="#000000" font-family="sans-serif" font-size="11" lengthAdjust="spacingAndGlyphs" textLength="63" x="959.5" y="302.7104">nom: string</text><ellipse cx="950.5" cy="312.3047" fill="none" rx="3" ry="3" style="stroke:#038048;stroke-width:1.0;"/><text fill="#000000" font-family="sans-serif" font-size="11" lengthAdjust="spacingAndGlyphs" textLength="72" x="959.5" y="315.5151">prix: number</text><ellipse cx="950.5" cy="325.1094" fill="none" rx="3" ry="3" style="stroke:#038048;stroke-width:1.0;"/><text fill="#000000" font-family="sans-serif" font-size="11" lengthAdjust="spacingAndGlyphs" textLength="85" x="959.5" y="328.3198">effect: number</text><line style="stroke:#A80036;stroke-width:1.5;" x1="940.5" x2="1116.5" y1="334.9141" y2="334.9141"/><ellipse cx="950.5" cy="345.9141" fill="#84BE84" rx="3" ry="3" style="stroke:#038048;stroke-width:1.0;"/><text fill="#000000" font-family="sans-serif" font-size="11" lengthAdjust="spacingAndGlyphs" textLength="152" x="959.5" y="349.1245">utilise(joueur: Joueur): void</text><!--MD5=[4d011e42b55bf2ca5937cf5b94f8be46]
reverse link Entite to Hostile--><path d="M343.5,165.516 C343.5,178.385 343.5,191.711 343.5,204.79 " fill="none" id="Entite-backto-Hostile" style="stroke:#A80036;stroke-width:1.0;"/><polygon fill="none" points="336.5,165.099,343.5,145.099,350.5,165.099,336.5,165.099" style="stroke:#A80036;stroke-width:1.0;"/><!--MD5=[3e6b7e182ab965f7f75a3689cf52102a]
reverse link Hostile to Joueur--><path d="M343.5,427.424 C343.5,440.77 343.5,454.113 343.5,466.796 " fill="none" id="Hostile-backto-Joueur" style="stroke:#A80036;stroke-width:1.0;"/><polygon fill="none" points="336.5,427.252,343.5,407.252,350.5,427.252,336.5,427.252" style="stroke:#A80036;stroke-width:1.0;"/><!--MD5=[83d9534316df663dbcf195bada95aad6]
reverse link Objet to Arme--><path d="M753.131,139.921 C721.151,172.184 682.351,211.327 650.561,243.399 " fill="none" id="Objet-backto-Arme" style="stroke:#A80036;stroke-width:1.0;"/><polygon fill="none" points="748.243,134.908,767.295,125.632,758.186,144.764,748.243,134.908" style="stroke:#A80036;stroke-width:1.0;"/><!--MD5=[4c01ea8bae8b732b167dacdb8498e38d]
reverse link Objet to PotionDeVie--><path d="M815.5,145.706 C815.5,181.416 815.5,224.208 815.5,256.443 " fill="none" id="Objet-backto-PotionDeVie" style="stroke:#A80036;stroke-width:1.0;"/><polygon fill="none" points="808.5,145.632,815.5,125.632,822.5,145.632,808.5,145.632" style="stroke:#A80036;stroke-width:1.0;"/><!--MD5=[fb44a1aee253e7e95c0a947ba0ff3a1f]
reverse link Objet to PotionDeForce--><path d="M874.596,140.258 C908.911,176.989 951.475,222.551 983.137,256.443 " fill="none" id="Objet-backto-PotionDeForce" style="stroke:#A80036;stroke-width:1.0;"/><polygon fill="none" points="869.471,145.025,860.933,125.632,879.701,135.468,869.471,145.025" style="stroke:#A80036;stroke-width:1.0;"/><!--MD5=[c68afb25f49d16d2513a1b99a6982c90]
@startuml
class Salle {
    +entites: number[]
    +objets: Objet[]
    +nomSalle: string
    +passages: string[]
    +passagesId: number[]
    +description: string
    +{static} donjon: Salle[]
}
abstract class Entite {
    +nom: string
    +totalVie: number
    +guid: number
    +salle: Salle
    +remove(entites: number[], id: number): number[]
    +{static} entites: Entite[]
    +{static} ajouterEntite(entite: Entite): void
}
class Hostile extends Entite {
    +critique: number
    +arme: Arme | null
    +sac: Objet[]
    +nom: string
    +totalVie: number
    +force: number
    +guid: number
    +salle: Salle
    +combattre(attaque: number): void
    +attaquer(attaque: number): void
    +utiliser(idx: number): void
    +deEquiper(): void
}
class Joueur extends Hostile {
    +or: number
    +nom: string
    +totalVie: number
    +guid: number
    +salle: Salle
    +deplacer(direction: string): void
    +observerEntite(idx: number): Entite | undefined
    +observerObjet(idx: number): Objet | undefined
    +prendre(idx: number): void
}
abstract class Objet {
    +nom: string
    +prix: number
    +vendre(joueur: Joueur): void
    +{abstract} utilise(hostile: Hostile): void
}
class Arme extends Objet {
    +nom: string
    +prix: number
    +degat: number
    +utilise(hostile: Hostile): void
    +equipe(hostile: Hostile): void
    +deEquipe(hostile: Hostile): void
}
class PotionDeVie extends Objet {
    +nom: string
    +prix: number
    +effect: number
    +utilise(joueur: Joueur): void
}
class PotionDeForce extends Objet {
    +nom: string
    +prix: number
    +effect: number
    +utilise(joueur: Joueur): void
}
@enduml

PlantUML version 1.2020.22beta3(Unknown compile time)
(GPL source distribution)
Java Runtime: Java(TM) SE Runtime Environment
JVM: Java HotSpot(TM) 64-Bit Server VM
Default Encoding: UTF-8
Language: en
Country: US
--></g></svg>