<?xml version="1.0" encoding="UTF-8" standalone="no"?><svg xmlns="http://www.w3.org/2000/svg" xmlns:xlink="http://www.w3.org/1999/xlink" contentScriptType="application/ecmascript" contentStyleType="text/css" height="458px" preserveAspectRatio="none" style="width:604px;height:458px;" version="1.1" viewBox="0 0 604 458" width="604px" zoomAndPan="magnify"><defs><filter height="300%" id="f12z2wmo8am3gp" width="300%" x="-1" y="-1"><feGaussianBlur result="blurOut" stdDeviation="2.0"/><feColorMatrix in="blurOut" result="blurOut2" type="matrix" values="0 0 0 0 0 0 0 0 0 0 0 0 0 0 0 0 0 0 .4 0"/><feOffset dx="4.0" dy="4.0" in="blurOut2" result="blurOut3"/><feBlend in="SourceGraphic" in2="blurOut3" mode="normal"/></filter></defs><g><!--MD5=[f910dcc6a6ad647eda0c891310b4c6d1]
class Entitee--><rect codeLine="1" fill="#FEFECE" filter="url(#f12z2wmo8am3gp)" height="73.6094" id="Entitee" style="stroke:#A80036;stroke-width:1.5;" width="95" x="80.5" y="45"/><ellipse cx="105.4" cy="61" fill="#ADD1B2" rx="11" ry="11" style="stroke:#A80036;stroke-width:1.0;"/><path d="M107.7438,56.6719 C106.8063,56.2344 106.2125,56.0938 105.3375,56.0938 C102.7125,56.0938 100.7125,58.1719 100.7125,60.8906 L100.7125,62.0156 C100.7125,64.5938 102.8219,66.4844 105.7125,66.4844 C106.9313,66.4844 108.0875,66.1875 108.8375,65.6406 C109.4156,65.2344 109.7438,64.7813 109.7438,64.3906 C109.7438,63.9375 109.3531,63.5469 108.8844,63.5469 C108.6656,63.5469 108.4625,63.625 108.275,63.8125 C107.8219,64.2969 107.8219,64.2969 107.6344,64.3906 C107.2125,64.6563 106.525,64.7813 105.7594,64.7813 C103.7125,64.7813 102.4156,63.6875 102.4156,61.9844 L102.4156,60.8906 C102.4156,59.1094 103.6656,57.7969 105.4,57.7969 C105.9781,57.7969 106.5875,57.9531 107.0563,58.2031 C107.5406,58.4844 107.7125,58.7031 107.8063,59.1094 C107.8688,59.5156 107.9,59.6406 108.0406,59.7656 C108.1813,59.9063 108.4156,60.0156 108.6344,60.0156 C108.9,60.0156 109.1656,59.875 109.3375,59.6563 C109.4469,59.5 109.4781,59.3125 109.4781,58.8906 L109.4781,57.4688 C109.4781,57.0313 109.4625,56.9063 109.3688,56.75 C109.2125,56.4844 108.9313,56.3438 108.6344,56.3438 C108.3375,56.3438 108.1344,56.4375 107.9156,56.75 L107.7438,56.6719 Z " fill="#000000"/><text fill="#000000" font-family="sans-serif" font-size="12" lengthAdjust="spacingAndGlyphs" textLength="41" x="121.6" y="65.1543">Entitee</text><line style="stroke:#A80036;stroke-width:1.5;" x1="81.5" x2="174.5" y1="77" y2="77"/><ellipse cx="91.5" cy="88" fill="none" rx="3" ry="3" style="stroke:#038048;stroke-width:1.0;"/><text fill="#000000" font-family="sans-serif" font-size="11" lengthAdjust="spacingAndGlyphs" textLength="63" x="100.5" y="91.2104">nom: string</text><ellipse cx="91.5" cy="100.8047" fill="none" rx="3" ry="3" style="stroke:#038048;stroke-width:1.0;"/><text fill="#000000" font-family="sans-serif" font-size="11" lengthAdjust="spacingAndGlyphs" textLength="69" x="100.5" y="104.0151">vie: number</text><line style="stroke:#A80036;stroke-width:1.5;" x1="81.5" x2="174.5" y1="110.6094" y2="110.6094"/><!--MD5=[9c44bef4398b9b819e757c850646d09b]
class Salle--><rect codeLine="5" fill="#FEFECE" filter="url(#f12z2wmo8am3gp)" height="150.4375" id="Salle" style="stroke:#A80036;stroke-width:1.5;" width="152" x="211" y="7"/><ellipse cx="268.25" cy="23" fill="#ADD1B2" rx="11" ry="11" style="stroke:#A80036;stroke-width:1.0;"/><path d="M270.5938,18.6719 C269.6563,18.2344 269.0625,18.0938 268.1875,18.0938 C265.5625,18.0938 263.5625,20.1719 263.5625,22.8906 L263.5625,24.0156 C263.5625,26.5938 265.6719,28.4844 268.5625,28.4844 C269.7813,28.4844 270.9375,28.1875 271.6875,27.6406 C272.2656,27.2344 272.5938,26.7813 272.5938,26.3906 C272.5938,25.9375 272.2031,25.5469 271.7344,25.5469 C271.5156,25.5469 271.3125,25.625 271.125,25.8125 C270.6719,26.2969 270.6719,26.2969 270.4844,26.3906 C270.0625,26.6563 269.375,26.7813 268.6094,26.7813 C266.5625,26.7813 265.2656,25.6875 265.2656,23.9844 L265.2656,22.8906 C265.2656,21.1094 266.5156,19.7969 268.25,19.7969 C268.8281,19.7969 269.4375,19.9531 269.9063,20.2031 C270.3906,20.4844 270.5625,20.7031 270.6563,21.1094 C270.7188,21.5156 270.75,21.6406 270.8906,21.7656 C271.0313,21.9063 271.2656,22.0156 271.4844,22.0156 C271.75,22.0156 272.0156,21.875 272.1875,21.6563 C272.2969,21.5 272.3281,21.3125 272.3281,20.8906 L272.3281,19.4688 C272.3281,19.0313 272.3125,18.9063 272.2188,18.75 C272.0625,18.4844 271.7813,18.3438 271.4844,18.3438 C271.1875,18.3438 270.9844,18.4375 270.7656,18.75 L270.5938,18.6719 Z " fill="#000000"/><text fill="#000000" font-family="sans-serif" font-size="12" lengthAdjust="spacingAndGlyphs" textLength="29" x="288.75" y="27.1543">Salle</text><line style="stroke:#A80036;stroke-width:1.5;" x1="212" x2="362" y1="39" y2="39"/><ellipse cx="222" cy="50" fill="none" rx="3" ry="3" style="stroke:#038048;stroke-width:1.0;"/><text fill="#000000" font-family="sans-serif" font-size="11" lengthAdjust="spacingAndGlyphs" textLength="121" x="231" y="53.2104">listeEntitee: Entitee[]</text><ellipse cx="222" cy="62.8047" fill="none" rx="3" ry="3" style="stroke:#038048;stroke-width:1.0;"/><text fill="#000000" font-family="sans-serif" font-size="11" lengthAdjust="spacingAndGlyphs" textLength="101" x="231" y="66.0151">listeObjet: Objet[]</text><ellipse cx="222" cy="75.6094" fill="none" rx="3" ry="3" style="stroke:#038048;stroke-width:1.0;"/><text fill="#000000" font-family="sans-serif" font-size="11" lengthAdjust="spacingAndGlyphs" textLength="92" x="231" y="78.8198">nomSalle: string</text><ellipse cx="222" cy="88.4141" fill="none" rx="3" ry="3" style="stroke:#038048;stroke-width:1.0;"/><text fill="#000000" font-family="sans-serif" font-size="11" lengthAdjust="spacingAndGlyphs" textLength="118" x="231" y="91.6245">idNord: number | null</text><ellipse cx="222" cy="101.2188" fill="none" rx="3" ry="3" style="stroke:#038048;stroke-width:1.0;"/><text fill="#000000" font-family="sans-serif" font-size="11" lengthAdjust="spacingAndGlyphs" textLength="109" x="231" y="104.4292">idEst: number | null</text><ellipse cx="222" cy="114.0234" fill="none" rx="3" ry="3" style="stroke:#038048;stroke-width:1.0;"/><text fill="#000000" font-family="sans-serif" font-size="11" lengthAdjust="spacingAndGlyphs" textLength="114" x="231" y="117.2339">idSud: number | null</text><ellipse cx="222" cy="126.8281" fill="none" rx="3" ry="3" style="stroke:#038048;stroke-width:1.0;"/><text fill="#000000" font-family="sans-serif" font-size="11" lengthAdjust="spacingAndGlyphs" textLength="126" x="231" y="130.0386">idOuest: number | null</text><ellipse cx="222" cy="139.6328" fill="none" rx="3" ry="3" style="stroke:#038048;stroke-width:1.0;"/><text fill="#000000" font-family="sans-serif" font-size="11" lengthAdjust="spacingAndGlyphs" text-decoration="underline" textLength="82" x="231" y="142.8433">donjon: Salle[]</text><line style="stroke:#A80036;stroke-width:1.5;" x1="212" x2="362" y1="149.4375" y2="149.4375"/><!--MD5=[f35b8d93951ba498799a84be5600c0ca]
class Joueur--><rect codeLine="15" fill="#FEFECE" filter="url(#f12z2wmo8am3gp)" height="227.2656" id="Joueur" style="stroke:#A80036;stroke-width:1.5;" width="242" x="7" y="217"/><ellipse cx="104.25" cy="233" fill="#ADD1B2" rx="11" ry="11" style="stroke:#A80036;stroke-width:1.0;"/><path d="M106.5938,228.6719 C105.6563,228.2344 105.0625,228.0938 104.1875,228.0938 C101.5625,228.0938 99.5625,230.1719 99.5625,232.8906 L99.5625,234.0156 C99.5625,236.5938 101.6719,238.4844 104.5625,238.4844 C105.7813,238.4844 106.9375,238.1875 107.6875,237.6406 C108.2656,237.2344 108.5938,236.7813 108.5938,236.3906 C108.5938,235.9375 108.2031,235.5469 107.7344,235.5469 C107.5156,235.5469 107.3125,235.625 107.125,235.8125 C106.6719,236.2969 106.6719,236.2969 106.4844,236.3906 C106.0625,236.6563 105.375,236.7813 104.6094,236.7813 C102.5625,236.7813 101.2656,235.6875 101.2656,233.9844 L101.2656,232.8906 C101.2656,231.1094 102.5156,229.7969 104.25,229.7969 C104.8281,229.7969 105.4375,229.9531 105.9063,230.2031 C106.3906,230.4844 106.5625,230.7031 106.6563,231.1094 C106.7188,231.5156 106.75,231.6406 106.8906,231.7656 C107.0313,231.9063 107.2656,232.0156 107.4844,232.0156 C107.75,232.0156 108.0156,231.875 108.1875,231.6563 C108.2969,231.5 108.3281,231.3125 108.3281,230.8906 L108.3281,229.4688 C108.3281,229.0313 108.3125,228.9063 108.2188,228.75 C108.0625,228.4844 107.7813,228.3438 107.4844,228.3438 C107.1875,228.3438 106.9844,228.4375 106.7656,228.75 L106.5938,228.6719 Z " fill="#000000"/><text fill="#000000" font-family="sans-serif" font-size="12" lengthAdjust="spacingAndGlyphs" textLength="39" x="124.75" y="237.1543">Joueur</text><line style="stroke:#A80036;stroke-width:1.5;" x1="8" x2="248" y1="249" y2="249"/><ellipse cx="18" cy="260" fill="none" rx="3" ry="3" style="stroke:#038048;stroke-width:1.0;"/><text fill="#000000" font-family="sans-serif" font-size="11" lengthAdjust="spacingAndGlyphs" textLength="99" x="27" y="263.2104">arme: Arme | null</text><ellipse cx="18" cy="272.8047" fill="none" rx="3" ry="3" style="stroke:#038048;stroke-width:1.0;"/><text fill="#000000" font-family="sans-serif" font-size="11" lengthAdjust="spacingAndGlyphs" textLength="80" x="27" y="276.0151">force: number</text><ellipse cx="18" cy="285.6094" fill="none" rx="3" ry="3" style="stroke:#038048;stroke-width:1.0;"/><text fill="#000000" font-family="sans-serif" font-size="11" lengthAdjust="spacingAndGlyphs" textLength="62" x="27" y="288.8198">or: number</text><ellipse cx="18" cy="298.4141" fill="none" rx="3" ry="3" style="stroke:#038048;stroke-width:1.0;"/><text fill="#000000" font-family="sans-serif" font-size="11" lengthAdjust="spacingAndGlyphs" textLength="65" x="27" y="301.6245">sac: Objet[]</text><ellipse cx="18" cy="311.2188" fill="none" rx="3" ry="3" style="stroke:#038048;stroke-width:1.0;"/><text fill="#000000" font-family="sans-serif" font-size="11" lengthAdjust="spacingAndGlyphs" textLength="63" x="27" y="314.4292">nom: string</text><ellipse cx="18" cy="324.0234" fill="none" rx="3" ry="3" style="stroke:#038048;stroke-width:1.0;"/><text fill="#000000" font-family="sans-serif" font-size="11" lengthAdjust="spacingAndGlyphs" textLength="69" x="27" y="327.2339">vie: number</text><ellipse cx="18" cy="336.8281" fill="none" rx="3" ry="3" style="stroke:#038048;stroke-width:1.0;"/><text fill="#000000" font-family="sans-serif" font-size="11" lengthAdjust="spacingAndGlyphs" textLength="115" x="27" y="340.0386">salleCourante: Salle</text><line style="stroke:#A80036;stroke-width:1.5;" x1="8" x2="248" y1="346.6328" y2="346.6328"/><ellipse cx="18" cy="357.6328" fill="#84BE84" rx="3" ry="3" style="stroke:#038048;stroke-width:1.0;"/><text fill="#000000" font-family="sans-serif" font-size="11" lengthAdjust="spacingAndGlyphs" textLength="189" x="27" y="360.8433">deplacer(direction: number): void</text><ellipse cx="18" cy="370.4375" fill="#84BE84" rx="3" ry="3" style="stroke:#038048;stroke-width:1.0;"/><text fill="#000000" font-family="sans-serif" font-size="11" lengthAdjust="spacingAndGlyphs" textLength="216" x="27" y="373.6479">observerEntitee(idx: number): Entitee</text><ellipse cx="18" cy="383.2422" fill="#84BE84" rx="3" ry="3" style="stroke:#038048;stroke-width:1.0;"/><text fill="#000000" font-family="sans-serif" font-size="11" lengthAdjust="spacingAndGlyphs" textLength="196" x="27" y="386.4526">observerObjet(idx: number): Objet</text><ellipse cx="18" cy="396.0469" fill="#84BE84" rx="3" ry="3" style="stroke:#038048;stroke-width:1.0;"/><text fill="#000000" font-family="sans-serif" font-size="11" lengthAdjust="spacingAndGlyphs" textLength="171" x="27" y="399.2573">attaquer(degat: number): void</text><ellipse cx="18" cy="408.8516" fill="#84BE84" rx="3" ry="3" style="stroke:#038048;stroke-width:1.0;"/><text fill="#000000" font-family="sans-serif" font-size="11" lengthAdjust="spacingAndGlyphs" textLength="152" x="27" y="412.062">prendre(idx: number): void</text><ellipse cx="18" cy="421.6563" fill="#84BE84" rx="3" ry="3" style="stroke:#038048;stroke-width:1.0;"/><text fill="#000000" font-family="sans-serif" font-size="11" lengthAdjust="spacingAndGlyphs" textLength="145" x="27" y="424.8667">utiliser(idx: number): void</text><ellipse cx="18" cy="434.4609" fill="#84BE84" rx="3" ry="3" style="stroke:#038048;stroke-width:1.0;"/><text fill="#000000" font-family="sans-serif" font-size="11" lengthAdjust="spacingAndGlyphs" textLength="97" x="27" y="437.6714">deEquiper(): void</text><!--MD5=[616299f142344228d442db1d4b54b5f3]
class Objet--><rect codeLine="31" fill="#FEFECE" filter="url(#f12z2wmo8am3gp)" height="99.2188" id="Objet" style="stroke:#A80036;stroke-width:1.5;" width="185" x="398.5" y="32.5"/><ellipse cx="470.75" cy="48.5" fill="#A9DCDF" rx="11" ry="11" style="stroke:#A80036;stroke-width:1.0;"/><path d="M472.8281,50.3125 L473.2188,51.2969 L472.8281,51.2969 C472.375,51.2969 472.2656,51.3125 472.1094,51.4219 C471.8594,51.5781 471.7031,51.8594 471.7031,52.1563 C471.7031,52.4219 471.8438,52.6719 472.0625,52.8281 C472.2031,52.9531 472.4063,53 472.8281,53 L475.1875,53 C475.5469,53 475.7656,52.9688 475.9063,52.875 C476.1563,52.7344 476.3125,52.4375 476.3125,52.1563 C476.3125,51.875 476.1719,51.625 475.9531,51.4688 C475.7813,51.3281 475.625,51.2969 475.1563,51.2969 L471.7656,43.0938 L468.0938,43.0938 C467.6406,43.0938 467.5156,43.1094 467.3594,43.2031 C467.1094,43.375 466.9531,43.6563 466.9531,43.9375 C466.9531,44.2188 467.0938,44.4688 467.3125,44.6406 C467.4844,44.75 467.6563,44.7813 468.0938,44.7813 L469.1719,44.7813 L466.5313,51.2969 C466.1094,51.2969 465.9531,51.3125 465.7969,51.4219 C465.5469,51.5781 465.3906,51.8594 465.3906,52.1563 C465.3906,52.7188 465.7656,53 466.5156,53 L468.7813,53 C469.1406,53 469.3594,52.9688 469.4844,52.875 C469.75,52.7344 469.8906,52.4375 469.8906,52.1563 C469.8906,51.875 469.7656,51.625 469.5469,51.4531 C469.375,51.3281 469.2344,51.2969 468.7813,51.2969 L468.3906,51.2969 L468.7813,50.3125 L472.8281,50.3125 Z M472.125,48.6094 L469.4531,48.6094 L470.7969,45.3438 L472.125,48.6094 Z " fill="#000000"/><text fill="#000000" font-family="sans-serif" font-size="12" font-style="italic" lengthAdjust="spacingAndGlyphs" textLength="32" x="491.25" y="52.6543">Objet</text><line style="stroke:#A80036;stroke-width:1.5;" x1="399.5" x2="582.5" y1="64.5" y2="64.5"/><ellipse cx="409.5" cy="75.5" fill="none" rx="3" ry="3" style="stroke:#038048;stroke-width:1.0;"/><text fill="#000000" font-family="sans-serif" font-size="11" lengthAdjust="spacingAndGlyphs" textLength="63" x="418.5" y="78.7104">nom: string</text><ellipse cx="409.5" cy="88.3047" fill="none" rx="3" ry="3" style="stroke:#038048;stroke-width:1.0;"/><text fill="#000000" font-family="sans-serif" font-size="11" lengthAdjust="spacingAndGlyphs" textLength="72" x="418.5" y="91.5151">prix: number</text><line style="stroke:#A80036;stroke-width:1.5;" x1="399.5" x2="582.5" y1="98.1094" y2="98.1094"/><ellipse cx="409.5" cy="109.1094" fill="#84BE84" rx="3" ry="3" style="stroke:#038048;stroke-width:1.0;"/><text fill="#000000" font-family="sans-serif" font-size="11" lengthAdjust="spacingAndGlyphs" textLength="159" x="418.5" y="112.3198">vendre(joueur: Joueur): void</text><ellipse cx="409.5" cy="121.9141" fill="#84BE84" rx="3" ry="3" style="stroke:#038048;stroke-width:1.0;"/><text fill="#000000" font-family="sans-serif" font-size="11" font-style="italic" lengthAdjust="spacingAndGlyphs" textLength="153" x="418.5" y="125.1245">utilise(joueur: Joueur): void</text><!--MD5=[0e40145dcd0b5bb8a81ea75444240c9b]
class Arme--><rect codeLine="37" fill="#FEFECE" filter="url(#f12z2wmo8am3gp)" height="137.6328" id="Arme" style="stroke:#A80036;stroke-width:1.5;" width="198" x="392" y="261.5"/><ellipse cx="470.75" cy="277.5" fill="#ADD1B2" rx="11" ry="11" style="stroke:#A80036;stroke-width:1.0;"/><path d="M473.0938,273.1719 C472.1563,272.7344 471.5625,272.5938 470.6875,272.5938 C468.0625,272.5938 466.0625,274.6719 466.0625,277.3906 L466.0625,278.5156 C466.0625,281.0938 468.1719,282.9844 471.0625,282.9844 C472.2813,282.9844 473.4375,282.6875 474.1875,282.1406 C474.7656,281.7344 475.0938,281.2813 475.0938,280.8906 C475.0938,280.4375 474.7031,280.0469 474.2344,280.0469 C474.0156,280.0469 473.8125,280.125 473.625,280.3125 C473.1719,280.7969 473.1719,280.7969 472.9844,280.8906 C472.5625,281.1563 471.875,281.2813 471.1094,281.2813 C469.0625,281.2813 467.7656,280.1875 467.7656,278.4844 L467.7656,277.3906 C467.7656,275.6094 469.0156,274.2969 470.75,274.2969 C471.3281,274.2969 471.9375,274.4531 472.4063,274.7031 C472.8906,274.9844 473.0625,275.2031 473.1563,275.6094 C473.2188,276.0156 473.25,276.1406 473.3906,276.2656 C473.5313,276.4063 473.7656,276.5156 473.9844,276.5156 C474.25,276.5156 474.5156,276.375 474.6875,276.1563 C474.7969,276 474.8281,275.8125 474.8281,275.3906 L474.8281,273.9688 C474.8281,273.5313 474.8125,273.4063 474.7188,273.25 C474.5625,272.9844 474.2813,272.8438 473.9844,272.8438 C473.6875,272.8438 473.4844,272.9375 473.2656,273.25 L473.0938,273.1719 Z " fill="#000000"/><text fill="#000000" font-family="sans-serif" font-size="12" lengthAdjust="spacingAndGlyphs" textLength="32" x="491.25" y="281.6543">Arme</text><line style="stroke:#A80036;stroke-width:1.5;" x1="393" x2="589" y1="293.5" y2="293.5"/><rect fill="none" height="6" style="stroke:#C82930;stroke-width:1.0;" width="6" x="400" y="301.5"/><text fill="#000000" font-family="sans-serif" font-size="11" lengthAdjust="spacingAndGlyphs" textLength="113" x="412" y="307.7104">dejaUtilise: boolean</text><ellipse cx="403" cy="317.3047" fill="none" rx="3" ry="3" style="stroke:#038048;stroke-width:1.0;"/><text fill="#000000" font-family="sans-serif" font-size="11" lengthAdjust="spacingAndGlyphs" textLength="63" x="412" y="320.5151">nom: string</text><ellipse cx="403" cy="330.1094" fill="none" rx="3" ry="3" style="stroke:#038048;stroke-width:1.0;"/><text fill="#000000" font-family="sans-serif" font-size="11" lengthAdjust="spacingAndGlyphs" textLength="72" x="412" y="333.3198">prix: number</text><ellipse cx="403" cy="342.9141" fill="none" rx="3" ry="3" style="stroke:#038048;stroke-width:1.0;"/><text fill="#000000" font-family="sans-serif" font-size="11" lengthAdjust="spacingAndGlyphs" textLength="84" x="412" y="346.1245">degat: number</text><line style="stroke:#A80036;stroke-width:1.5;" x1="393" x2="589" y1="352.7188" y2="352.7188"/><ellipse cx="403" cy="363.7188" fill="#84BE84" rx="3" ry="3" style="stroke:#038048;stroke-width:1.0;"/><text fill="#000000" font-family="sans-serif" font-size="11" lengthAdjust="spacingAndGlyphs" textLength="152" x="412" y="366.9292">utilise(joueur: Joueur): void</text><ellipse cx="403" cy="376.5234" fill="#84BE84" rx="3" ry="3" style="stroke:#038048;stroke-width:1.0;"/><text fill="#000000" font-family="sans-serif" font-size="11" lengthAdjust="spacingAndGlyphs" textLength="158" x="412" y="379.7339">equipe(joueur: Joueur): void</text><ellipse cx="403" cy="389.3281" fill="#84BE84" rx="3" ry="3" style="stroke:#038048;stroke-width:1.0;"/><text fill="#000000" font-family="sans-serif" font-size="11" lengthAdjust="spacingAndGlyphs" textLength="172" x="412" y="392.5386">deEquipe(joueur: Joueur): void</text><!--MD5=[f44494d9fc1d3dfe967a21c4da1ec5a5]
reverse link Entitee to Joueur--><path d="M128,139.29 C128,162.373 128,189.955 128,216.858 " fill="none" id="Entitee-backto-Joueur" style="stroke:#A80036;stroke-width:1.0;"/><polygon fill="none" points="121,139.107,128,119.107,135,139.107,121,139.107" style="stroke:#A80036;stroke-width:1.0;"/><!--MD5=[83d9534316df663dbcf195bada95aad6]
reverse link Objet to Arme--><path d="M491,151.95 C491,186.117 491,227.243 491,261.306 " fill="none" id="Objet-backto-Arme" style="stroke:#A80036;stroke-width:1.0;"/><polygon fill="none" points="484,151.701,491,131.7,498,151.7,484,151.701" style="stroke:#A80036;stroke-width:1.0;"/><!--MD5=[7eff4f79ea2b285a81f8b9cb7e146d2f]
@startuml
class Entitee {
    +nom: string
    +vie: number
}
class Salle {
    +listeEntitee: Entitee[]
    +listeObjet: Objet[]
    +nomSalle: string
    +idNord: number | null
    +idEst: number | null
    +idSud: number | null
    +idOuest: number | null
    +{static} donjon: Salle[]
}
class Joueur extends Entitee {
    +arme: Arme | null
    +force: number
    +or: number
    +sac: Objet[]
    +nom: string
    +vie: number
    +salleCourante: Salle
    +deplacer(direction: number): void
    +observerEntitee(idx: number): Entitee
    +observerObjet(idx: number): Objet
    +attaquer(degat: number): void
    +prendre(idx: number): void
    +utiliser(idx: number): void
    +deEquiper(): void
}
abstract class Objet {
    +nom: string
    +prix: number
    +vendre(joueur: Joueur): void
    +{abstract} utilise(joueur: Joueur): void
}
class Arme extends Objet {
    -dejaUtilise: boolean
    +nom: string
    +prix: number
    +degat: number
    +utilise(joueur: Joueur): void
    +equipe(joueur: Joueur): void
    +deEquipe(joueur: Joueur): void
}
@enduml

PlantUML version 1.2020.21beta7(Unknown compile time)
(GPL source distribution)
Java Runtime: Java(TM) SE Runtime Environment
JVM: Java HotSpot(TM) 64-Bit Server VM
Default Encoding: UTF-8
Language: en
Country: US
--></g></svg>