<?xml version="1.0" encoding="UTF-8" standalone="no"?><svg xmlns="http://www.w3.org/2000/svg" xmlns:xlink="http://www.w3.org/1999/xlink" contentScriptType="application/ecmascript" contentStyleType="text/css" height="669px" preserveAspectRatio="none" style="width:951px;height:669px;" version="1.1" viewBox="0 0 951 669" width="951px" zoomAndPan="magnify"><defs><filter height="300%" id="fyq7deggjhnvh" width="300%" x="-1" y="-1"><feGaussianBlur result="blurOut" stdDeviation="2.0"/><feColorMatrix in="blurOut" result="blurOut2" type="matrix" values="0 0 0 0 0 0 0 0 0 0 0 0 0 0 0 0 0 0 .4 0"/><feOffset dx="4.0" dy="4.0" in="blurOut2" result="blurOut3"/><feBlend in="SourceGraphic" in2="blurOut3" mode="normal"/></filter></defs><g><!--MD5=[2bbec844ebd31f726303561be2fafbd2]
class Entite--><rect codeLine="1" fill="#FEFECE" filter="url(#fyq7deggjhnvh)" height="124.8281" id="Entite" style="stroke:#A80036;stroke-width:1.5;" width="312" x="7" y="13.5"/><ellipse cx="140.75" cy="29.5" fill="#A9DCDF" rx="11" ry="11" style="stroke:#A80036;stroke-width:1.0;"/><path d="M142.8281,31.3125 L143.2188,32.2969 L142.8281,32.2969 C142.375,32.2969 142.2656,32.3125 142.1094,32.4219 C141.8594,32.5781 141.7031,32.8594 141.7031,33.1563 C141.7031,33.4219 141.8438,33.6719 142.0625,33.8281 C142.2031,33.9531 142.4063,34 142.8281,34 L145.1875,34 C145.5469,34 145.7656,33.9688 145.9063,33.875 C146.1563,33.7344 146.3125,33.4375 146.3125,33.1563 C146.3125,32.875 146.1719,32.625 145.9531,32.4688 C145.7813,32.3281 145.625,32.2969 145.1563,32.2969 L141.7656,24.0938 L138.0938,24.0938 C137.6406,24.0938 137.5156,24.1094 137.3594,24.2031 C137.1094,24.375 136.9531,24.6563 136.9531,24.9375 C136.9531,25.2188 137.0938,25.4688 137.3125,25.6406 C137.4844,25.75 137.6563,25.7813 138.0938,25.7813 L139.1719,25.7813 L136.5313,32.2969 C136.1094,32.2969 135.9531,32.3125 135.7969,32.4219 C135.5469,32.5781 135.3906,32.8594 135.3906,33.1563 C135.3906,33.7188 135.7656,34 136.5156,34 L138.7813,34 C139.1406,34 139.3594,33.9688 139.4844,33.875 C139.75,33.7344 139.8906,33.4375 139.8906,33.1563 C139.8906,32.875 139.7656,32.625 139.5469,32.4531 C139.375,32.3281 139.2344,32.2969 138.7813,32.2969 L138.3906,32.2969 L138.7813,31.3125 L142.8281,31.3125 Z M142.125,29.6094 L139.4531,29.6094 L140.7969,26.3438 L142.125,29.6094 Z " fill="#000000"/><text fill="#000000" font-family="sans-serif" font-size="12" font-style="italic" lengthAdjust="spacingAndGlyphs" textLength="36" x="161.25" y="33.6543">Entite</text><line style="stroke:#A80036;stroke-width:1.5;" x1="8" x2="318" y1="45.5" y2="45.5"/><ellipse cx="18" cy="56.5" fill="none" rx="3" ry="3" style="stroke:#038048;stroke-width:1.0;"/><text fill="#000000" font-family="sans-serif" font-size="11" lengthAdjust="spacingAndGlyphs" textLength="63" x="27" y="59.7104">nom: string</text><ellipse cx="18" cy="69.3047" fill="none" rx="3" ry="3" style="stroke:#038048;stroke-width:1.0;"/><text fill="#000000" font-family="sans-serif" font-size="11" lengthAdjust="spacingAndGlyphs" textLength="69" x="27" y="72.5151">vie: number</text><ellipse cx="18" cy="82.1094" fill="none" rx="3" ry="3" style="stroke:#038048;stroke-width:1.0;"/><text fill="#000000" font-family="sans-serif" font-size="11" lengthAdjust="spacingAndGlyphs" textLength="75" x="27" y="85.3198">guid: number</text><ellipse cx="18" cy="94.9141" fill="none" rx="3" ry="3" style="stroke:#038048;stroke-width:1.0;"/><text fill="#000000" font-family="sans-serif" font-size="11" lengthAdjust="spacingAndGlyphs" textLength="88" x="27" y="98.1245">salleId: number</text><ellipse cx="18" cy="107.7188" fill="none" rx="3" ry="3" style="stroke:#038048;stroke-width:1.0;"/><text fill="#000000" font-family="sans-serif" font-size="11" lengthAdjust="spacingAndGlyphs" text-decoration="underline" textLength="88" x="27" y="110.9292">entites: Entite[]</text><line style="stroke:#A80036;stroke-width:1.5;" x1="8" x2="318" y1="117.5234" y2="117.5234"/><ellipse cx="18" cy="128.5234" fill="#84BE84" rx="3" ry="3" style="stroke:#038048;stroke-width:1.0;"/><text fill="#000000" font-family="sans-serif" font-size="11" lengthAdjust="spacingAndGlyphs" textLength="286" x="27" y="131.7339">remove(entites: number[], idx: number): number[]</text><!--MD5=[9c44bef4398b9b819e757c850646d09b]
class Salle--><rect codeLine="9" fill="#FEFECE" filter="url(#fyq7deggjhnvh)" height="137.6328" id="Salle" style="stroke:#A80036;stroke-width:1.5;" width="149" x="356.5" y="7"/><ellipse cx="412.25" cy="23" fill="#ADD1B2" rx="11" ry="11" style="stroke:#A80036;stroke-width:1.0;"/><path d="M414.5938,18.6719 C413.6563,18.2344 413.0625,18.0938 412.1875,18.0938 C409.5625,18.0938 407.5625,20.1719 407.5625,22.8906 L407.5625,24.0156 C407.5625,26.5938 409.6719,28.4844 412.5625,28.4844 C413.7813,28.4844 414.9375,28.1875 415.6875,27.6406 C416.2656,27.2344 416.5938,26.7813 416.5938,26.3906 C416.5938,25.9375 416.2031,25.5469 415.7344,25.5469 C415.5156,25.5469 415.3125,25.625 415.125,25.8125 C414.6719,26.2969 414.6719,26.2969 414.4844,26.3906 C414.0625,26.6563 413.375,26.7813 412.6094,26.7813 C410.5625,26.7813 409.2656,25.6875 409.2656,23.9844 L409.2656,22.8906 C409.2656,21.1094 410.5156,19.7969 412.25,19.7969 C412.8281,19.7969 413.4375,19.9531 413.9063,20.2031 C414.3906,20.4844 414.5625,20.7031 414.6563,21.1094 C414.7188,21.5156 414.75,21.6406 414.8906,21.7656 C415.0313,21.9063 415.2656,22.0156 415.4844,22.0156 C415.75,22.0156 416.0156,21.875 416.1875,21.6563 C416.2969,21.5 416.3281,21.3125 416.3281,20.8906 L416.3281,19.4688 C416.3281,19.0313 416.3125,18.9063 416.2188,18.75 C416.0625,18.4844 415.7813,18.3438 415.4844,18.3438 C415.1875,18.3438 414.9844,18.4375 414.7656,18.75 L414.5938,18.6719 Z " fill="#000000"/><text fill="#000000" font-family="sans-serif" font-size="12" lengthAdjust="spacingAndGlyphs" textLength="29" x="432.75" y="27.1543">Salle</text><line style="stroke:#A80036;stroke-width:1.5;" x1="357.5" x2="504.5" y1="39" y2="39"/><ellipse cx="367.5" cy="50" fill="none" rx="3" ry="3" style="stroke:#038048;stroke-width:1.0;"/><text fill="#000000" font-family="sans-serif" font-size="11" lengthAdjust="spacingAndGlyphs" textLength="99" x="376.5" y="53.2104">entites: number[]</text><ellipse cx="367.5" cy="62.8047" fill="none" rx="3" ry="3" style="stroke:#038048;stroke-width:1.0;"/><text fill="#000000" font-family="sans-serif" font-size="11" lengthAdjust="spacingAndGlyphs" textLength="81" x="376.5" y="66.0151">objets: Objet[]</text><ellipse cx="367.5" cy="75.6094" fill="none" rx="3" ry="3" style="stroke:#038048;stroke-width:1.0;"/><text fill="#000000" font-family="sans-serif" font-size="11" lengthAdjust="spacingAndGlyphs" textLength="92" x="376.5" y="78.8198">nomSalle: string</text><ellipse cx="367.5" cy="88.4141" fill="none" rx="3" ry="3" style="stroke:#038048;stroke-width:1.0;"/><text fill="#000000" font-family="sans-serif" font-size="11" lengthAdjust="spacingAndGlyphs" textLength="100" x="376.5" y="91.6245">passages: string[]</text><ellipse cx="367.5" cy="101.2188" fill="none" rx="3" ry="3" style="stroke:#038048;stroke-width:1.0;"/><text fill="#000000" font-family="sans-serif" font-size="11" lengthAdjust="spacingAndGlyphs" textLength="123" x="376.5" y="104.4292">passagesId: number[]</text><ellipse cx="367.5" cy="114.0234" fill="none" rx="3" ry="3" style="stroke:#038048;stroke-width:1.0;"/><text fill="#000000" font-family="sans-serif" font-size="11" lengthAdjust="spacingAndGlyphs" textLength="100" x="376.5" y="117.2339">description: string</text><ellipse cx="367.5" cy="126.8281" fill="none" rx="3" ry="3" style="stroke:#038048;stroke-width:1.0;"/><text fill="#000000" font-family="sans-serif" font-size="11" lengthAdjust="spacingAndGlyphs" text-decoration="underline" textLength="82" x="376.5" y="130.0386">donjon: Salle[]</text><line style="stroke:#A80036;stroke-width:1.5;" x1="357.5" x2="504.5" y1="136.6328" y2="136.6328"/><!--MD5=[96b3989871b5279a8981fb911260d86c]
class Hostile--><rect codeLine="18" fill="#FEFECE" filter="url(#fyq7deggjhnvh)" height="201.6563" id="Hostile" style="stroke:#A80036;stroke-width:1.5;" width="218" x="54" y="205"/><ellipse cx="137.75" cy="221" fill="#ADD1B2" rx="11" ry="11" style="stroke:#A80036;stroke-width:1.0;"/><path d="M140.0938,216.6719 C139.1563,216.2344 138.5625,216.0938 137.6875,216.0938 C135.0625,216.0938 133.0625,218.1719 133.0625,220.8906 L133.0625,222.0156 C133.0625,224.5938 135.1719,226.4844 138.0625,226.4844 C139.2813,226.4844 140.4375,226.1875 141.1875,225.6406 C141.7656,225.2344 142.0938,224.7813 142.0938,224.3906 C142.0938,223.9375 141.7031,223.5469 141.2344,223.5469 C141.0156,223.5469 140.8125,223.625 140.625,223.8125 C140.1719,224.2969 140.1719,224.2969 139.9844,224.3906 C139.5625,224.6563 138.875,224.7813 138.1094,224.7813 C136.0625,224.7813 134.7656,223.6875 134.7656,221.9844 L134.7656,220.8906 C134.7656,219.1094 136.0156,217.7969 137.75,217.7969 C138.3281,217.7969 138.9375,217.9531 139.4063,218.2031 C139.8906,218.4844 140.0625,218.7031 140.1563,219.1094 C140.2188,219.5156 140.25,219.6406 140.3906,219.7656 C140.5313,219.9063 140.7656,220.0156 140.9844,220.0156 C141.25,220.0156 141.5156,219.875 141.6875,219.6563 C141.7969,219.5 141.8281,219.3125 141.8281,218.8906 L141.8281,217.4688 C141.8281,217.0313 141.8125,216.9063 141.7188,216.75 C141.5625,216.4844 141.2813,216.3438 140.9844,216.3438 C140.6875,216.3438 140.4844,216.4375 140.2656,216.75 L140.0938,216.6719 Z " fill="#000000"/><text fill="#000000" font-family="sans-serif" font-size="12" lengthAdjust="spacingAndGlyphs" textLength="42" x="158.25" y="225.1543">Hostile</text><line style="stroke:#A80036;stroke-width:1.5;" x1="55" x2="271" y1="237" y2="237"/><ellipse cx="65" cy="248" fill="none" rx="3" ry="3" style="stroke:#038048;stroke-width:1.0;"/><text fill="#000000" font-family="sans-serif" font-size="11" lengthAdjust="spacingAndGlyphs" textLength="93" x="74" y="251.2104">critique: number</text><ellipse cx="65" cy="260.8047" fill="none" rx="3" ry="3" style="stroke:#038048;stroke-width:1.0;"/><text fill="#000000" font-family="sans-serif" font-size="11" lengthAdjust="spacingAndGlyphs" textLength="99" x="74" y="264.0151">arme: Arme | null</text><ellipse cx="65" cy="273.6094" fill="none" rx="3" ry="3" style="stroke:#038048;stroke-width:1.0;"/><text fill="#000000" font-family="sans-serif" font-size="11" lengthAdjust="spacingAndGlyphs" textLength="65" x="74" y="276.8198">sac: Objet[]</text><ellipse cx="65" cy="286.4141" fill="none" rx="3" ry="3" style="stroke:#038048;stroke-width:1.0;"/><text fill="#000000" font-family="sans-serif" font-size="11" lengthAdjust="spacingAndGlyphs" textLength="63" x="74" y="289.6245">nom: string</text><ellipse cx="65" cy="299.2188" fill="none" rx="3" ry="3" style="stroke:#038048;stroke-width:1.0;"/><text fill="#000000" font-family="sans-serif" font-size="11" lengthAdjust="spacingAndGlyphs" textLength="69" x="74" y="302.4292">vie: number</text><ellipse cx="65" cy="312.0234" fill="none" rx="3" ry="3" style="stroke:#038048;stroke-width:1.0;"/><text fill="#000000" font-family="sans-serif" font-size="11" lengthAdjust="spacingAndGlyphs" textLength="80" x="74" y="315.2339">force: number</text><ellipse cx="65" cy="324.8281" fill="none" rx="3" ry="3" style="stroke:#038048;stroke-width:1.0;"/><text fill="#000000" font-family="sans-serif" font-size="11" lengthAdjust="spacingAndGlyphs" textLength="75" x="74" y="328.0386">guid: number</text><ellipse cx="65" cy="337.6328" fill="none" rx="3" ry="3" style="stroke:#038048;stroke-width:1.0;"/><text fill="#000000" font-family="sans-serif" font-size="11" lengthAdjust="spacingAndGlyphs" textLength="88" x="74" y="340.8433">salleId: number</text><line style="stroke:#A80036;stroke-width:1.5;" x1="55" x2="271" y1="347.4375" y2="347.4375"/><ellipse cx="65" cy="358.4375" fill="#84BE84" rx="3" ry="3" style="stroke:#038048;stroke-width:1.0;"/><text fill="#000000" font-family="sans-serif" font-size="11" lengthAdjust="spacingAndGlyphs" textLength="192" x="74" y="361.6479">combattre(attaque: number): void</text><ellipse cx="65" cy="371.2422" fill="#84BE84" rx="3" ry="3" style="stroke:#038048;stroke-width:1.0;"/><text fill="#000000" font-family="sans-serif" font-size="11" lengthAdjust="spacingAndGlyphs" textLength="182" x="74" y="374.4526">attaquer(attaque: number): void</text><ellipse cx="65" cy="384.0469" fill="#84BE84" rx="3" ry="3" style="stroke:#038048;stroke-width:1.0;"/><text fill="#000000" font-family="sans-serif" font-size="11" lengthAdjust="spacingAndGlyphs" textLength="145" x="74" y="387.2573">utiliser(idx: number): void</text><ellipse cx="65" cy="396.8516" fill="#84BE84" rx="3" ry="3" style="stroke:#038048;stroke-width:1.0;"/><text fill="#000000" font-family="sans-serif" font-size="11" lengthAdjust="spacingAndGlyphs" textLength="97" x="74" y="400.062">deEquiper(): void</text><!--MD5=[f35b8d93951ba498799a84be5600c0ca]
class Joueur--><rect codeLine="32" fill="#FEFECE" filter="url(#fyq7deggjhnvh)" height="188.8516" id="Joueur" style="stroke:#A80036;stroke-width:1.5;" width="303" x="11.5" y="467"/><ellipse cx="139.25" cy="483" fill="#ADD1B2" rx="11" ry="11" style="stroke:#A80036;stroke-width:1.0;"/><path d="M141.5938,478.6719 C140.6563,478.2344 140.0625,478.0938 139.1875,478.0938 C136.5625,478.0938 134.5625,480.1719 134.5625,482.8906 L134.5625,484.0156 C134.5625,486.5938 136.6719,488.4844 139.5625,488.4844 C140.7813,488.4844 141.9375,488.1875 142.6875,487.6406 C143.2656,487.2344 143.5938,486.7813 143.5938,486.3906 C143.5938,485.9375 143.2031,485.5469 142.7344,485.5469 C142.5156,485.5469 142.3125,485.625 142.125,485.8125 C141.6719,486.2969 141.6719,486.2969 141.4844,486.3906 C141.0625,486.6563 140.375,486.7813 139.6094,486.7813 C137.5625,486.7813 136.2656,485.6875 136.2656,483.9844 L136.2656,482.8906 C136.2656,481.1094 137.5156,479.7969 139.25,479.7969 C139.8281,479.7969 140.4375,479.9531 140.9063,480.2031 C141.3906,480.4844 141.5625,480.7031 141.6563,481.1094 C141.7188,481.5156 141.75,481.6406 141.8906,481.7656 C142.0313,481.9063 142.2656,482.0156 142.4844,482.0156 C142.75,482.0156 143.0156,481.875 143.1875,481.6563 C143.2969,481.5 143.3281,481.3125 143.3281,480.8906 L143.3281,479.4688 C143.3281,479.0313 143.3125,478.9063 143.2188,478.75 C143.0625,478.4844 142.7813,478.3438 142.4844,478.3438 C142.1875,478.3438 141.9844,478.4375 141.7656,478.75 L141.5938,478.6719 Z " fill="#000000"/><text fill="#000000" font-family="sans-serif" font-size="12" lengthAdjust="spacingAndGlyphs" textLength="39" x="159.75" y="487.1543">Joueur</text><line style="stroke:#A80036;stroke-width:1.5;" x1="12.5" x2="313.5" y1="499" y2="499"/><ellipse cx="22.5" cy="510" fill="none" rx="3" ry="3" style="stroke:#038048;stroke-width:1.0;"/><text fill="#000000" font-family="sans-serif" font-size="11" lengthAdjust="spacingAndGlyphs" textLength="99" x="31.5" y="513.2104">arme: Arme | null</text><ellipse cx="22.5" cy="522.8047" fill="none" rx="3" ry="3" style="stroke:#038048;stroke-width:1.0;"/><text fill="#000000" font-family="sans-serif" font-size="11" lengthAdjust="spacingAndGlyphs" textLength="62" x="31.5" y="526.0151">or: number</text><ellipse cx="22.5" cy="535.6094" fill="none" rx="3" ry="3" style="stroke:#038048;stroke-width:1.0;"/><text fill="#000000" font-family="sans-serif" font-size="11" lengthAdjust="spacingAndGlyphs" textLength="65" x="31.5" y="538.8198">sac: Objet[]</text><ellipse cx="22.5" cy="548.4141" fill="none" rx="3" ry="3" style="stroke:#038048;stroke-width:1.0;"/><text fill="#000000" font-family="sans-serif" font-size="11" lengthAdjust="spacingAndGlyphs" textLength="63" x="31.5" y="551.6245">nom: string</text><ellipse cx="22.5" cy="561.2188" fill="none" rx="3" ry="3" style="stroke:#038048;stroke-width:1.0;"/><text fill="#000000" font-family="sans-serif" font-size="11" lengthAdjust="spacingAndGlyphs" textLength="69" x="31.5" y="564.4292">vie: number</text><ellipse cx="22.5" cy="574.0234" fill="none" rx="3" ry="3" style="stroke:#038048;stroke-width:1.0;"/><text fill="#000000" font-family="sans-serif" font-size="11" lengthAdjust="spacingAndGlyphs" textLength="75" x="31.5" y="577.2339">guid: number</text><ellipse cx="22.5" cy="586.8281" fill="none" rx="3" ry="3" style="stroke:#038048;stroke-width:1.0;"/><text fill="#000000" font-family="sans-serif" font-size="11" lengthAdjust="spacingAndGlyphs" textLength="88" x="31.5" y="590.0386">salleId: number</text><line style="stroke:#A80036;stroke-width:1.5;" x1="12.5" x2="313.5" y1="596.6328" y2="596.6328"/><ellipse cx="22.5" cy="607.6328" fill="#84BE84" rx="3" ry="3" style="stroke:#038048;stroke-width:1.0;"/><text fill="#000000" font-family="sans-serif" font-size="11" lengthAdjust="spacingAndGlyphs" textLength="176" x="31.5" y="610.8433">deplacer(direction: string): void</text><ellipse cx="22.5" cy="620.4375" fill="#84BE84" rx="3" ry="3" style="stroke:#038048;stroke-width:1.0;"/><text fill="#000000" font-family="sans-serif" font-size="11" lengthAdjust="spacingAndGlyphs" textLength="277" x="31.5" y="623.6479">observerEntitee(idx: number): Entite | undefined</text><ellipse cx="22.5" cy="633.2422" fill="#84BE84" rx="3" ry="3" style="stroke:#038048;stroke-width:1.0;"/><text fill="#000000" font-family="sans-serif" font-size="11" lengthAdjust="spacingAndGlyphs" textLength="196" x="31.5" y="636.4526">observerObjet(idx: number): Objet</text><ellipse cx="22.5" cy="646.0469" fill="#84BE84" rx="3" ry="3" style="stroke:#038048;stroke-width:1.0;"/><text fill="#000000" font-family="sans-serif" font-size="11" lengthAdjust="spacingAndGlyphs" textLength="152" x="31.5" y="649.2573">prendre(idx: number): void</text><!--MD5=[616299f142344228d442db1d4b54b5f3]
class Objet--><rect codeLine="45" fill="#FEFECE" filter="url(#fyq7deggjhnvh)" height="99.2188" id="Objet" style="stroke:#A80036;stroke-width:1.5;" width="185" x="542.5" y="26.5"/><ellipse cx="614.75" cy="42.5" fill="#A9DCDF" rx="11" ry="11" style="stroke:#A80036;stroke-width:1.0;"/><path d="M616.8281,44.3125 L617.2188,45.2969 L616.8281,45.2969 C616.375,45.2969 616.2656,45.3125 616.1094,45.4219 C615.8594,45.5781 615.7031,45.8594 615.7031,46.1563 C615.7031,46.4219 615.8438,46.6719 616.0625,46.8281 C616.2031,46.9531 616.4063,47 616.8281,47 L619.1875,47 C619.5469,47 619.7656,46.9688 619.9063,46.875 C620.1563,46.7344 620.3125,46.4375 620.3125,46.1563 C620.3125,45.875 620.1719,45.625 619.9531,45.4688 C619.7813,45.3281 619.625,45.2969 619.1563,45.2969 L615.7656,37.0938 L612.0938,37.0938 C611.6406,37.0938 611.5156,37.1094 611.3594,37.2031 C611.1094,37.375 610.9531,37.6563 610.9531,37.9375 C610.9531,38.2188 611.0938,38.4688 611.3125,38.6406 C611.4844,38.75 611.6563,38.7813 612.0938,38.7813 L613.1719,38.7813 L610.5313,45.2969 C610.1094,45.2969 609.9531,45.3125 609.7969,45.4219 C609.5469,45.5781 609.3906,45.8594 609.3906,46.1563 C609.3906,46.7188 609.7656,47 610.5156,47 L612.7813,47 C613.1406,47 613.3594,46.9688 613.4844,46.875 C613.75,46.7344 613.8906,46.4375 613.8906,46.1563 C613.8906,45.875 613.7656,45.625 613.5469,45.4531 C613.375,45.3281 613.2344,45.2969 612.7813,45.2969 L612.3906,45.2969 L612.7813,44.3125 L616.8281,44.3125 Z M616.125,42.6094 L613.4531,42.6094 L614.7969,39.3438 L616.125,42.6094 Z " fill="#000000"/><text fill="#000000" font-family="sans-serif" font-size="12" font-style="italic" lengthAdjust="spacingAndGlyphs" textLength="32" x="635.25" y="46.6543">Objet</text><line style="stroke:#A80036;stroke-width:1.5;" x1="543.5" x2="726.5" y1="58.5" y2="58.5"/><ellipse cx="553.5" cy="69.5" fill="none" rx="3" ry="3" style="stroke:#038048;stroke-width:1.0;"/><text fill="#000000" font-family="sans-serif" font-size="11" lengthAdjust="spacingAndGlyphs" textLength="63" x="562.5" y="72.7104">nom: string</text><ellipse cx="553.5" cy="82.3047" fill="none" rx="3" ry="3" style="stroke:#038048;stroke-width:1.0;"/><text fill="#000000" font-family="sans-serif" font-size="11" lengthAdjust="spacingAndGlyphs" textLength="72" x="562.5" y="85.5151">prix: number</text><line style="stroke:#A80036;stroke-width:1.5;" x1="543.5" x2="726.5" y1="92.1094" y2="92.1094"/><ellipse cx="553.5" cy="103.1094" fill="#84BE84" rx="3" ry="3" style="stroke:#038048;stroke-width:1.0;"/><text fill="#000000" font-family="sans-serif" font-size="11" lengthAdjust="spacingAndGlyphs" textLength="159" x="562.5" y="106.3198">vendre(joueur: Joueur): void</text><ellipse cx="553.5" cy="115.9141" fill="#84BE84" rx="3" ry="3" style="stroke:#038048;stroke-width:1.0;"/><text fill="#000000" font-family="sans-serif" font-size="11" font-style="italic" lengthAdjust="spacingAndGlyphs" textLength="156" x="562.5" y="119.1245">utilise(hostile: Hostile): void</text><!--MD5=[0e40145dcd0b5bb8a81ea75444240c9b]
class Arme--><rect codeLine="51" fill="#FEFECE" filter="url(#fyq7deggjhnvh)" height="124.8281" id="Arme" style="stroke:#A80036;stroke-width:1.5;" width="203" x="307.5" y="243.5"/><ellipse cx="388.75" cy="259.5" fill="#ADD1B2" rx="11" ry="11" style="stroke:#A80036;stroke-width:1.0;"/><path d="M391.0938,255.1719 C390.1563,254.7344 389.5625,254.5938 388.6875,254.5938 C386.0625,254.5938 384.0625,256.6719 384.0625,259.3906 L384.0625,260.5156 C384.0625,263.0938 386.1719,264.9844 389.0625,264.9844 C390.2813,264.9844 391.4375,264.6875 392.1875,264.1406 C392.7656,263.7344 393.0938,263.2813 393.0938,262.8906 C393.0938,262.4375 392.7031,262.0469 392.2344,262.0469 C392.0156,262.0469 391.8125,262.125 391.625,262.3125 C391.1719,262.7969 391.1719,262.7969 390.9844,262.8906 C390.5625,263.1563 389.875,263.2813 389.1094,263.2813 C387.0625,263.2813 385.7656,262.1875 385.7656,260.4844 L385.7656,259.3906 C385.7656,257.6094 387.0156,256.2969 388.75,256.2969 C389.3281,256.2969 389.9375,256.4531 390.4063,256.7031 C390.8906,256.9844 391.0625,257.2031 391.1563,257.6094 C391.2188,258.0156 391.25,258.1406 391.3906,258.2656 C391.5313,258.4063 391.7656,258.5156 391.9844,258.5156 C392.25,258.5156 392.5156,258.375 392.6875,258.1563 C392.7969,258 392.8281,257.8125 392.8281,257.3906 L392.8281,255.9688 C392.8281,255.5313 392.8125,255.4063 392.7188,255.25 C392.5625,254.9844 392.2813,254.8438 391.9844,254.8438 C391.6875,254.8438 391.4844,254.9375 391.2656,255.25 L391.0938,255.1719 Z " fill="#000000"/><text fill="#000000" font-family="sans-serif" font-size="12" lengthAdjust="spacingAndGlyphs" textLength="32" x="409.25" y="263.6543">Arme</text><line style="stroke:#A80036;stroke-width:1.5;" x1="308.5" x2="509.5" y1="275.5" y2="275.5"/><ellipse cx="318.5" cy="286.5" fill="none" rx="3" ry="3" style="stroke:#038048;stroke-width:1.0;"/><text fill="#000000" font-family="sans-serif" font-size="11" lengthAdjust="spacingAndGlyphs" textLength="63" x="327.5" y="289.7104">nom: string</text><ellipse cx="318.5" cy="299.3047" fill="none" rx="3" ry="3" style="stroke:#038048;stroke-width:1.0;"/><text fill="#000000" font-family="sans-serif" font-size="11" lengthAdjust="spacingAndGlyphs" textLength="72" x="327.5" y="302.5151">prix: number</text><ellipse cx="318.5" cy="312.1094" fill="none" rx="3" ry="3" style="stroke:#038048;stroke-width:1.0;"/><text fill="#000000" font-family="sans-serif" font-size="11" lengthAdjust="spacingAndGlyphs" textLength="84" x="327.5" y="315.3198">degat: number</text><line style="stroke:#A80036;stroke-width:1.5;" x1="308.5" x2="509.5" y1="321.9141" y2="321.9141"/><ellipse cx="318.5" cy="332.9141" fill="#84BE84" rx="3" ry="3" style="stroke:#038048;stroke-width:1.0;"/><text fill="#000000" font-family="sans-serif" font-size="11" lengthAdjust="spacingAndGlyphs" textLength="157" x="327.5" y="336.1245">utilise(hostile: Hostile): void</text><ellipse cx="318.5" cy="345.7188" fill="#84BE84" rx="3" ry="3" style="stroke:#038048;stroke-width:1.0;"/><text fill="#000000" font-family="sans-serif" font-size="11" lengthAdjust="spacingAndGlyphs" textLength="163" x="327.5" y="348.9292">equipe(hostile: Hostile): void</text><ellipse cx="318.5" cy="358.5234" fill="#84BE84" rx="3" ry="3" style="stroke:#038048;stroke-width:1.0;"/><text fill="#000000" font-family="sans-serif" font-size="11" lengthAdjust="spacingAndGlyphs" textLength="177" x="327.5" y="361.7339">deEquipe(hostile: Hostile): void</text><!--MD5=[e22129eb8960ccad542846e0143c8748]
class PotionDeVie--><rect codeLine="59" fill="#FEFECE" filter="url(#fyq7deggjhnvh)" height="99.2188" id="PotionDeVie" style="stroke:#A80036;stroke-width:1.5;" width="178" x="546" y="256.5"/><ellipse cx="594.75" cy="272.5" fill="#ADD1B2" rx="11" ry="11" style="stroke:#A80036;stroke-width:1.0;"/><path d="M597.0938,268.1719 C596.1563,267.7344 595.5625,267.5938 594.6875,267.5938 C592.0625,267.5938 590.0625,269.6719 590.0625,272.3906 L590.0625,273.5156 C590.0625,276.0938 592.1719,277.9844 595.0625,277.9844 C596.2813,277.9844 597.4375,277.6875 598.1875,277.1406 C598.7656,276.7344 599.0938,276.2813 599.0938,275.8906 C599.0938,275.4375 598.7031,275.0469 598.2344,275.0469 C598.0156,275.0469 597.8125,275.125 597.625,275.3125 C597.1719,275.7969 597.1719,275.7969 596.9844,275.8906 C596.5625,276.1563 595.875,276.2813 595.1094,276.2813 C593.0625,276.2813 591.7656,275.1875 591.7656,273.4844 L591.7656,272.3906 C591.7656,270.6094 593.0156,269.2969 594.75,269.2969 C595.3281,269.2969 595.9375,269.4531 596.4063,269.7031 C596.8906,269.9844 597.0625,270.2031 597.1563,270.6094 C597.2188,271.0156 597.25,271.1406 597.3906,271.2656 C597.5313,271.4063 597.7656,271.5156 597.9844,271.5156 C598.25,271.5156 598.5156,271.375 598.6875,271.1563 C598.7969,271 598.8281,270.8125 598.8281,270.3906 L598.8281,268.9688 C598.8281,268.5313 598.8125,268.4063 598.7188,268.25 C598.5625,267.9844 598.2813,267.8438 597.9844,267.8438 C597.6875,267.8438 597.4844,267.9375 597.2656,268.25 L597.0938,268.1719 Z " fill="#000000"/><text fill="#000000" font-family="sans-serif" font-size="12" lengthAdjust="spacingAndGlyphs" textLength="72" x="615.25" y="276.6543">PotionDeVie</text><line style="stroke:#A80036;stroke-width:1.5;" x1="547" x2="723" y1="288.5" y2="288.5"/><ellipse cx="557" cy="299.5" fill="none" rx="3" ry="3" style="stroke:#038048;stroke-width:1.0;"/><text fill="#000000" font-family="sans-serif" font-size="11" lengthAdjust="spacingAndGlyphs" textLength="63" x="566" y="302.7104">nom: string</text><ellipse cx="557" cy="312.3047" fill="none" rx="3" ry="3" style="stroke:#038048;stroke-width:1.0;"/><text fill="#000000" font-family="sans-serif" font-size="11" lengthAdjust="spacingAndGlyphs" textLength="72" x="566" y="315.5151">prix: number</text><ellipse cx="557" cy="325.1094" fill="none" rx="3" ry="3" style="stroke:#038048;stroke-width:1.0;"/><text fill="#000000" font-family="sans-serif" font-size="11" lengthAdjust="spacingAndGlyphs" textLength="85" x="566" y="328.3198">effect: number</text><line style="stroke:#A80036;stroke-width:1.5;" x1="547" x2="723" y1="334.9141" y2="334.9141"/><ellipse cx="557" cy="345.9141" fill="#84BE84" rx="3" ry="3" style="stroke:#038048;stroke-width:1.0;"/><text fill="#000000" font-family="sans-serif" font-size="11" lengthAdjust="spacingAndGlyphs" textLength="152" x="566" y="349.1245">utilise(joueur: Joueur): void</text><!--MD5=[b17f251f85577685872bad37a8eaec44]
class PotionDeForce--><rect codeLine="65" fill="#FEFECE" filter="url(#fyq7deggjhnvh)" height="99.2188" id="PotionDeForce" style="stroke:#A80036;stroke-width:1.5;" width="178" x="759" y="256.5"/><ellipse cx="800.1" cy="272.5" fill="#ADD1B2" rx="11" ry="11" style="stroke:#A80036;stroke-width:1.0;"/><path d="M802.4438,268.1719 C801.5063,267.7344 800.9125,267.5938 800.0375,267.5938 C797.4125,267.5938 795.4125,269.6719 795.4125,272.3906 L795.4125,273.5156 C795.4125,276.0938 797.5219,277.9844 800.4125,277.9844 C801.6313,277.9844 802.7875,277.6875 803.5375,277.1406 C804.1156,276.7344 804.4438,276.2813 804.4438,275.8906 C804.4438,275.4375 804.0531,275.0469 803.5844,275.0469 C803.3656,275.0469 803.1625,275.125 802.975,275.3125 C802.5219,275.7969 802.5219,275.7969 802.3344,275.8906 C801.9125,276.1563 801.225,276.2813 800.4594,276.2813 C798.4125,276.2813 797.1156,275.1875 797.1156,273.4844 L797.1156,272.3906 C797.1156,270.6094 798.3656,269.2969 800.1,269.2969 C800.6781,269.2969 801.2875,269.4531 801.7563,269.7031 C802.2406,269.9844 802.4125,270.2031 802.5063,270.6094 C802.5688,271.0156 802.6,271.1406 802.7406,271.2656 C802.8813,271.4063 803.1156,271.5156 803.3344,271.5156 C803.6,271.5156 803.8656,271.375 804.0375,271.1563 C804.1469,271 804.1781,270.8125 804.1781,270.3906 L804.1781,268.9688 C804.1781,268.5313 804.1625,268.4063 804.0688,268.25 C803.9125,267.9844 803.6313,267.8438 803.3344,267.8438 C803.0375,267.8438 802.8344,267.9375 802.6156,268.25 L802.4438,268.1719 Z " fill="#000000"/><text fill="#000000" font-family="sans-serif" font-size="12" lengthAdjust="spacingAndGlyphs" textLength="88" x="819.9" y="276.6543">PotionDeForce</text><line style="stroke:#A80036;stroke-width:1.5;" x1="760" x2="936" y1="288.5" y2="288.5"/><ellipse cx="770" cy="299.5" fill="none" rx="3" ry="3" style="stroke:#038048;stroke-width:1.0;"/><text fill="#000000" font-family="sans-serif" font-size="11" lengthAdjust="spacingAndGlyphs" textLength="63" x="779" y="302.7104">nom: string</text><ellipse cx="770" cy="312.3047" fill="none" rx="3" ry="3" style="stroke:#038048;stroke-width:1.0;"/><text fill="#000000" font-family="sans-serif" font-size="11" lengthAdjust="spacingAndGlyphs" textLength="72" x="779" y="315.5151">prix: number</text><ellipse cx="770" cy="325.1094" fill="none" rx="3" ry="3" style="stroke:#038048;stroke-width:1.0;"/><text fill="#000000" font-family="sans-serif" font-size="11" lengthAdjust="spacingAndGlyphs" textLength="85" x="779" y="328.3198">effect: number</text><line style="stroke:#A80036;stroke-width:1.5;" x1="760" x2="936" y1="334.9141" y2="334.9141"/><ellipse cx="770" cy="345.9141" fill="#84BE84" rx="3" ry="3" style="stroke:#038048;stroke-width:1.0;"/><text fill="#000000" font-family="sans-serif" font-size="11" lengthAdjust="spacingAndGlyphs" textLength="152" x="779" y="349.1245">utilise(joueur: Joueur): void</text><!--MD5=[4d011e42b55bf2ca5937cf5b94f8be46]
reverse link Entite to Hostile--><path d="M163,158.716 C163,173.58 163,189.243 163,204.573 " fill="none" id="Entite-backto-Hostile" style="stroke:#A80036;stroke-width:1.0;"/><polygon fill="none" points="156,158.7,163,138.7,170,158.7,156,158.7" style="stroke:#A80036;stroke-width:1.0;"/><!--MD5=[3e6b7e182ab965f7f75a3689cf52102a]
reverse link Hostile to Joueur--><path d="M163,427.221 C163,440.519 163,453.913 163,466.815 " fill="none" id="Hostile-backto-Joueur" style="stroke:#A80036;stroke-width:1.0;"/><polygon fill="none" points="156,427.19,163,407.19,170,427.19,156,427.19" style="stroke:#A80036;stroke-width:1.0;"/><!--MD5=[83d9534316df663dbcf195bada95aad6]
reverse link Objet to Arme--><path d="M572.631,139.921 C540.651,172.184 501.851,211.327 470.061,243.399 " fill="none" id="Objet-backto-Arme" style="stroke:#A80036;stroke-width:1.0;"/><polygon fill="none" points="567.743,134.908,586.795,125.632,577.686,144.764,567.743,134.908" style="stroke:#A80036;stroke-width:1.0;"/><!--MD5=[4c01ea8bae8b732b167dacdb8498e38d]
reverse link Objet to PotionDeVie--><path d="M635,145.706 C635,181.416 635,224.208 635,256.443 " fill="none" id="Objet-backto-PotionDeVie" style="stroke:#A80036;stroke-width:1.0;"/><polygon fill="none" points="628,145.632,635,125.632,642,145.632,628,145.632" style="stroke:#A80036;stroke-width:1.0;"/><!--MD5=[fb44a1aee253e7e95c0a947ba0ff3a1f]
reverse link Objet to PotionDeForce--><path d="M694.096,140.258 C728.411,176.989 770.975,222.551 802.637,256.443 " fill="none" id="Objet-backto-PotionDeForce" style="stroke:#A80036;stroke-width:1.0;"/><polygon fill="none" points="688.971,145.025,680.433,125.632,699.201,135.468,688.971,145.025" style="stroke:#A80036;stroke-width:1.0;"/><!--MD5=[6edc13ea3eeb57dfb58bf3f5074df184]
@startuml
abstract class Entite {
    +nom: string
    +vie: number
    +guid: number
    +salleId: number
    +remove(entites: number[], idx: number): number[]
    +{static} entites: Entite[]
}
class Salle {
    +entites: number[]
    +objets: Objet[]
    +nomSalle: string
    +passages: string[]
    +passagesId: number[]
    +description: string
    +{static} donjon: Salle[]
}
class Hostile extends Entite {
    +critique: number
    +arme: Arme | null
    +sac: Objet[]
    +nom: string
    +vie: number
    +force: number
    +guid: number
    +salleId: number
    +combattre(attaque: number): void
    +attaquer(attaque: number): void
    +utiliser(idx: number): void
    +deEquiper(): void
}
class Joueur extends Hostile {
    +arme: Arme | null
    +or: number
    +sac: Objet[]
    +nom: string
    +vie: number
    +guid: number
    +salleId: number
    +deplacer(direction: string): void
    +observerEntitee(idx: number): Entite | undefined
    +observerObjet(idx: number): Objet
    +prendre(idx: number): void
}
abstract class Objet {
    +nom: string
    +prix: number
    +vendre(joueur: Joueur): void
    +{abstract} utilise(hostile: Hostile): void
}
class Arme extends Objet {
    +nom: string
    +prix: number
    +degat: number
    +utilise(hostile: Hostile): void
    +equipe(hostile: Hostile): void
    +deEquipe(hostile: Hostile): void
}
class PotionDeVie extends Objet {
    +nom: string
    +prix: number
    +effect: number
    +utilise(joueur: Joueur): void
}
class PotionDeForce extends Objet {
    +nom: string
    +prix: number
    +effect: number
    +utilise(joueur: Joueur): void
}
@enduml

PlantUML version 1.2020.22beta3(Unknown compile time)
(GPL source distribution)
Java Runtime: Java(TM) SE Runtime Environment
JVM: Java HotSpot(TM) 64-Bit Server VM
Default Encoding: UTF-8
Language: en
Country: US
--></g></svg>